<svg xmlns="http://www.w3.org/2000/svg" width="512" height="512" viewBox="0 0 1 1"><path fill="#191919" d="M 0.4634 0.0866 L 0.5063 0.0892 L 0.5391 0.105 L 0.5467 0.105 L 0.5492 0.1024 L 0.5947 0.1024 L 0.6098 0.1102 L 0.6174 0.1102 L 0.6465 0.1299 Q 0.6446 0.1358 0.6503 0.1339 L 0.654 0.1417 L 0.6654 0.1496 L 0.6856 0.1496 Q 0.6905 0.159 0.7058 0.1575 L 0.7449 0.1903 L 0.7664 0.2257 L 0.7765 0.2283 L 0.8131 0.2612 L 0.8359 0.3031 L 0.8359 0.3268 L 0.8434 0.3386 L 0.851 0.3425 Q 0.8491 0.3484 0.8548 0.3465 L 0.8737 0.3766 L 0.8737 0.3871 L 0.8813 0.4029 L 0.8813 0.4423 Q 0.8756 0.4455 0.8788 0.458 L 0.8939 0.4921 L 0.8965 0.5367 L 0.8889 0.5656 L 0.8788 0.584 L 0.8788 0.5971 L 0.8813 0.5997 L 0.8813 0.6417 L 0.8737 0.6575 L 0.8737 0.6654 L 0.8561 0.6955 Q 0.8493 0.6926 0.851 0.6995 L 0.8434 0.7034 L 0.8359 0.7152 L 0.8359 0.7388 Q 0.8265 0.7462 0.8258 0.7625 L 0.7967 0.7979 L 0.779 0.811 L 0.7689 0.8136 L 0.7601 0.8228 L 0.7601 0.8307 L 0.75 0.8465 L 0.726 0.8714 L 0.6881 0.8924 L 0.6629 0.895 L 0.654 0.9003 L 0.6503 0.9081 L 0.6427 0.9134 L 0.6351 0.9213 L 0.5947 0.9396 L 0.5518 0.9396 L 0.5391 0.937 L 0.5063 0.9528 L 0.4634 0.9554 L 0.4356 0.9475 L 0.4179 0.937 L 0.4078 0.937 L 0.4053 0.9396 L 0.3649 0.9396 L 0.3396 0.9318 L 0.3321 0.9239 L 0.3106 0.9134 Q 0.3135 0.9064 0.3068 0.9081 L 0.303 0.9003 L 0.2891 0.8924 L 0.2841 0.8924 L 0.2689 0.8924 Q 0.2655 0.8828 0.2513 0.8845 L 0.2121 0.8517 L 0.1995 0.8333 L 0.197 0.8228 L 0.1881 0.8136 Q 0.1594 0.8041 0.1439 0.7808 L 0.1288 0.7572 L 0.1288 0.7493 L 0.1212 0.7362 L 0.1212 0.7152 L 0.1136 0.7034 L 0.1061 0.6995 L 0.0833 0.6654 L 0.0833 0.6549 L 0.0758 0.6365 L 0.0758 0.5997 Q 0.0814 0.5965 0.0783 0.584 L 0.0631 0.5499 L 0.0606 0.5052 L 0.0682 0.4764 L 0.0783 0.458 L 0.0783 0.4449 L 0.0758 0.4423 L 0.0758 0.4003 Q 0.0852 0.3944 0.0833 0.3766 L 0.101 0.3465 Q 0.1078 0.3494 0.1061 0.3425 L 0.1212 0.3268 L 0.1212 0.3031 Q 0.1306 0.2958 0.1313 0.2795 L 0.1604 0.2441 L 0.1806 0.2283 L 0.1881 0.2283 L 0.197 0.2192 Q 0.2068 0.1874 0.2311 0.1706 L 0.2639 0.1522 L 0.2942 0.147 L 0.3106 0.1339 L 0.3144 0.126 L 0.3624 0.1024 L 0.4053 0.1024 L 0.4179 0.105 L 0.4356 0.0945 L 0.4634 0.0866 Z M 0.4798 0.1024 L 0.4773 0.105 L 0.452 0.105 L 0.4419 0.1129 Q 0.4343 0.1102 0.4369 0.1181 L 0.4672 0.126 Q 0.4949 0.1312 0.5101 0.1181 Q 0.5227 0.1234 0.5202 0.1155 L 0.5076 0.105 L 0.4823 0.105 L 0.4798 0.1024 Z M 0.3788 0.1181 L 0.3763 0.1207 L 0.3561 0.1207 L 0.3283 0.1365 L 0.3056 0.1601 L 0.2879 0.189 L 0.2828 0.1969 L 0.2551 0.2205 L 0.2348 0.231 L 0.197 0.2388 L 0.1692 0.2546 L 0.1667 0.2625 Q 0.1591 0.2598 0.1616 0.2677 L 0.154 0.2703 L 0.1389 0.3018 L 0.1338 0.3307 Q 0.1313 0.3412 0.1364 0.3465 L 0.1364 0.3885 L 0.1237 0.4252 L 0.1136 0.4383 Q 0.1162 0.4436 0.1086 0.4409 L 0.0934 0.4619 L 0.0783 0.4934 L 0.0783 0.5486 L 0.0859 0.5696 L 0.0934 0.5774 Q 0.0909 0.5853 0.0985 0.5827 L 0.1237 0.6194 L 0.1364 0.6562 L 0.1364 0.6955 L 0.1338 0.6982 L 0.1338 0.7165 L 0.1389 0.7428 L 0.154 0.7664 L 0.154 0.7717 L 0.1616 0.7769 Q 0.1591 0.7822 0.1667 0.7795 L 0.1692 0.7874 L 0.197 0.8031 L 0.2096 0.8031 L 0.2247 0.811 L 0.2374 0.811 L 0.2525 0.8189 L 0.2828 0.8478 Q 0.2803 0.853 0.2879 0.8504 L 0.3056 0.8845 Q 0.3283 0.9186 0.3838 0.9239 L 0.3889 0.9239 Q 0.3965 0.9186 0.4141 0.9213 L 0.4444 0.9055 Q 0.4596 0.9081 0.4697 0.9003 L 0.4924 0.9003 Q 0.4975 0.9081 0.5152 0.9055 L 0.548 0.9213 L 0.601 0.9213 L 0.6414 0.8976 L 0.6591 0.874 L 0.6641 0.8609 L 0.6869 0.8346 Q 0.6919 0.8373 0.6894 0.832 L 0.7247 0.811 L 0.7525 0.8058 L 0.7778 0.7953 L 0.7904 0.7848 Q 0.7879 0.7769 0.7955 0.7795 L 0.7955 0.7743 L 0.8005 0.7743 L 0.8182 0.7428 L 0.8232 0.7139 Q 0.8283 0.6982 0.8207 0.6955 L 0.8207 0.6562 Q 0.8283 0.6509 0.8258 0.6378 Q 0.8359 0.6063 0.8586 0.5879 Q 0.8561 0.5801 0.8636 0.5827 L 0.8636 0.5774 L 0.8712 0.5696 L 0.8788 0.5486 L 0.8788 0.4934 L 0.8636 0.4619 L 0.8333 0.4252 L 0.8207 0.3858 L 0.8207 0.3465 L 0.8232 0.3438 L 0.8182 0.3018 L 0.803 0.273 L 0.7778 0.2467 L 0.7626 0.2388 L 0.7172 0.2283 Q 0.6894 0.2178 0.6742 0.1969 Q 0.6768 0.189 0.6692 0.1916 L 0.6439 0.1496 L 0.6187 0.1286 L 0.601 0.1207 L 0.5808 0.1207 L 0.5783 0.1181 L 0.5455 0.1207 L 0.5152 0.1365 Q 0.4975 0.1339 0.4924 0.1417 L 0.4672 0.1417 L 0.4571 0.1365 L 0.4369 0.1339 L 0.4141 0.1207 L 0.3838 0.1207 L 0.3788 0.1181 Z M 0.2778 0.1654 Q 0.2449 0.1732 0.2273 0.1969 Q 0.2298 0.2021 0.2222 0.1995 L 0.2172 0.2152 L 0.2172 0.2178 L 0.2374 0.2126 L 0.2652 0.1942 Q 0.2626 0.1864 0.2702 0.189 L 0.2803 0.1759 Q 0.2828 0.1627 0.2778 0.1654 Z M 0.6818 0.1654 L 0.6768 0.1706 L 0.6843 0.1864 L 0.7121 0.2073 L 0.7424 0.2178 Q 0.7399 0.2021 0.7273 0.1969 Q 0.7298 0.189 0.7247 0.1916 L 0.7197 0.1837 L 0.6818 0.1654 Z M 0.1187 0.3543 L 0.1086 0.3648 L 0.0934 0.3963 L 0.0909 0.4304 L 0.0985 0.4331 L 0.1061 0.4252 L 0.1212 0.3885 L 0.1212 0.357 L 0.1187 0.3543 Z M 0.8359 0.3543 L 0.8359 0.3858 L 0.851 0.4252 L 0.8586 0.4331 Q 0.8561 0.4383 0.8636 0.4357 L 0.8662 0.4304 L 0.8636 0.3963 L 0.8485 0.3648 L 0.8359 0.3543 Z M 0.0934 0.6063 L 0.0909 0.6142 L 0.0934 0.6483 L 0.1086 0.6798 L 0.1187 0.6877 L 0.1212 0.685 L 0.1212 0.6588 L 0.1061 0.6194 L 0.0985 0.6115 Q 0.101 0.6037 0.0934 0.6063 Z M 0.8636 0.6063 L 0.851 0.6194 L 0.8359 0.6588 L 0.8359 0.6877 L 0.8409 0.6877 L 0.8485 0.6798 L 0.8636 0.6509 L 0.8636 0.6299 L 0.8662 0.6273 Q 0.8687 0.6115 0.8636 0.6063 Z M 0.2197 0.8215 L 0.2146 0.8268 Q 0.2172 0.8399 0.2298 0.8478 Q 0.2273 0.853 0.2348 0.8504 L 0.2374 0.8583 L 0.2449 0.8583 L 0.2677 0.874 L 0.2753 0.874 Q 0.2778 0.8793 0.2803 0.874 Q 0.2828 0.8635 0.2753 0.8661 L 0.2727 0.8583 L 0.2525 0.8373 L 0.2247 0.8268 L 0.2197 0.8215 Z M 0.7374 0.8241 L 0.7197 0.8294 L 0.697 0.8451 L 0.6768 0.8688 L 0.6768 0.8766 L 0.7096 0.8661 L 0.7197 0.8583 L 0.7424 0.832 Q 0.7449 0.8215 0.7374 0.8241 Z M 0.4672 0.916 L 0.4495 0.9239 Q 0.4343 0.9186 0.4369 0.9291 L 0.452 0.937 L 0.4773 0.937 L 0.4798 0.9396 L 0.5076 0.937 L 0.5177 0.9318 L 0.5202 0.9239 L 0.5025 0.9213 L 0.4949 0.916 L 0.4672 0.916 Z M 0.5568 0.1312 Q 0.5669 0.1299 0.5682 0.1378 L 0.5631 0.1509 L 0.5631 0.1693 L 0.5669 0.1732 L 0.5871 0.1759 L 0.5922 0.1811 L 0.6061 0.1811 L 0.6061 0.1693 L 0.6199 0.1496 L 0.6263 0.1522 L 0.6237 0.1772 L 0.6162 0.189 L 0.6351 0.1969 L 0.6427 0.2047 L 0.6503 0.2047 L 0.7071 0.248 Q 0.7052 0.2539 0.7109 0.252 L 0.7374 0.2795 L 0.7374 0.2835 Q 0.7441 0.2805 0.7424 0.2874 L 0.7563 0.2966 L 0.779 0.2756 L 0.7891 0.2756 L 0.7929 0.2822 L 0.779 0.2992 L 0.7626 0.311 L 0.7753 0.3294 L 0.803 0.3871 L 0.8207 0.4475 L 0.8207 0.4685 L 0.8245 0.4724 L 0.8497 0.4724 L 0.851 0.4816 L 0.8447 0.4882 L 0.8258 0.4908 L 0.8258 0.5157 L 0.8321 0.5223 Q 0.8415 0.5203 0.8434 0.5262 Q 0.8453 0.5361 0.8396 0.5381 Q 0.8283 0.5354 0.8258 0.542 L 0.8207 0.5919 L 0.8131 0.6129 L 0.8131 0.6234 L 0.8056 0.6391 L 0.8056 0.6496 L 0.7803 0.7021 L 0.7677 0.7178 L 0.7677 0.7283 L 0.7904 0.7428 Q 0.7879 0.7507 0.7955 0.748 L 0.7955 0.7585 L 0.7866 0.7612 L 0.7652 0.748 Q 0.7683 0.7402 0.7588 0.7428 L 0.7563 0.7402 L 0.7449 0.752 L 0.7412 0.7585 Q 0.7355 0.7566 0.7374 0.7625 L 0.7146 0.7822 L 0.7033 0.7979 Q 0.6689 0.8297 0.6237 0.8478 L 0.6237 0.8622 Q 0.6332 0.8681 0.6313 0.8858 L 0.6225 0.8898 L 0.6162 0.8832 L 0.6061 0.8583 L 0.5682 0.8727 L 0.5707 0.9003 Q 0.5591 0.9035 0.5556 0.8963 L 0.553 0.8766 L 0.529 0.8766 L 0.5088 0.8819 L 0.4482 0.8819 L 0.428 0.8766 L 0.4104 0.8766 L 0.3826 0.8688 L 0.3737 0.8832 L 0.3737 0.8963 L 0.3649 0.9081 L 0.3561 0.9042 L 0.3561 0.8885 Q 0.3674 0.8812 0.3636 0.8609 L 0.322 0.8451 L 0.3144 0.8373 L 0.2841 0.8215 L 0.25 0.794 Q 0.2519 0.7881 0.2462 0.79 L 0.2424 0.7822 L 0.2273 0.7703 Q 0.2292 0.7644 0.2235 0.7664 L 0.2197 0.7585 Q 0.213 0.7615 0.2146 0.7546 Q 0.2102 0.7434 0.2058 0.7507 L 0.2008 0.7507 L 0.1831 0.7664 L 0.1692 0.7664 Q 0.1667 0.7518 0.178 0.748 L 0.197 0.7336 L 0.178 0.7087 L 0.1629 0.7165 Q 0.1553 0.7152 0.1566 0.7047 L 0.1717 0.6916 L 0.1439 0.6234 L 0.1439 0.6129 L 0.1364 0.5945 L 0.1364 0.5735 L 0.1313 0.5486 L 0.0997 0.5486 L 0.0934 0.5459 Q 0.0882 0.5323 0.0997 0.5354 L 0.1023 0.5328 L 0.125 0.5328 L 0.1313 0.5262 L 0.1313 0.4921 L 0.1275 0.4908 L 0.1136 0.4816 L 0.1174 0.4724 Q 0.1326 0.4764 0.1364 0.4685 L 0.1364 0.4501 L 0.1439 0.4291 L 0.1439 0.4186 L 0.1768 0.3386 Q 0.1843 0.3419 0.1818 0.332 L 0.1843 0.3255 L 0.1894 0.3255 L 0.1894 0.3097 L 0.1831 0.3097 L 0.1616 0.294 Q 0.1591 0.284 0.1654 0.2808 L 0.173 0.2808 L 0.1957 0.2992 L 0.2033 0.2992 L 0.2159 0.2835 Q 0.2216 0.2854 0.2197 0.2795 L 0.2462 0.252 L 0.25 0.252 L 0.2538 0.2441 L 0.3182 0.1982 L 0.3182 0.1903 L 0.3106 0.1745 L 0.3131 0.168 L 0.3283 0.1772 Q 0.327 0.1877 0.3346 0.189 L 0.3447 0.189 L 0.3586 0.1811 L 0.3561 0.1614 Q 0.3469 0.1578 0.3485 0.143 L 0.351 0.1365 Q 0.3629 0.1339 0.3662 0.143 L 0.3662 0.1535 L 0.3775 0.1759 L 0.4104 0.1654 L 0.4836 0.1575 L 0.4861 0.1601 L 0.5114 0.1601 L 0.5139 0.1627 L 0.5442 0.1654 Q 0.5511 0.1621 0.548 0.1483 L 0.5568 0.1312 Z M 0.4444 0.1759 L 0.4293 0.1811 L 0.4015 0.1837 L 0.3864 0.1916 L 0.3737 0.1916 L 0.3636 0.1995 L 0.3384 0.2073 Q 0.2879 0.2336 0.25 0.2703 Q 0.2045 0.315 0.1768 0.3753 L 0.1566 0.4331 L 0.1515 0.4724 L 0.1465 0.4856 L 0.1465 0.5591 L 0.1515 0.5696 L 0.154 0.5984 L 0.1591 0.601 L 0.1667 0.5984 L 0.1667 0.5827 L 0.1616 0.5722 Q 0.1667 0.5564 0.1591 0.5538 L 0.1591 0.5171 Q 0.1616 0.5092 0.1717 0.5118 Q 0.1818 0.5354 0.1768 0.5748 L 0.1869 0.5853 L 0.2399 0.5512 Q 0.2652 0.5459 0.2727 0.5617 L 0.3232 0.5302 L 0.3283 0.5328 L 0.3409 0.5302 L 0.3434 0.5249 L 0.3384 0.5197 L 0.3258 0.5013 L 0.3258 0.4882 L 0.3333 0.4777 L 0.3333 0.4567 L 0.3409 0.4488 L 0.3409 0.4173 L 0.3485 0.4016 Q 0.351 0.3911 0.3611 0.3937 L 0.3662 0.3885 L 0.3737 0.3648 L 0.3838 0.3543 L 0.3965 0.3491 Q 0.4116 0.3465 0.4192 0.3543 L 0.4343 0.3543 L 0.4697 0.3255 L 0.4848 0.3202 L 0.5152 0.3228 L 0.5505 0.3386 L 0.5934 0.3412 L 0.6035 0.3465 L 0.6162 0.3622 L 0.6237 0.3832 Q 0.6212 0.3885 0.6288 0.3858 L 0.6364 0.4042 L 0.6389 0.4383 L 0.6465 0.4567 L 0.6439 0.4698 L 0.6465 0.5013 L 0.6515 0.5118 L 0.6818 0.5354 L 0.6944 0.5328 L 0.7121 0.5381 L 0.7399 0.5591 L 0.7576 0.5591 Q 0.7626 0.5696 0.7803 0.5669 L 0.7803 0.4751 Q 0.7727 0.4672 0.7753 0.4541 Q 0.7778 0.4462 0.7879 0.4488 L 0.7904 0.4541 L 0.798 0.4934 L 0.798 0.5512 L 0.7929 0.5696 L 0.7955 0.5801 L 0.803 0.5827 L 0.8056 0.5801 L 0.8106 0.5564 L 0.8106 0.4856 L 0.8056 0.4724 L 0.8005 0.4331 L 0.7955 0.4252 L 0.7955 0.4147 L 0.7879 0.4016 L 0.7803 0.3753 L 0.7576 0.3333 L 0.7197 0.2835 L 0.6515 0.2231 L 0.5859 0.1916 L 0.5152 0.1759 L 0.4444 0.1759 Z M 0.4899 0.336 L 0.4747 0.3412 L 0.4444 0.3648 L 0.4318 0.378 L 0.4318 0.3832 L 0.447 0.3937 L 0.4722 0.3937 L 0.4848 0.3806 L 0.4848 0.3753 Q 0.4874 0.3648 0.5 0.3675 L 0.5051 0.3753 L 0.5354 0.3622 L 0.5455 0.3543 L 0.5202 0.3412 L 0.4899 0.336 Z M 0.5758 0.357 L 0.4747 0.4094 L 0.4621 0.4383 L 0.4495 0.4436 L 0.4495 0.4619 L 0.4419 0.4751 L 0.4318 0.4829 L 0.4217 0.4829 L 0.4192 0.4961 L 0.404 0.5066 L 0.3965 0.5249 L 0.3914 0.5302 L 0.3737 0.5354 L 0.3662 0.5328 Q 0.351 0.5354 0.3434 0.5486 L 0.3662 0.5801 Q 0.3636 0.5853 0.3712 0.5827 L 0.3965 0.6194 Q 0.3939 0.6247 0.4015 0.622 L 0.4167 0.643 L 0.4217 0.643 L 0.4343 0.6299 L 0.4318 0.6142 L 0.4167 0.5932 L 0.4217 0.5827 L 0.4318 0.5853 L 0.4343 0.5958 L 0.452 0.6142 L 0.4874 0.601 L 0.5177 0.5984 L 0.548 0.5906 L 0.596 0.5591 L 0.6212 0.5302 L 0.6313 0.5118 L 0.6313 0.4987 L 0.6263 0.4987 L 0.6061 0.5144 Q 0.5985 0.5118 0.601 0.5249 Q 0.5985 0.5302 0.5884 0.5276 Q 0.5833 0.5171 0.5859 0.4961 L 0.5934 0.4934 L 0.601 0.4961 L 0.6136 0.4908 Q 0.6338 0.4803 0.6288 0.4462 L 0.6061 0.4593 L 0.5985 0.4751 Q 0.596 0.4829 0.5859 0.4803 L 0.5808 0.4593 Q 0.5783 0.4462 0.5884 0.4436 L 0.596 0.4488 L 0.601 0.4488 L 0.6212 0.4304 Q 0.6263 0.4042 0.6162 0.3963 L 0.6111 0.3963 L 0.5909 0.4121 L 0.5859 0.4147 L 0.5859 0.4278 L 0.5783 0.4278 L 0.5707 0.4226 L 0.5682 0.3937 L 0.5808 0.3963 L 0.5985 0.3885 L 0.6061 0.378 L 0.5985 0.3648 Q 0.5934 0.3543 0.5758 0.357 Z M 0.3965 0.3648 L 0.3813 0.3832 L 0.3813 0.399 L 0.4091 0.4173 L 0.4167 0.4173 L 0.4419 0.4304 L 0.452 0.4252 Q 0.4571 0.4226 0.4545 0.4121 L 0.4242 0.3963 Q 0.4141 0.3911 0.4167 0.3727 Q 0.4141 0.3622 0.3965 0.3648 Z M 0.3662 0.4068 L 0.3586 0.4147 L 0.3561 0.4252 L 0.3586 0.4383 L 0.3737 0.4488 L 0.3889 0.4567 L 0.3965 0.4567 L 0.4066 0.4646 L 0.4293 0.4646 Q 0.4369 0.4593 0.4318 0.4436 L 0.3914 0.4252 L 0.3712 0.4068 L 0.3662 0.4068 Z M 0.3561 0.4541 L 0.3485 0.4672 L 0.351 0.4724 Q 0.3636 0.4882 0.3889 0.4934 Q 0.404 0.4961 0.4066 0.4856 L 0.399 0.4751 L 0.3737 0.4672 L 0.3561 0.4541 Z M 0.3434 0.4882 L 0.3434 0.5039 L 0.3687 0.5197 L 0.3813 0.5171 L 0.3864 0.5066 L 0.3763 0.5066 L 0.3434 0.4882 Z M 0.6439 0.5223 L 0.6288 0.5433 Q 0.6313 0.5486 0.6237 0.5459 L 0.6187 0.5591 L 0.5657 0.5984 L 0.5429 0.6089 Q 0.5354 0.6063 0.5379 0.6142 L 0.5581 0.622 L 0.5884 0.6457 L 0.5934 0.643 L 0.5985 0.6352 L 0.6061 0.6299 L 0.6439 0.5801 L 0.6515 0.5748 L 0.6591 0.5643 Q 0.6566 0.5564 0.6641 0.5591 L 0.6692 0.5512 L 0.6667 0.5407 L 0.6439 0.5223 Z M 0.3207 0.5486 L 0.2828 0.5748 L 0.2828 0.5827 L 0.3056 0.6115 Q 0.303 0.6168 0.3106 0.6142 L 0.3662 0.6955 L 0.3737 0.6982 L 0.3763 0.7008 L 0.399 0.6772 Q 0.404 0.6798 0.4015 0.6745 L 0.4091 0.6693 L 0.4091 0.6614 L 0.3939 0.643 Q 0.3965 0.6352 0.3889 0.6378 L 0.3788 0.622 Q 0.3813 0.6142 0.3737 0.6168 L 0.3258 0.5538 Q 0.3283 0.5459 0.3207 0.5486 Z M 0.6894 0.5512 L 0.6843 0.5591 L 0.6768 0.5617 L 0.654 0.5958 L 0.5985 0.6614 L 0.601 0.6745 Q 0.6136 0.6903 0.6364 0.6982 L 0.6591 0.6667 L 0.6667 0.6614 L 0.6793 0.6378 L 0.6742 0.6325 L 0.6692 0.6247 Q 0.6641 0.6194 0.6717 0.6168 L 0.697 0.622 L 0.702 0.6142 L 0.6995 0.6063 L 0.6919 0.601 Q 0.6793 0.5984 0.6818 0.5827 L 0.6894 0.5801 L 0.7096 0.5932 L 0.7172 0.5932 L 0.7298 0.5748 Q 0.7172 0.5538 0.6894 0.5512 Z M 0.25 0.5643 L 0.1616 0.6194 L 0.1616 0.6299 L 0.1843 0.685 L 0.2121 0.7297 L 0.2424 0.7638 Q 0.2475 0.7612 0.2449 0.769 L 0.2803 0.7953 L 0.2828 0.8031 Q 0.2929 0.8005 0.298 0.811 L 0.3081 0.811 L 0.3258 0.7927 Q 0.3232 0.7848 0.3308 0.7874 L 0.3737 0.7349 L 0.3712 0.7244 L 0.2652 0.5827 L 0.2601 0.5748 L 0.25 0.5643 Z M 0.7449 0.5774 L 0.6616 0.6929 L 0.654 0.6955 L 0.6439 0.7139 L 0.6439 0.7244 L 0.654 0.7402 L 0.6869 0.7717 L 0.697 0.7769 L 0.702 0.7769 Q 0.7071 0.7795 0.7045 0.7717 L 0.7121 0.769 Q 0.7096 0.7612 0.7172 0.7638 L 0.7652 0.7008 L 0.7879 0.6509 L 0.7879 0.643 L 0.7955 0.6325 L 0.798 0.6115 L 0.803 0.6063 Q 0.7828 0.5801 0.7449 0.5774 Z M 0.5101 0.6142 Q 0.5051 0.622 0.4899 0.6168 L 0.4672 0.6247 L 0.4571 0.6325 Q 0.447 0.6299 0.4495 0.6378 L 0.4419 0.6404 L 0.4394 0.6483 Q 0.4318 0.6457 0.4343 0.6535 L 0.4268 0.6562 L 0.4242 0.6745 L 0.4015 0.6955 L 0.3965 0.7034 L 0.3838 0.7139 L 0.3889 0.7244 Q 0.3914 0.7454 0.3788 0.7533 Q 0.3813 0.7585 0.3763 0.7559 L 0.3687 0.7664 Q 0.3611 0.7638 0.3636 0.7717 L 0.3586 0.7717 L 0.3384 0.8005 L 0.3763 0.8189 L 0.3864 0.8189 Q 0.3939 0.8215 0.3914 0.8346 L 0.3864 0.8373 L 0.3434 0.8215 L 0.3333 0.8136 L 0.3207 0.8136 L 0.3182 0.8241 L 0.3763 0.8504 L 0.3864 0.8504 L 0.4015 0.8583 L 0.4167 0.8583 L 0.4495 0.8661 L 0.5126 0.8661 L 0.5429 0.8583 L 0.5581 0.8583 Q 0.5657 0.8504 0.5833 0.8504 L 0.596 0.8425 L 0.6035 0.8425 L 0.6136 0.8346 L 0.6212 0.8346 L 0.6515 0.8189 L 0.6692 0.8031 Q 0.6768 0.8058 0.6742 0.7979 L 0.6818 0.7953 Q 0.6843 0.7822 0.6768 0.7822 L 0.6313 0.8136 L 0.6162 0.8215 L 0.6086 0.8215 L 0.5985 0.8294 Q 0.5808 0.8268 0.5783 0.8373 L 0.5657 0.8373 L 0.5505 0.8451 L 0.5328 0.8451 L 0.5051 0.853 L 0.4949 0.8504 Q 0.4848 0.853 0.4899 0.8399 L 0.4949 0.8346 L 0.5202 0.8346 L 0.5429 0.8268 L 0.5581 0.8268 L 0.5732 0.8189 L 0.5833 0.8189 L 0.5934 0.811 L 0.601 0.811 L 0.6313 0.7953 L 0.6591 0.7743 L 0.6591 0.769 L 0.6313 0.7349 L 0.6263 0.7165 L 0.6061 0.7008 Q 0.6086 0.6929 0.6035 0.6955 L 0.5833 0.6745 L 0.5833 0.6614 L 0.5202 0.6168 L 0.5101 0.6142 Z M 0.4407 0.189 L 0.5114 0.189 L 0.5202 0.1955 Q 0.5215 0.206 0.5139 0.2073 L 0.4659 0.2047 L 0.4634 0.2073 L 0.4255 0.2073 L 0.4053 0.2152 L 0.3927 0.2152 L 0.3371 0.2388 Q 0.3314 0.2369 0.3333 0.227 L 0.3396 0.2205 L 0.3548 0.2126 L 0.3624 0.2126 L 0.3674 0.2073 L 0.4407 0.189 Z M 0.5492 0.1969 Q 0.6135 0.2135 0.6591 0.2467 Q 0.6616 0.2567 0.6553 0.2598 L 0.6477 0.2598 L 0.6199 0.2415 L 0.5821 0.2231 L 0.5745 0.2231 L 0.5644 0.2152 L 0.5518 0.2152 L 0.5455 0.2087 Q 0.5436 0.1988 0.5492 0.1969 Z M 0.4722 0.2336 L 0.4848 0.2336 L 0.4848 0.2375 L 0.4874 0.2402 L 0.4874 0.2874 Q 0.4861 0.2953 0.476 0.294 L 0.4697 0.2874 L 0.4697 0.2402 L 0.4722 0.2336 Z M 0.2992 0.2441 Q 0.3106 0.2415 0.3131 0.248 Q 0.3144 0.2612 0.3043 0.2625 L 0.2841 0.273 L 0.2778 0.2703 L 0.2778 0.2638 L 0.2891 0.252 L 0.2992 0.2441 Z M 0.3826 0.2808 Q 0.3927 0.2795 0.3939 0.2874 L 0.404 0.3084 L 0.404 0.3215 L 0.3977 0.3255 L 0.3889 0.3189 Q 0.3881 0.3026 0.3788 0.2953 L 0.3788 0.2848 L 0.3826 0.2808 Z M 0.5694 0.2808 L 0.5783 0.2848 L 0.5783 0.2953 L 0.5669 0.315 L 0.5581 0.311 L 0.5556 0.3058 L 0.5694 0.2808 Z M 0.2563 0.2835 L 0.2626 0.2861 L 0.2601 0.3005 L 0.2298 0.3346 L 0.1995 0.3898 L 0.1995 0.3976 L 0.1843 0.4344 L 0.1843 0.4501 Q 0.1763 0.4615 0.1768 0.4816 L 0.173 0.4856 Q 0.1629 0.4869 0.1616 0.479 L 0.1667 0.4606 L 0.1667 0.4423 L 0.1742 0.4265 L 0.1742 0.4134 L 0.1894 0.3819 L 0.1894 0.374 L 0.2222 0.3189 L 0.2513 0.2861 L 0.2563 0.2835 Z M 0.7008 0.2913 L 0.7083 0.2913 L 0.7222 0.3058 L 0.7601 0.3635 L 0.7601 0.3766 L 0.75 0.3806 L 0.7348 0.3504 L 0.6995 0.3058 L 0.697 0.2953 L 0.7008 0.2913 Z M 0.2841 0.315 L 0.2917 0.315 L 0.3106 0.3346 Q 0.3087 0.3406 0.3144 0.3386 L 0.3359 0.3609 L 0.3384 0.3688 L 0.3295 0.3753 L 0.2803 0.3268 Q 0.2784 0.3169 0.2841 0.315 Z M 0.6654 0.315 Q 0.6749 0.313 0.6768 0.3189 L 0.6768 0.3268 L 0.6503 0.3543 L 0.6402 0.357 L 0.6364 0.3478 L 0.6654 0.315 Z M 0.7639 0.3937 Q 0.7734 0.3917 0.7753 0.3976 Q 0.7734 0.4088 0.7803 0.4108 L 0.7803 0.4213 Q 0.7784 0.4272 0.7689 0.4252 L 0.7652 0.4213 L 0.7601 0.3976 L 0.7639 0.3937 Z M 0.2513 0.4173 L 0.2614 0.4173 L 0.2715 0.4252 L 0.2992 0.4331 L 0.3081 0.4423 L 0.3043 0.4514 L 0.2942 0.4514 Q 0.2853 0.4424 0.2689 0.4409 L 0.2475 0.4265 L 0.2513 0.4173 Z M 0.6957 0.4173 Q 0.7071 0.4147 0.7096 0.4213 Q 0.7109 0.4344 0.7008 0.4357 Q 0.6855 0.4342 0.6806 0.4436 L 0.6667 0.4436 Q 0.6641 0.4313 0.673 0.4278 Q 0.6886 0.427 0.6957 0.4173 Z M 0.5341 0.4199 L 0.5429 0.4239 Q 0.5448 0.4337 0.5391 0.4357 L 0.5038 0.4593 L 0.4886 0.4646 Q 0.483 0.4626 0.4848 0.4528 L 0.5341 0.4199 Z M 0.5467 0.4724 Q 0.5619 0.4685 0.5657 0.4764 L 0.5568 0.4882 L 0.529 0.4987 L 0.5189 0.5066 L 0.5038 0.5066 L 0.5 0.5 L 0.5088 0.4908 L 0.5215 0.4882 L 0.5467 0.4724 Z M 0.5518 0.5223 Q 0.5688 0.5164 0.5631 0.5341 L 0.5391 0.5459 Q 0.5232 0.5438 0.5164 0.5512 L 0.5101 0.5486 L 0.5076 0.5394 L 0.524 0.5302 L 0.5442 0.5276 L 0.5518 0.5223 Z M 0.4735 0.6614 Q 0.4848 0.6588 0.4874 0.6654 L 0.4874 0.7152 L 0.4811 0.7244 L 0.4722 0.7205 L 0.4697 0.7152 L 0.4697 0.6654 L 0.4735 0.6614 Z M 0.5379 0.6745 Q 0.5497 0.6726 0.553 0.6837 L 0.5556 0.6969 L 0.5707 0.7283 L 0.5707 0.7388 L 0.5619 0.7428 L 0.5556 0.7362 L 0.5455 0.7126 L 0.5455 0.7047 L 0.5379 0.6942 L 0.5379 0.6745 Z M 0.4306 0.7034 L 0.4394 0.71 Q 0.4409 0.722 0.4343 0.7257 L 0.4343 0.7415 L 0.423 0.7717 Q 0.4135 0.7736 0.4116 0.7677 Q 0.4096 0.7538 0.4167 0.7493 L 0.4167 0.7336 L 0.4242 0.7178 L 0.4242 0.71 L 0.4306 0.7034 Z M 0.5139 0.7428 Q 0.524 0.7415 0.5253 0.7493 L 0.5253 0.7782 L 0.5215 0.7822 L 0.5152 0.7782 L 0.5076 0.752 L 0.5139 0.7428 Z M 0.3194 0.748 Q 0.3289 0.7461 0.3308 0.752 L 0.3245 0.7664 Q 0.3188 0.7644 0.3207 0.7703 L 0.3131 0.7743 L 0.3043 0.7874 Q 0.2888 0.7922 0.2955 0.773 L 0.3194 0.748 Z M 0.4205 0.8294 L 0.4356 0.8346 Q 0.4597 0.831 0.4697 0.8373 Q 0.4722 0.8473 0.4659 0.8504 L 0.4508 0.853 L 0.428 0.8451 L 0.4179 0.8451 L 0.4141 0.8412 L 0.4205 0.8294 Z"/></svg>