<svg viewBox="0 0 396 381" version="1.1" xmlns="http://www.w3.org/2000/svg" desc="Created with imagetracer.js version 1.2.6" ><path fill="rgb(251,251,251)" stroke="rgb(251,251,251)" stroke-width="0" opacity="1" d="M 0 0 L 396 0 L 396 381 L 0 381 L 0 0 Z M 184 33 L 173 36 L 166 40 L 161 39 L 144 39 L 125 48 L 123 51 L 117 56 L 105 58 L 92 65 Q 82 71 78 84 L 75 87 L 72 87 L 64 93 L 52 107 Q 52 113 48 116 L 48 125 L 42 131 Q 43 133 40 132 L 33 144 Q 34 150 30 153 L 30 169 L 31 170 L 31 175 L 27 182 L 24 193 L 25 210 L 31 223 Q 32 227 30 229 L 30 243 L 33 250 L 33 254 L 42 267 L 45 268 L 48 273 L 48 281 L 51 286 L 51 289 L 57 298 Q 63 306 75 310 L 78 314 L 79 318 L 84 325 L 100 337 Q 105 336 107 340 L 113 340 L 115 340 L 120 343 L 122 346 Q 124 345 123 348 L 132 352 L 135 355 L 145 358 L 161 358 L 162 357 L 166 357 L 173 361 L 184 364 L 201 363 L 214 357 L 219 358 L 236 358 L 252 351 L 255 348 L 258 346 L 259 343 L 263 341 L 273 340 L 288 332 L 297 323 L 301 317 L 301 314 L 305 310 L 309 309 L 316 304 L 327 291 Q 327 284 331 282 L 331 273 L 334 268 L 337 267 Q 336 264 339 265 L 346 254 L 346 251 L 349 245 L 349 229 L 348 228 L 348 223 L 352 216 L 355 205 L 354 188 L 348 175 Q 347 170 349 169 L 349 154 L 346 148 L 346 144 L 339 132 Q 336 133 337 131 L 334 129 L 331 125 L 331 116 L 322 100 L 308 87 L 304 86 L 295 73 L 280 60 Q 273 61 272 57 L 264 57 L 259 54 L 258 51 Q 255 52 256 50 L 245 42 L 242 42 L 236 39 L 218 39 L 217 40 L 214 40 L 201 34 L 184 33 Z " /><path fill="rgb(251,251,251)" stroke="rgb(251,251,251)" stroke-width="0" opacity="1" d="M 189.5 39 L 190.5 40 L 200.5 40 L 206 43.5 Q 206.9 46.87 201.5 45 Q 196 49.5 184.5 48 L 173 45 Q 171.88 42.33 174.5 43 L 178.5 40 L 188.5 40 L 189.5 39 Z " /><path fill="rgb(251,251,251)" stroke="rgb(251,251,251)" stroke-width="0" opacity="1" d="M 149.5 45 L 151.5 46 L 163.5 46 L 172.5 51 L 180.5 52 L 184.5 54 L 194.5 54 Q 197.17 51.17 203.5 52 L 215.5 46 L 228.5 45 L 229.5 46 L 237.5 46 L 244.5 49 L 255 56.5 L 265 73 Q 267.67 71.88 267 74.5 Q 273.44 82.56 283.5 87 L 301.5 91 L 307.5 94 L 318 103.5 L 324 114.5 L 326 130.5 L 325 131.5 L 325 146.5 L 330 161.5 L 342 175.5 L 348 187.5 L 348 208.5 L 345 216.5 L 342 219.5 L 342 222 Q 339.33 220.88 340 223.5 Q 331.1 230.6 327 242.5 Q 327.8 247.8 325 249.5 L 325 264.5 Q 327.5 266 326 271.5 L 324 282.5 L 316.5 295 L 315 295 L 315 297 Q 312.33 295.88 313 298.5 L 307.5 303 L 297.5 307 L 286.5 309 L 273 316.5 Q 273.75 318.75 271.5 318 L 263 327.5 L 261 332.5 L 253.5 342 L 237.5 351 L 216.5 351 L 203.5 345 Q 197.17 345.83 194.5 343 L 185.5 343 Q 182.21 345.71 175.5 345 L 163.5 351 Q 156.67 349.67 153.5 352 L 151.5 352 Q 130.05 350.45 121 336.5 L 113.5 324 Q 111.25 324.75 112 322.5 L 99.5 312 L 93.5 309 L 88.5 309 L 82.5 306 L 77.5 306 L 67 300 L 65.5 297 Q 63.25 297.75 64 295.5 L 61 294 L 61 291.5 L 55 282.5 L 53 272.5 L 53 265.5 L 54 264.5 L 54 249.5 L 49 235.5 L 39 222 Q 36 223.25 37 219.5 L 34 216.5 L 31 208.5 L 31 187.5 L 37 175.5 L 43 168 Q 45.67 169.13 45 166.5 L 49 161.5 L 54 147.5 L 54 131.5 Q 51.75 130.25 53 125.5 L 55 114.5 L 61 103 L 64 101.5 Q 63.25 99.25 65.5 100 L 67 97 L 77.5 91 L 92.5 88 L 100.5 84 L 112 74.5 L 114 71.5 L 121 60.5 L 129.5 52 L 140.5 46 L 148.5 46 L 149.5 45 Z M 221 50 L 217 57 Q 218 62 216 63 L 204 62 L 203 61 L 193 61 L 192 60 L 163 63 L 150 67 L 145 59 L 145 55 Q 144 51 139 52 L 138 55 Q 137 60 141 62 L 142 69 L 137 72 L 133 72 Q 130 72 130 68 L 124 64 L 123 67 L 126 73 L 126 76 L 101 93 L 99 96 L 98 96 L 87 107 Q 88 109 86 108 L 81 114 L 78 114 L 69 107 L 66 107 Q 63 108 64 112 L 73 118 L 75 118 L 75 124 L 73 124 L 72 127 Q 73 130 70 129 L 57 160 L 57 164 L 54 172 L 54 179 Q 52 182 47 180 L 45 184 L 51 187 L 52 188 L 52 201 L 50 203 L 41 203 L 40 204 Q 35 203 37 208 L 40 209 L 52 209 L 54 219 L 54 227 L 57 234 L 57 238 L 68 264 L 62 269 Q 61 273 65 273 L 71 270 L 78 280 L 71 285 Q 66 286 67 292 L 73 292 L 80 286 L 82 286 Q 83 283 85 288 Q 84 290 87 289 L 89 292 Q 91 291 90 294 L 96 298 L 98 301 Q 100 300 99 303 L 113 313 L 125 319 L 128 322 L 144 328 Q 146 336 141 339 L 141 345 L 145 346 L 148 342 L 148 337 L 152 331 L 163 334 L 170 334 L 178 336 L 202 336 L 210 334 L 219 334 L 220 342 Q 221 344 226 343 L 225 333 L 240 327 L 244 337 L 247 339 L 250 338 Q 251 331 247 329 L 247 323 Q 265 316 279 304 L 283 298 L 292 291 Q 291 288 294 289 L 295 287 L 300 282 L 301 283 Q 304 282 303 285 L 312 290 L 315 289 L 315 285 Q 312 286 313 283 L 304 278 L 304 274 L 309 268 L 319 248 L 319 244 L 322 238 L 322 234 L 325 226 L 327 207 Q 328 204 333 205 Q 335 204 334 201 Q 333 198 330 199 L 327 197 L 327 187 L 335 186 L 337 184 L 337 180 L 327 180 L 325 179 L 325 171 L 318 148 L 307 126 L 302 119 L 309 114 L 314 108 L 313 105 L 309 105 L 300 113 L 294 110 Q 295 107 292 108 L 292 107 L 282 96 Q 279 97 280 95 L 258 78 L 255 78 L 252 75 L 244 72 L 247 68 L 248 58 L 246 57 L 240 65 L 240 69 L 235 69 L 233 67 L 225 66 L 223 65 L 223 58 L 225 53 Q 225 50 221 50 Z " /><path fill="rgb(251,251,251)" stroke="rgb(251,251,251)" stroke-width="0" opacity="1" d="M 109.5 63 Q 112.5 62.12 111 66.5 L 107 72 Q 104.33 70.88 105 73.5 L 93.5 81 L 85.5 83 L 86 81.5 L 88 76 Q 90.67 77.13 90 74.5 Q 97.34 66.34 109.5 63 Z " /><path fill="rgb(251,251,251)" stroke="rgb(251,251,251)" stroke-width="0" opacity="1" d="M 269.5 63 L 285 70 L 286.5 73 Q 288.75 72.25 288 74.5 Q 293.25 77.25 294 83 L 281.5 79 L 271 70.5 L 268 64.5 L 269.5 63 Z " /><path fill="rgb(251,251,251)" stroke="rgb(251,251,251)" stroke-width="0" opacity="1" d="M 175.5 67 L 203.5 67 L 231.5 73 L 257.5 85 L 285 107.5 L 300 126.5 L 309 142.5 L 312 152.5 L 315 157.5 L 315 161.5 L 317 164.5 L 319 179.5 L 321 184.5 L 321 211.5 L 319 220.5 L 317.5 222 L 315 220.5 L 314 216.5 L 316 209.5 L 316 187.5 L 313 172.5 L 311.5 171 Q 307.75 170.25 307 172.5 Q 306.33 178.17 309 180.5 L 309 216 Q 302.01 217.29 299.5 213 L 292.5 213 L 281.5 205 L 274.5 203 L 269.5 204 L 258 195 L 256 190.5 L 255 178.5 L 256 173.5 L 253 166.5 L 252 153.5 L 249 147 Q 246.33 148.13 247 145.5 L 244 137.5 L 238.5 132 L 234.5 130 L 217.5 129 L 203.5 123 L 191.5 122 L 185.5 124 L 171.5 135 L 165.5 135 Q 162.83 132.17 156.5 133 L 151.5 135 L 148 138.5 L 145 147.5 L 142.5 150 Q 138.5 149.5 138 152.5 L 135 158.5 L 135 170.5 L 132 173.5 L 132 181.5 L 129 185.5 L 129 190.5 L 133.5 198 L 136 199.5 L 134.5 202 L 129.5 203 L 127.5 202 L 107.5 214 Q 104.78 208.22 94.5 210 L 73.5 223 L 70 218.5 Q 72 203.5 67.5 195 Q 63.75 194.25 63 196.5 L 63 210.5 Q 65.5 212 64 217.5 L 66 221.5 L 66 228 L 62.5 229 L 61 227.5 L 60 216.5 L 58 212.5 L 58 184.5 L 60 179.5 L 62 164.5 L 70 142.5 Q 81.07 119.57 98.5 103 Q 113.61 88.61 133.5 79 L 143.5 76 L 147.5 73 L 152.5 73 L 158.5 70 L 169.5 69 L 175.5 67 Z M 175 72 L 146 79 L 144 81 L 141 81 L 135 84 L 132 87 Q 131 90 134 91 L 156 82 L 161 82 L 169 79 L 184 79 L 185 78 L 204 79 Q 206 79 206 75 L 203 72 L 175 72 Z M 218 75 Q 215 76 216 80 L 219 82 L 224 82 L 228 85 L 231 85 L 246 92 L 257 99 L 260 99 Q 262 98 261 94 Q 243 81 218 75 Z M 187 89 L 186 92 L 186 110 L 189 112 Q 193 112 193 110 L 193 92 L 192 91 L 192 89 L 187 89 Z M 119 93 L 115 96 L 110 101 L 110 103 L 113 104 L 121 100 Q 124 99 124 95 Q 123 92 119 93 Z M 152 107 L 150 109 L 150 113 Q 154 115 154 122 L 158 124 L 160 123 L 160 118 L 156 110 Q 155 107 152 107 Z M 226 107 L 220 117 L 221 119 L 225 120 L 229 113 L 229 109 L 226 107 Z M 102 108 L 100 109 L 88 122 L 75 143 L 75 146 L 69 158 L 69 163 L 66 169 L 66 176 L 64 183 Q 65 186 69 185 L 70 184 Q 70 176 73 172 L 73 166 L 79 152 L 79 149 L 91 128 L 103 115 L 104 109 L 102 108 Z M 278 111 L 276 113 L 277 117 L 291 134 L 297 145 L 301 144 L 301 139 L 286 117 L 281 111 L 278 111 Z M 113 120 Q 110 121 111 125 L 131 143 L 134 141 L 133 138 L 125 129 Q 122 130 123 128 L 116 120 L 113 120 Z M 264 120 L 252 133 L 254 136 L 258 135 L 268 125 L 268 122 Q 267 119 264 120 Z M 303 150 L 301 152 L 303 161 L 305 162 Q 308 163 309 161 L 309 157 Q 306 156 307 152 Q 306 149 303 150 Z M 100 159 L 98 163 L 107 168 Q 113 169 117 172 L 121 172 L 122 169 L 119 165 L 108 162 L 104 159 L 100 159 Z M 276 159 Q 273 163 267 163 Q 263 164 264 169 L 270 169 Q 271 165 278 166 Q 282 166 281 161 Q 280 158 276 159 Z " /><path fill="rgb(251,251,251)" stroke="rgb(251,251,251)" stroke-width="0" opacity="1" d="M 193.5 128 L 205.5 130 L 216 134.5 L 211.5 138 L 199.5 143 L 198 140 Q 193.31 139 192 142.5 L 192 144.5 L 186.5 150 L 176.5 150 L 171 145.5 L 171 143.5 L 175.5 139 L 187.5 130 L 193.5 128 Z " /><path fill="rgb(251,251,251)" stroke="rgb(251,251,251)" stroke-width="0" opacity="1" d="M 46.5 135 L 48 135.5 L 48 147.5 L 42 161.5 L 38.5 165 L 36 163.5 L 37 150.5 L 43 138.5 L 46.5 135 Z " /><path fill="rgb(251,251,251)" stroke="rgb(251,251,251)" stroke-width="0" opacity="1" d="M 331 135 L 336 138.5 L 342 150.5 L 343 163.5 L 342 166 Q 339.33 167.13 340 164.5 L 337 161.5 L 331 146.5 L 331 135 Z " /><path fill="rgb(251,251,251)" stroke="rgb(251,251,251)" stroke-width="0" opacity="1" d="M 227.5 136 Q 234.75 134.75 237 138.5 L 240 143.5 L 236.5 148 L 229.5 151 L 225 150 L 226 160.5 L 228.5 163 L 232 163 L 232 157.5 L 233.5 157 L 241.5 151 L 243.5 151 Q 247.88 154.12 246 163.5 L 237.5 171 L 235.5 171 L 232.5 169 Q 229.25 169.75 230 174.5 L 232 183 Q 235.83 183.75 237 180.5 L 239.5 175 L 249 170 Q 251.32 183.47 242.5 187 L 237.5 189 L 234.5 188 L 232 189 Q 230.75 197.27 233 201 Q 236.81 202 238 199.5 Q 236.5 195.13 239.5 196 L 247.5 190 L 250 190 L 250 194.5 L 246 201.5 L 235.5 213 L 216.5 225 L 204.5 228 L 192.5 229 L 178.5 234 L 172 226.5 L 171 223 L 166.5 222 L 165 225.5 L 171 233.5 L 172 239.5 L 166.5 245 L 164.5 245 L 158.5 237 Q 156.25 237.75 157 235.5 L 146.5 222 Q 144.25 222.75 145 220.5 L 136 208.5 Q 138.75 204.25 144.5 203 L 147.5 204 L 154.5 202 L 157 199.5 L 160 193 L 166 188.5 L 167 184 L 170.5 184 L 175 181 L 178 175.5 L 178 169 L 183 167 L 187.5 156 L 227.5 136 Z M 212 160 L 192 173 Q 191 176 194 177 L 200 175 L 214 166 Q 216 165 215 162 L 212 160 Z M 217 180 L 207 186 L 202 187 L 198 191 L 200 193 L 206 193 L 210 190 L 221 186 L 224 182 Q 223 179 217 180 Z M 219 199 L 216 201 L 208 202 L 201 206 L 202 209 L 205 210 Q 207 207 214 208 L 223 204 Q 225 197 219 199 Z " /><path fill="rgb(251,251,251)" stroke="rgb(251,251,251)" stroke-width="0" opacity="1" d="M 156.5 139 Q 163.5 137.5 165 141.5 Q 163.75 148.75 167.5 151 L 180 157 Q 181 160.81 178.5 162 L 174.5 164 L 164.5 159 L 161.5 159 L 151 151.5 L 151 145.5 L 156.5 139 Z " /><path fill="rgb(251,251,251)" stroke="rgb(251,251,251)" stroke-width="0" opacity="1" d="M 144.5 155 L 146.5 155 L 154.5 162 L 171 169 Q 172.75 175.14 169.5 177 L 160.5 177 L 156.5 174 L 153.5 174 L 147.5 171 L 142 166.5 L 141 161.5 L 142 157.5 L 144.5 155 Z " /><path fill="rgb(251,251,251)" stroke="rgb(251,251,251)" stroke-width="0" opacity="1" d="M 140.5 173 L 147.5 178 L 157.5 181 L 161 184.5 Q 160 189 153.5 188 Q 144.14 185.86 139 179.5 L 138 177.5 L 140.5 173 Z " /><path fill="rgb(251,251,251)" stroke="rgb(251,251,251)" stroke-width="0" opacity="1" d="M 136 186 L 148.5 193 L 153 193 L 150.5 197 L 145.5 198 L 136 191.5 L 136 186 Z " /><path fill="rgb(251,251,251)" stroke="rgb(251,251,251)" stroke-width="0" opacity="1" d="M 254.5 199 L 264 206 L 265 209.5 L 263 213 Q 260.33 211.87 261 214.5 L 258 219 L 255 220.5 L 240 240 L 237 241.5 L 235 244.5 L 232.5 246 L 220.5 237 L 213 234 Q 211.87 231.33 214.5 232 L 223.5 228 L 245 212.5 L 247 208 Q 249.67 209.13 249 206.5 L 254.5 199 Z " /><path fill="rgb(251,251,251)" stroke="rgb(251,251,251)" stroke-width="0" opacity="1" d="M 126.5 209 Q 129.83 207.88 129 210.5 L 148 235 Q 150.67 233.88 150 236.5 L 154 243 Q 156.67 241.88 156 244.5 L 162 251.5 L 162 255 L 159 256.5 Q 159.75 258.75 157.5 258 L 148.5 267 L 147.5 266 L 145 264.5 L 123 234 Q 120.33 235.12 121 232.5 L 112 221.5 L 112 218.5 L 126.5 209 Z " /><path fill="rgb(251,251,251)" stroke="rgb(251,251,251)" stroke-width="0" opacity="1" d="M 272.5 210 Q 284.28 210.72 289 218.5 L 283.5 226 L 280.5 226 L 272.5 221 L 270 222 Q 269 227.56 273.5 229 L 277 230.5 L 278 233.5 L 276 237 L 265.5 235 Q 262.75 236.25 265 237.5 L 266.5 241 L 269 242.5 L 264 252 L 261 253.5 L 251.5 266 Q 242.65 263.35 238 256.5 L 237 251.5 L 259 226.5 L 268 214 L 271 212.5 L 272.5 210 Z " /><path fill="rgb(251,251,251)" stroke="rgb(251,251,251)" stroke-width="0" opacity="1" d="M 98.5 215 L 103 218.5 L 105 221.5 L 147 275.5 L 148 279.5 L 130.5 300 Q 128.25 299.25 129 301.5 L 121.5 309 L 117.5 309 Q 116.25 305.25 112 306 L 110.5 303 L 97 292.5 Q 97.75 290.25 95.5 291 L 84 277.5 L 73 260.5 L 64 239.5 L 64 235.5 L 98.5 215 Z M 127 285 L 117 295 Q 114 302 121 300 L 124 295 L 127 294 Q 126 291 129 292 L 131 287 Q 130 284 127 285 Z " /><path fill="rgb(251,251,251)" stroke="rgb(251,251,251)" stroke-width="0" opacity="1" d="M 295 220 Q 309.86 221.35 318 230.5 L 316 232.5 L 315 240.5 L 312 244.5 L 312 247.5 L 303 266.5 L 283.5 291 Q 281.25 290.25 282 292.5 L 279 294 Q 280.13 296.67 277.5 296 L 275.5 296 L 271.5 294 L 259 281.5 L 255 275.5 L 255 271.5 L 259 265 L 262 263.5 L 295 220 Z " /><path fill="rgb(251,251,251)" stroke="rgb(251,251,251)" stroke-width="0" opacity="1" d="M 37 231 Q 39.67 229.88 39 232.5 L 42 235.5 L 48 250.5 L 48 260.5 L 46.5 262 L 43 258.5 L 37 246.5 L 36 233.5 L 37 231 Z " /><path fill="rgb(251,251,251)" stroke="rgb(251,251,251)" stroke-width="0" opacity="1" d="M 341.5 231 Q 343.94 233.06 343 238.5 L 342 239.5 L 342 247.5 L 336 258.5 L 332.5 262 L 331 261.5 L 331 250.5 L 337 235.5 L 341.5 231 Z " /><path fill="rgb(251,251,251)" stroke="rgb(251,251,251)" stroke-width="0" opacity="1" d="M 201.5 234 L 205.5 235 L 231 251.5 L 231 256.5 L 238.5 265 Q 240.75 264.25 240 266.5 L 248 272.5 L 250 279.5 L 261 292.5 L 261 294.5 L 249.5 303 L 237.5 309 L 234.5 309 L 230.5 312 L 226.5 312 L 220.5 315 L 214.5 315 L 205.5 318 L 195.5 318 L 194 319.5 Q 192.13 324.9 195.5 324 L 199.5 325 L 210.5 322 L 217.5 322 L 223.5 319 L 228.5 319 Q 230.44 315.44 236.5 316 L 240.5 313 L 243.5 313 L 249.5 310 L 267.5 298 Q 270.5 298.5 270 302.5 L 267 304 Q 268.25 307 264.5 306 L 257.5 312 L 245.5 318 L 242.5 318 L 238.5 321 L 235.5 321 L 230.5 324 Q 223.71 323.71 220.5 327 L 214.5 327 L 202.5 330 L 177.5 330 L 164.5 327 L 158.5 327 L 152.5 324 L 148.5 324 L 126 313.5 L 127 310 L 131.5 310 L 135.5 313 L 152.5 319 L 155 318 Q 156 313.31 152.5 312 L 148.5 312 L 134 304.5 L 142 294 L 144 294 Q 142.88 291.33 145.5 292 L 148.5 288 Q 150.75 288.75 150 286.5 Q 155.33 284.33 154 275.5 L 152 271.5 L 157 268 L 158.5 265 L 168 256.5 L 169 250 L 172 248.5 Q 171.25 246.25 173.5 247 L 175 244 L 178 242.5 Q 177.17 239.87 180.5 241 L 184.5 238 L 193.5 235 Q 199.75 236.75 201.5 234 Z M 188 252 L 186 254 L 186 273 L 187 275 L 191 276 L 193 273 L 193 254 Q 192 251 188 252 Z M 213 257 L 213 265 L 216 269 L 216 272 L 220 281 L 223 283 L 226 282 L 226 278 L 220 266 L 219 261 Q 218 256 213 257 Z M 171 268 L 168 271 L 168 274 L 165 280 L 165 286 Q 162 287 163 293 Q 164 295 168 294 L 172 283 L 172 277 Q 175 275 174 271 L 171 268 Z M 204 283 L 201 287 L 204 297 L 207 298 L 208 297 L 208 286 Q 208 283 204 283 Z M 167 316 L 164 321 L 166 322 L 170 322 L 179 325 L 185 324 Q 187 323 186 319 Q 182 317 173 318 L 167 316 Z " /><path fill="rgb(251,251,251)" stroke="rgb(251,251,251)" stroke-width="0" opacity="1" d="M 86.5 313 L 88.5 315 L 99.5 319 L 108 326.5 L 109 330 Q 112 328.75 111 332.5 Q 109.75 335.25 108.5 333 L 105.5 333 L 96.5 327 L 94 327 L 92.5 324 Q 90.25 324.75 91 322.5 Q 86.25 320.25 85 314.5 L 86.5 313 Z " /><path fill="rgb(251,251,251)" stroke="rgb(251,251,251)" stroke-width="0" opacity="1" d="M 291.5 314 Q 295.25 312.75 294 316.5 L 284.5 327 L 280.5 330 L 268 334 L 268 330.5 L 275.5 322 L 284.5 316 L 291.5 314 Z " /><path fill="rgb(251,251,251)" stroke="rgb(251,251,251)" stroke-width="0" opacity="1" d="M 184.5 349 L 195.5 349 L 198.5 351 L 206 352 L 204.5 355 L 200.5 357 L 189.5 358 L 188.5 357 L 178.5 357 L 173 354 Q 171.65 350.33 177.5 352 L 184.5 349 Z " /><path fill="rgb(88,88,88)" stroke="rgb(88,88,88)" stroke-width="0" opacity="1" d="M 183.5 33 L 200.5 34 L 213.5 40 L 216.5 40 L 217.5 39 L 235.5 39 L 241.5 42 L 244.5 42 L 256 49.5 Q 255.25 51.75 257.5 51 L 259 54 L 263.5 57 L 271.5 57 Q 273.44 60.56 279.5 60 L 295 72.5 L 303.5 86 L 307.5 87 L 322 99.5 L 331 115.5 L 331 124.5 L 334 129 L 337 130.5 Q 336.25 132.75 338.5 132 L 346 143.5 L 346 147.5 L 349 153.5 L 349 168.5 Q 346.75 169.75 348 174.5 L 354 187.5 L 355 204.5 L 352 215.5 L 348 222.5 L 348 227.5 L 349 228.5 L 349 244.5 L 346 250.5 L 346 253.5 L 339 265 Q 336.33 263.88 337 266.5 L 334 268 L 331 272.5 L 331 281.5 Q 327.3 284.3 327 290.5 L 315.5 304 L 308.5 309 L 304.5 310 L 301 313.5 L 301 316.5 L 297 322.5 L 287.5 332 L 272.5 340 L 262.5 341 L 259 343 L 257.5 346 L 254.5 348 L 251.5 351 L 235.5 358 L 218.5 358 L 213.5 357 L 200.5 363 L 183.5 364 L 172.5 361 L 165.5 357 L 161.5 357 L 160.5 358 L 144.5 358 L 134.5 355 L 131.5 352 L 123 348 Q 124.13 345.33 121.5 346 L 120 343 L 114.5 340 L 112.5 340 L 106.5 340 Q 105.14 336.36 99.5 337 L 84 324.5 L 79 317.5 L 78 313.5 L 74.5 310 Q 63.12 306.37 57 297.5 L 51 288.5 L 51 285.5 L 48 280.5 L 48 272.5 L 45 268 L 42 266.5 L 33 253.5 L 33 249.5 L 30 242.5 L 30 228.5 Q 32.25 227.25 31 222.5 L 25 209.5 L 24 192.5 L 27 181.5 L 31 174.5 L 31 169.5 L 30 168.5 L 30 152.5 Q 33.75 150.25 33 143.5 L 40 132 Q 42.67 133.13 42 130.5 L 48 124.5 L 48 115.5 Q 51.7 112.7 52 106.5 L 63.5 93 L 71.5 87 L 74.5 87 L 78 83.5 Q 81.91 71.41 91.5 65 L 104.5 58 L 116.5 56 L 123 51 L 124.5 48 L 143.5 39 L 160.5 39 L 165.5 40 L 172.5 36 L 183.5 33 Z M 190 39 L 189 40 L 179 40 L 175 43 Q 172 42 173 45 L 185 48 Q 196 50 202 45 Q 207 47 206 44 L 201 40 L 191 40 L 190 39 Z M 150 45 L 149 46 L 141 46 L 130 52 L 121 61 L 114 72 L 112 75 L 101 84 L 93 88 L 78 91 L 67 97 L 66 100 Q 63 99 64 102 L 61 103 L 55 115 L 53 126 Q 52 130 54 132 L 54 148 L 49 162 L 45 167 Q 46 169 43 168 L 37 176 L 31 188 L 31 209 L 34 217 L 37 220 Q 36 223 39 222 L 49 236 L 54 250 L 54 265 L 53 266 L 53 273 L 55 283 L 61 292 L 61 294 L 64 296 Q 63 298 66 297 L 67 300 L 78 306 L 83 306 L 89 309 L 94 309 L 100 312 L 112 323 Q 111 325 114 324 L 121 337 Q 130 350 152 352 L 154 352 Q 157 350 164 351 L 176 345 Q 182 346 186 343 L 195 343 Q 197 346 204 345 L 217 351 L 238 351 L 254 342 L 261 333 L 263 328 L 272 318 Q 274 319 273 317 L 287 309 L 298 307 L 308 303 L 313 299 Q 312 296 315 297 L 315 295 L 317 295 L 324 283 L 326 272 Q 328 266 325 265 L 325 250 Q 328 248 327 243 Q 331 231 340 224 Q 339 221 342 222 L 342 220 L 345 217 L 348 209 L 348 188 L 342 176 L 330 162 L 325 147 L 325 132 L 326 131 L 324 115 L 318 104 L 308 94 L 302 91 L 284 87 Q 273 83 267 75 Q 268 72 265 73 L 255 57 L 245 49 L 238 46 L 230 46 L 229 45 L 216 46 L 204 52 Q 197 51 195 54 L 185 54 L 181 52 L 173 51 L 164 46 L 152 46 L 150 45 Z M 110 63 Q 97 66 90 75 Q 91 77 88 76 L 86 82 L 86 83 L 94 81 L 105 74 Q 104 71 107 72 L 111 67 Q 112 62 110 63 Z M 270 63 L 268 65 L 271 71 L 282 79 L 294 83 Q 293 77 288 75 Q 289 72 287 73 L 285 70 L 270 63 Z M 47 135 L 43 139 L 37 151 L 36 164 L 39 165 L 42 162 L 48 148 L 48 136 L 47 135 Z M 331 135 L 331 147 L 337 162 L 340 165 Q 339 167 342 166 L 343 164 L 342 151 L 336 139 L 331 135 Z M 37 231 L 36 234 L 37 247 L 43 259 L 47 262 L 48 261 L 48 251 L 42 236 L 39 233 Q 40 230 37 231 Z M 342 231 L 337 236 L 331 251 L 331 262 L 333 262 L 336 259 L 342 248 L 342 240 L 343 239 Q 344 233 342 231 Z M 87 313 L 85 315 Q 86 320 91 323 Q 90 325 93 324 L 94 327 L 97 327 L 106 333 L 109 333 Q 110 335 111 333 Q 112 329 109 330 L 108 327 L 100 319 L 89 315 L 87 313 Z M 292 314 L 285 316 L 276 322 L 268 331 L 268 334 L 281 330 L 285 327 L 294 317 Q 295 313 292 314 Z M 185 349 L 178 352 Q 172 350 173 354 L 179 357 L 189 357 L 190 358 L 201 357 L 205 355 L 206 352 L 199 351 L 196 349 L 185 349 Z " /><path fill="rgb(88,88,88)" stroke="rgb(88,88,88)" stroke-width="0" opacity="1" d="M 220.5 50 Q 224.5 49.5 225 52.5 L 223 57.5 L 223 64.5 L 224.5 66 L 232.5 67 L 234.5 69 L 240 69 L 240 64.5 L 245.5 57 L 248 58 L 247 67.5 L 244 72 L 251.5 75 L 254.5 78 L 257.5 78 L 280 94.5 Q 279.25 96.75 281.5 96 L 292 106.5 L 292 108 Q 294.67 106.88 294 109.5 L 299.5 113 L 308.5 105 L 312.5 105 L 314 107.5 L 308.5 114 L 302 118.5 L 307 125.5 L 318 147.5 L 325 170.5 L 325 178.5 L 326.5 180 L 336.5 180 L 337 183.5 L 334.5 186 L 327 187 L 327 196.5 L 329.5 199 Q 333.25 198.25 334 200.5 Q 334.75 204.25 332.5 205 Q 328 204 327 206.5 L 325 225.5 L 322 233.5 L 322 237.5 L 319 243.5 L 319 247.5 L 309 267.5 L 304 273.5 L 304 277.5 L 313 283 Q 312 286 315 285 L 315 289 L 311.5 290 L 303 285 Q 304.25 282 300.5 283 L 299.5 282 L 295 286.5 L 293.5 289 Q 291.25 288.25 292 290.5 L 283 298 L 278.5 304 Q 264.87 316.13 247 323 L 247 328.5 Q 250.75 330.75 250 337.5 L 246.5 339 L 244 336.5 L 240 327 L 225 332.5 L 226 343 Q 221.4 344.25 220 341.5 L 219 334 L 209.5 334 L 201.5 336 L 177.5 336 L 169.5 334 L 162.5 334 L 151.5 331 L 148 336.5 L 148 341.5 L 144.5 346 L 141 344.5 L 141 338.5 Q 145.5 335.75 144 328 L 127.5 322 L 124.5 319 L 112.5 313 L 99 302.5 Q 99.75 300.25 97.5 301 L 96 298 L 90 293.5 Q 90.75 291.25 88.5 292 L 87 289 Q 84.33 290.13 85 287.5 Q 83.25 283.25 81.5 286 L 79.5 286 L 72.5 292 L 67 292 Q 66 286.44 70.5 285 L 78 279.5 L 70.5 270 L 64.5 273 Q 61.5 272.5 62 268.5 L 68 263.5 L 57 237.5 L 57 233.5 L 54 226.5 L 54 218.5 L 52 209 L 39.5 209 L 37 208 Q 34.92 202.8 39.5 204 L 40.5 203 L 49.5 203 L 52 200.5 L 52 187.5 L 50.5 187 L 45 183.5 L 46.5 180 Q 52.5 181.5 54 178.5 L 54 171.5 L 57 163.5 L 57 159.5 L 70 129 Q 73 130.25 72 126.5 L 73 124 L 75 124 L 75 118 L 72.5 118 L 64 112 Q 63 108.19 65.5 107 L 68.5 107 L 77.5 114 L 80.5 114 L 85.5 108 Q 87.75 108.75 87 106.5 L 97.5 96 L 99 96 L 100.5 93 L 126 75.5 L 126 72.5 L 123 66.5 L 124 64 L 130 67.5 Q 129.5 71.5 132.5 72 L 136.5 72 L 142 69 L 141 61.5 Q 137.36 60.14 138 54.5 L 139 52 Q 143.69 51 145 54.5 L 145 58.5 L 149.5 67 L 162.5 63 L 191.5 60 L 192.5 61 L 202.5 61 L 203.5 62 L 215.5 63 Q 218.25 61.75 217 56.5 L 220.5 50 Z M 176 67 L 170 69 L 159 70 L 153 73 L 148 73 L 144 76 L 134 79 Q 114 89 99 103 Q 81 120 70 143 L 62 165 L 60 180 L 58 185 L 58 213 L 60 217 L 61 228 L 63 229 L 66 228 L 66 222 L 64 218 Q 66 212 63 211 L 63 197 Q 64 194 68 195 Q 72 204 70 219 L 74 223 L 95 210 Q 105 208 108 214 L 128 202 L 130 203 L 135 202 L 136 200 L 134 198 L 129 191 L 129 186 L 132 182 L 132 174 L 135 171 L 135 159 L 138 153 Q 139 149 143 150 L 145 148 L 148 139 L 152 135 L 157 133 Q 163 132 166 135 L 172 135 L 186 124 L 192 122 L 204 123 L 218 129 L 235 130 L 239 132 L 244 138 L 247 146 Q 246 148 249 147 L 252 154 L 253 167 L 256 174 L 255 179 L 256 191 L 258 195 L 270 204 L 275 203 L 282 205 L 293 213 L 300 213 Q 302 217 309 216 L 309 181 Q 306 178 307 173 Q 308 170 312 171 L 313 173 L 316 188 L 316 210 L 314 217 L 315 221 L 318 222 L 319 221 L 321 212 L 321 185 L 319 180 L 317 165 L 315 162 L 315 158 L 312 153 L 309 143 L 300 127 L 285 108 L 258 85 L 232 73 L 204 67 L 176 67 Z M 194 128 L 188 130 L 176 139 L 171 144 L 171 146 L 177 150 L 187 150 L 192 145 L 192 143 Q 193 139 198 140 L 200 143 L 212 138 L 216 135 L 206 130 L 194 128 Z M 228 136 L 188 156 L 183 167 L 178 169 L 178 176 L 175 181 L 171 184 L 167 184 L 166 189 L 160 193 L 157 200 L 155 202 L 148 204 L 145 203 Q 139 204 136 209 L 145 221 Q 144 223 147 222 L 157 236 Q 156 238 159 237 L 165 245 L 167 245 L 172 240 L 171 234 L 165 226 L 167 222 L 171 223 L 172 227 L 179 234 L 193 229 L 205 228 L 217 225 L 236 213 L 246 202 L 250 195 L 250 190 L 248 190 L 240 196 Q 237 195 238 200 Q 237 202 233 201 Q 231 197 232 189 L 235 188 L 238 189 L 243 187 Q 251 183 249 170 L 240 175 L 237 181 Q 236 184 232 183 L 230 175 Q 229 170 233 169 L 236 171 L 238 171 L 246 164 Q 248 154 244 151 L 242 151 L 234 157 L 232 158 L 232 163 L 229 163 L 226 161 L 225 150 L 230 151 L 237 148 L 240 144 L 237 139 Q 235 135 228 136 Z M 157 139 L 151 146 L 151 152 L 162 159 L 165 159 L 175 164 L 179 162 Q 181 161 180 157 L 168 151 Q 164 149 165 142 Q 164 138 157 139 Z M 145 155 L 142 158 L 141 162 L 142 167 L 148 171 L 154 174 L 157 174 L 161 177 L 170 177 Q 173 175 171 169 L 155 162 L 147 155 L 145 155 Z M 141 173 L 138 178 L 139 180 Q 144 186 154 188 Q 160 189 161 185 L 158 181 L 148 178 L 141 173 Z M 136 186 L 136 192 L 146 198 L 151 197 L 153 193 L 149 193 L 136 186 Z M 255 199 L 249 207 Q 250 209 247 208 L 245 213 L 224 228 L 215 232 Q 212 231 213 234 L 221 237 L 233 246 L 235 245 L 237 242 L 240 240 L 255 221 L 258 219 L 261 215 Q 260 212 263 213 L 265 210 L 264 206 L 255 199 Z M 127 209 L 112 219 L 112 222 L 121 233 Q 120 235 123 234 L 145 265 L 148 266 L 149 267 L 158 258 Q 160 259 159 257 L 162 255 L 162 252 L 156 245 Q 157 242 154 243 L 150 237 Q 151 234 148 235 L 129 211 Q 130 208 127 209 Z M 273 210 L 271 213 L 268 214 L 259 227 L 237 252 L 238 257 Q 243 263 252 266 L 261 254 L 264 252 L 269 243 L 267 241 L 265 238 Q 263 236 266 235 L 276 237 L 278 234 L 277 231 L 274 229 Q 269 228 270 222 L 273 221 L 281 226 L 284 226 L 289 219 Q 284 211 273 210 Z M 99 215 L 64 236 L 64 240 L 73 261 L 84 278 L 96 291 Q 98 290 97 293 L 111 303 L 112 306 Q 116 305 118 309 L 122 309 L 129 302 Q 128 299 131 300 L 148 280 L 147 276 L 105 222 L 103 219 L 99 215 Z M 295 220 L 262 264 L 259 265 L 255 272 L 255 276 L 259 282 L 272 294 L 276 296 L 278 296 Q 280 297 279 294 L 282 293 Q 281 290 284 291 L 303 267 L 312 248 L 312 245 L 315 241 L 316 233 L 318 231 Q 310 221 295 220 Z M 202 234 Q 200 237 194 235 L 185 238 L 181 241 Q 177 240 178 243 L 175 244 L 174 247 Q 171 246 172 249 L 169 250 L 168 257 L 159 265 L 157 268 L 152 272 L 154 276 Q 155 284 150 287 Q 151 289 149 288 L 146 292 Q 143 291 144 294 L 142 294 L 134 305 L 149 312 L 153 312 Q 156 313 155 318 L 153 319 L 136 313 L 132 310 L 127 310 L 126 314 L 149 324 L 153 324 L 159 327 L 165 327 L 178 330 L 203 330 L 215 327 L 221 327 Q 224 324 231 324 L 236 321 L 239 321 L 243 318 L 246 318 L 258 312 L 265 306 Q 268 307 267 304 L 270 303 Q 271 298 268 298 L 250 310 L 244 313 L 241 313 L 237 316 Q 230 315 229 319 L 224 319 L 218 322 L 211 322 L 200 325 L 196 324 Q 192 325 194 320 L 196 318 L 206 318 L 215 315 L 221 315 L 227 312 L 231 312 L 235 309 L 238 309 L 250 303 L 261 295 L 261 293 L 250 280 L 248 273 L 240 267 Q 241 264 239 265 L 231 257 L 231 252 L 206 235 L 202 234 Z " /><path fill="rgb(88,88,88)" stroke="rgb(88,88,88)" stroke-width="0" opacity="1" d="M 174.5 72 L 202.5 72 L 206 74.5 Q 206.5 78.5 203.5 79 L 184.5 78 L 183.5 79 L 168.5 79 L 160.5 82 L 155.5 82 L 133.5 91 Q 131.25 90.25 132 86.5 L 134.5 84 L 140.5 81 L 143.5 81 L 145.5 79 L 174.5 72 Z " /><path fill="rgb(88,88,88)" stroke="rgb(88,88,88)" stroke-width="0" opacity="1" d="M 217.5 75 Q 242.96 81.35 261 94 Q 262 97.81 259.5 99 L 256.5 99 L 245.5 92 L 230.5 85 L 227.5 85 L 223.5 82 L 218.5 82 L 216 79.5 Q 215.25 75.75 217.5 75 Z " /><path fill="rgb(88,88,88)" stroke="rgb(88,88,88)" stroke-width="0" opacity="1" d="M 187 89 L 192 89 L 192 90.5 L 193 91.5 L 193 109.5 Q 192.5 112.5 188.5 112 L 186 109.5 L 186 91.5 L 187 89 Z " /><path fill="rgb(88,88,88)" stroke="rgb(88,88,88)" stroke-width="0" opacity="1" d="M 118.5 93 Q 123 92 124 94.5 Q 124.5 99.5 120.5 100 L 112.5 104 L 110 103 L 110 100.5 L 114.5 96 L 118.5 93 Z " /><path fill="rgb(88,88,88)" stroke="rgb(88,88,88)" stroke-width="0" opacity="1" d="M 151.5 107 Q 155.5 106.5 156 109.5 L 160 117.5 L 160 122.5 L 157.5 124 L 154 121.5 Q 153.7 115.3 150 112.5 L 150 108.5 L 151.5 107 Z " /><path fill="rgb(88,88,88)" stroke="rgb(88,88,88)" stroke-width="0" opacity="1" d="M 225.5 107 L 229 108.5 L 229 112.5 L 224.5 120 L 221 118.5 L 220 116.5 L 225.5 107 Z " /><path fill="rgb(88,88,88)" stroke="rgb(88,88,88)" stroke-width="0" opacity="1" d="M 101.5 108 L 104 109 L 103 114.5 L 91 127.5 L 79 148.5 L 79 151.5 L 73 165.5 L 73 171.5 Q 69.83 175.83 70 183.5 L 68.5 185 Q 64.5 185.5 64 182.5 L 66 175.5 L 66 168.5 L 69 162.5 L 69 157.5 L 75 145.5 L 75 142.5 L 88 121.5 L 99.5 109 L 101.5 108 Z " /><path fill="rgb(88,88,88)" stroke="rgb(88,88,88)" stroke-width="0" opacity="1" d="M 277.5 111 L 280.5 111 L 286 116.5 L 301 138.5 L 301 143.5 L 297 145 L 291 133.5 L 277 116.5 L 276 112.5 L 277.5 111 Z " /><path fill="rgb(88,88,88)" stroke="rgb(88,88,88)" stroke-width="0" opacity="1" d="M 112.5 120 L 115.5 120 L 123 127.5 Q 122.25 129.75 124.5 129 L 133 137.5 L 134 140.5 L 130.5 143 L 111 124.5 Q 110.25 120.75 112.5 120 Z " /><path fill="rgb(88,88,88)" stroke="rgb(88,88,88)" stroke-width="0" opacity="1" d="M 263.5 120 Q 267.25 119.25 268 121.5 L 268 124.5 L 257.5 135 L 253.5 136 L 252 132.5 L 263.5 120 Z " /><path fill="rgb(88,88,88)" stroke="rgb(88,88,88)" stroke-width="0" opacity="1" d="M 302.5 150 Q 306.25 149.25 307 151.5 Q 306.25 155.75 309 156.5 L 309 160.5 Q 308.25 162.75 304.5 162 L 303 160.5 L 301 151.5 L 302.5 150 Z " /><path fill="rgb(88,88,88)" stroke="rgb(88,88,88)" stroke-width="0" opacity="1" d="M 99.5 159 L 103.5 159 L 107.5 162 L 118.5 165 L 122 168.5 L 120.5 172 L 116.5 172 Q 112.96 168.54 106.5 168 L 98 162.5 L 99.5 159 Z " /><path fill="rgb(88,88,88)" stroke="rgb(88,88,88)" stroke-width="0" opacity="1" d="M 275.5 159 Q 280 158 281 160.5 Q 281.5 165.5 277.5 166 Q 271.44 165.44 269.5 169 L 264 169 Q 263 164.31 266.5 163 Q 272.7 162.7 275.5 159 Z " /><path fill="rgb(88,88,88)" stroke="rgb(88,88,88)" stroke-width="0" opacity="1" d="M 211.5 160 L 215 161.5 Q 215.75 165.25 213.5 166 L 199.5 175 L 193.5 177 Q 191.25 176.25 192 172.5 L 211.5 160 Z " /><path fill="rgb(88,88,88)" stroke="rgb(88,88,88)" stroke-width="0" opacity="1" d="M 216.5 180 Q 222.5 178.5 224 181.5 L 220.5 186 L 209.5 190 L 205.5 193 L 199.5 193 L 198 190.5 L 201.5 187 L 206.5 186 L 216.5 180 Z " /><path fill="rgb(88,88,88)" stroke="rgb(88,88,88)" stroke-width="0" opacity="1" d="M 218.5 199 Q 225.25 196.75 223 203.5 L 213.5 208 Q 207.17 207.17 204.5 210 L 202 209 L 201 205.5 L 207.5 202 L 215.5 201 L 218.5 199 Z " /><path fill="rgb(88,88,88)" stroke="rgb(88,88,88)" stroke-width="0" opacity="1" d="M 187.5 252 Q 192 251 193 253.5 L 193 272.5 L 190.5 276 L 187 274.5 L 186 272.5 L 186 253.5 L 187.5 252 Z " /><path fill="rgb(88,88,88)" stroke="rgb(88,88,88)" stroke-width="0" opacity="1" d="M 213 257 Q 217.67 256.25 219 260.5 L 220 265.5 L 226 277.5 L 226 281.5 L 222.5 283 L 220 280.5 L 216 271.5 L 216 268.5 L 213 264.5 L 213 257 Z " /><path fill="rgb(88,88,88)" stroke="rgb(88,88,88)" stroke-width="0" opacity="1" d="M 170.5 268 L 174 270.5 Q 174.6 275.1 172 276.5 L 172 282.5 L 167.5 294 Q 163.75 294.75 163 292.5 Q 162.2 287.2 165 285.5 L 165 279.5 L 168 273.5 L 168 270.5 L 170.5 268 Z " /><path fill="rgb(88,88,88)" stroke="rgb(88,88,88)" stroke-width="0" opacity="1" d="M 203.5 283 Q 207.5 282.5 208 285.5 L 208 296.5 L 206.5 298 L 204 296.5 L 201 286.5 L 203.5 283 Z " /><path fill="rgb(88,88,88)" stroke="rgb(88,88,88)" stroke-width="0" opacity="1" d="M 126.5 285 Q 130.25 284.25 131 286.5 L 128.5 292 Q 126.25 291.25 127 293.5 L 124 295 L 120.5 300 Q 114.38 301.83 117 294.5 L 126.5 285 Z " /><path fill="rgb(88,88,88)" stroke="rgb(88,88,88)" stroke-width="0" opacity="1" d="M 166.5 316 L 172.5 318 Q 182.06 316.63 186 319 Q 187 322.81 184.5 324 L 178.5 325 L 169.5 322 L 165.5 322 L 164 320.5 L 166.5 316 Z " /></svg>