<svg viewBox="0 0 528 508" version="1.1" xmlns="http://www.w3.org/2000/svg" desc="Created with imagetracer.js version 1.2.6" ><path fill="rgb(59,59,59)" stroke="rgb(59,59,59)" stroke-width="0" opacity="1" d="M 246.5 44 L 265.5 45 Q 269.75 48.75 277.5 49 L 286.5 54 Q 296 50 311.5 52 L 328 57 Q 326.88 59.67 329.5 59 Q 342.71 64.79 350.5 76 L 360.5 76 L 368.5 80 L 371.5 80 L 384.5 88 L 393 96.5 L 404.5 115 L 415.5 120 L 429 132.5 L 440 152.5 L 442 167.5 L 453 178.5 L 461 192.5 L 461 196.5 L 464 201.5 Q 462.5 207 465 208.5 L 465 222.5 L 463 230.5 L 469 242.5 L 469 246.5 L 472 252.5 L 473 270.5 Q 470.75 271.75 472 276.5 L 469 282.5 L 469 286.5 L 464 295.5 L 464 305.5 L 465 306.5 L 465 321.5 L 461 336.5 L 457 344.5 L 441 363.5 L 441 373.5 L 436 385.5 Q 430.19 397.19 420.5 405 L 410.5 412 L 404 414 L 404 416 Q 401.33 414.88 402 417.5 L 397 427.5 L 384.5 441 L 374.5 448 Q 368.3 448.3 365.5 452 L 349.5 454 L 341 461 L 338.5 465 L 324.5 473 Q 317.75 472.25 315.5 476 L 310.5 477 L 293.5 477 L 286.5 475 L 277.5 480 L 270.5 481 L 265.5 484 L 247.5 485 Q 245.75 482.25 239.5 484 L 217.5 475 L 211.5 477 L 194.5 477 L 177 472 Q 178.13 469.33 175.5 470 L 164 462.5 Q 164.75 460.25 162.5 461 Q 159.75 454.75 152.5 453 L 150.5 454 Q 149 451.5 143.5 453 L 136.5 449 L 131.5 448 L 120.5 441 L 112 432.5 L 100.5 414 Q 85.19 408.31 76 396.5 L 65 376.5 Q 62.62 371.37 64 362.5 Q 51.13 352.38 44 336.5 L 44 332.5 L 41 326.5 Q 42.25 321.75 40 320.5 L 40 306.5 L 42 298.5 L 33 276.5 L 32 258.5 L 36 242.5 Q 40.69 237.69 42 229.5 Q 38.33 221.17 40 207.5 L 44 192.5 L 48 184.5 L 64 166.5 L 64 155.5 L 70 141.5 Q 75.65 131.15 84.5 124 L 94.5 117 L 101 115 L 101 113 Q 103.67 114.13 103 111.5 L 108 101.5 L 120.5 88 L 140.5 77 L 156 75 Q 154.88 72.33 157.5 73 L 170.5 61 L 180.5 56 L 184.5 56 L 189.5 53 L 194.5 52 L 211.5 52 L 218.5 54 L 230.5 48 L 234.5 48 L 239.5 45 Q 245 46.5 246.5 44 Z M 247 52 L 236 54 L 230 59 L 232 60 Q 240 60 246 64 L 260 64 Q 265 60 274 60 L 275 57 L 267 53 L 247 52 Z M 197 60 L 196 61 L 188 61 L 182 65 L 179 65 L 168 74 Q 165 73 166 76 L 162 78 L 153 93 L 153 95 L 143 105 Q 140 104 141 107 L 126 116 L 104 121 L 92 128 L 77 144 L 72 156 L 71 168 L 70 169 Q 69 175 72 179 L 72 190 L 69 205 L 60 222 Q 61 224 59 223 L 46 239 L 41 251 Q 43 257 40 259 L 41 279 L 45 286 L 45 289 L 52 299 L 56 301 L 65 315 L 72 337 Q 74 348 70 355 L 70 363 L 72 368 L 73 377 L 85 396 L 96 404 L 104 408 Q 113 408 118 412 L 127 413 L 148 428 L 164 452 Q 166 451 165 454 L 179 464 L 182 464 L 189 468 Q 195 466 197 469 L 219 468 L 232 461 L 241 460 L 246 458 L 260 458 Q 263 461 271 460 L 286 467 L 296 469 L 317 468 L 328 463 L 338 456 L 344 450 L 353 434 L 356 432 L 357 428 L 363 424 Q 365 425 364 423 L 382 412 L 387 412 Q 392 408 402 408 L 416 400 L 428 386 L 433 374 L 434 362 L 435 361 Q 436 354 433 351 L 433 340 Q 436 338 434 333 L 436 329 L 436 324 L 445 307 L 460 289 L 461 284 L 464 279 L 464 271 L 465 270 L 464 251 L 456 234 L 453 232 L 440 215 L 436 205 L 433 191 L 433 181 L 435 173 L 435 168 L 431 150 L 421 135 L 419 133 L 416 129 L 402 121 L 380 116 L 366 108 L 353 96 L 343 79 L 327 65 L 322 64 L 317 61 Q 310 63 309 60 L 288 61 L 274 68 L 265 69 L 260 71 L 246 71 Q 242 68 235 69 L 218 61 L 197 60 Z M 145 84 L 131 90 L 123 96 L 114 107 L 113 111 Q 119 112 122 108 L 126 108 L 138 100 L 148 89 Q 150 82 145 84 Z M 357 84 L 357 89 L 361 94 L 365 96 L 366 99 L 381 108 L 392 111 L 391 107 L 384 97 L 375 90 L 365 85 L 357 84 Z M 63 179 L 53 191 L 53 194 L 49 200 L 49 209 L 48 210 L 48 220 L 50 221 L 53 219 Q 52 216 55 217 L 60 208 L 60 205 L 64 197 L 64 181 L 63 179 Z M 443 179 L 441 181 L 441 196 L 445 205 L 445 208 L 453 221 L 457 220 L 456 201 Q 453 197 452 191 L 443 179 Z M 50 308 L 48 310 L 49 329 L 57 345 L 62 349 L 64 349 L 64 334 L 60 325 L 60 322 L 56 316 Q 57 312 55 313 L 52 310 Q 53 307 50 308 Z M 453 308 L 452 312 L 449 313 L 441 334 L 441 349 L 443 350 L 448 345 L 456 330 L 457 310 L 453 308 Z M 115 417 L 113 419 L 113 422 L 117 427 Q 127 441 148 445 L 149 443 L 144 436 L 133 425 L 115 417 Z M 389 418 L 383 421 L 380 421 L 368 429 L 357 441 L 357 445 L 365 444 L 375 439 Q 377 440 376 437 L 380 436 L 381 433 L 385 431 Q 384 428 387 429 L 389 424 L 392 423 Q 394 416 389 418 Z M 246 465 Q 240 469 232 469 L 230 472 L 239 476 Q 245 474 247 477 L 267 476 L 274 472 Q 276 473 275 471 L 261 465 L 246 465 Z " /><path fill="rgb(59,59,59)" stroke="rgb(59,59,59)" stroke-width="0" opacity="1" d="M 293.5 67 L 299 69.5 L 297 76.5 L 297 87 Q 299.06 88.63 304.5 88 L 312.5 92 L 318.5 92 L 325 77 Q 328.81 76 330 78.5 L 331 82.5 L 325 94.5 L 330.5 99 Q 336.75 99.75 339.5 104 L 342.5 104 L 346.5 108 L 357 113 Q 355.88 115.67 358.5 115 L 380 132 L 382.5 136 L 385 137.5 L 386.5 140 Q 388.75 139.25 388 141.5 L 394.5 149 L 398.5 151 L 410.5 141 L 416.5 140 L 418 143.5 L 416 148 L 402 157 L 402 159.5 L 408 166.5 L 409 170.5 L 416 180.5 L 424 198.5 L 432 223.5 L 433 238.5 L 434.5 240 L 447.5 240 L 449 241.5 Q 449.75 246.25 446.5 247 Q 438.46 246.46 435 250.5 L 436 262.5 L 438.5 265 Q 444.58 263.75 444 266.5 L 445 270.5 L 442.5 273 Q 437.25 271.75 436 274.5 L 432 304.5 L 430 307.5 L 429 315.5 L 425 324.5 L 424 331.5 L 421 334.5 L 421 337.5 L 412 355.5 L 405 364.5 L 405 369.5 L 420 381.5 L 418.5 385 L 415.5 386 L 402.5 377 L 398.5 376 L 384 391.5 L 384 393 L 381 394.5 Q 381.75 396.75 379.5 396 L 376 401 L 357 414.5 Q 357.75 416.75 355.5 416 L 329 431.5 L 328 435.5 L 333 444.5 L 333 449.5 L 332 452 L 329.5 452 L 325 447.5 Q 324.31 439.69 319.5 436 Q 306.77 437.27 299 443.5 L 301 450.5 L 301 455.5 Q 300 458 295.5 457 L 293 454.5 L 291 444 L 278.5 446 L 270.5 446 L 263.5 448 L 242.5 448 L 234.5 446 L 212.5 444 Q 209.02 440.48 201.5 441 L 197 448.5 L 197 453.5 L 194 460 L 190.5 461 L 188 460 L 188 452.5 L 192 445.5 L 193 438.5 L 179.5 433 L 173.5 429 L 168.5 428 L 165.5 425 L 161.5 424 L 153.5 418 L 148 416 L 146.5 413 L 132 402.5 Q 132.75 400.25 130.5 401 L 121 393 L 110.5 380 Q 105.37 379.37 104 382.5 Q 104.75 384.75 102.5 384 L 96.5 389 L 90.5 389 L 89 385.5 L 103 374.5 L 104 370.5 L 95.5 360 Q 89.3 360.3 86.5 364 L 83 358.5 L 91 351.5 L 85 339.5 L 84 334.5 L 81 330.5 Q 80.58 320.92 76 315.5 Q 76.52 307.98 73 304.5 L 72 290.5 L 69 278 L 52.5 278 L 49 275.5 L 50.5 272 Q 56 269.5 65.5 271 L 68 270 L 69 267.5 Q 67.7 257.2 70 250.5 L 60 244.5 Q 59.25 240.75 61.5 240 L 70.5 240 L 72 238.5 L 73 224.5 L 76 218.5 L 77 210.5 L 80 205.5 L 80 201.5 L 88 185.5 L 89 180.5 L 100 164.5 L 101 160.5 L 98.5 157 L 85 147.5 Q 84.25 143.75 86.5 143 L 91.5 143 Q 95.01 148.04 101 149 L 102.5 152 L 106.5 153 L 134.5 124 L 148.5 113 L 168 101.5 L 168 96.5 L 165 92.5 L 165 87.5 L 168.5 86 L 173 89.5 L 174 95 L 178.5 97 L 182.5 96 L 190 90.5 Q 187.43 87.57 188 81.5 L 184 73.5 L 186.5 69 L 192 71 Q 193.63 73.06 193 78.5 L 198.5 89 L 209.5 87 L 217.5 84 L 224.5 84 L 231.5 82 L 264.5 81 L 271.5 83 L 287.5 84 L 289 82.5 L 289 77.5 L 293.5 67 Z M 235 89 L 217 93 L 211 93 L 202 97 L 197 97 L 190 101 L 187 101 L 181 105 L 178 105 L 151 121 L 136 134 Q 133 133 134 136 L 129 138 L 126 144 L 124 145 L 109 163 L 93 190 L 88 205 L 86 207 Q 86 215 82 221 L 81 231 L 77 247 L 77 283 L 79 288 Q 79 299 82 306 L 88 304 L 88 295 L 85 288 L 85 277 L 84 276 L 84 263 L 87 260 L 91 261 L 92 263 L 93 291 L 97 297 L 102 296 L 127 280 Q 135 278 139 281 L 140 284 L 143 285 L 148 284 L 158 276 L 169 270 L 173 271 Q 178 272 180 269 L 181 266 L 179 264 L 173 256 L 173 246 L 176 243 L 176 233 L 180 228 L 180 212 L 185 203 Q 187 199 192 199 L 197 186 Q 200 179 209 178 L 217 178 L 226 181 Q 235 178 240 171 Q 242 172 241 169 L 251 164 L 256 163 L 265 163 L 274 165 L 279 168 L 283 168 L 288 171 L 299 174 Q 303 175 305 173 L 312 173 L 319 177 Q 321 176 320 179 L 324 181 Q 325 189 329 195 Q 328 197 331 196 L 336 207 L 336 219 L 340 229 L 340 241 L 339 242 Q 342 246 341 255 L 343 259 L 351 265 Q 353 264 352 267 L 357 269 L 359 272 Q 364 274 366 271 L 376 274 L 392 285 L 401 285 Q 403 289 411 288 L 412 287 L 412 271 L 413 270 L 412 241 L 409 231 L 415 228 L 417 231 L 417 236 L 420 244 L 420 258 L 421 259 L 420 286 L 418 289 Q 417 293 420 295 L 424 296 L 426 293 L 428 282 L 428 247 L 425 236 L 423 220 L 420 214 L 420 210 L 408 182 L 405 179 L 399 167 L 387 152 Q 388 149 386 150 L 380 143 L 378 141 L 376 139 L 343 113 L 319 101 L 313 100 L 309 97 L 304 97 L 294 93 L 282 92 L 278 90 Q 272 92 271 89 L 235 89 Z M 258 170 L 250 173 L 235 185 Q 232 184 233 187 L 231 188 Q 227 189 228 195 L 232 197 Q 234 196 233 199 L 242 201 L 251 199 L 256 193 L 257 188 L 263 187 L 266 191 L 287 181 L 288 179 L 287 177 L 279 176 L 274 173 Q 266 174 264 170 L 258 170 Z M 303 181 L 250 208 L 245 220 Q 242 224 237 225 Q 238 234 234 239 Q 232 245 224 245 Q 220 246 221 251 L 217 255 Q 218 257 216 256 L 208 267 L 198 271 L 193 270 L 191 270 L 181 278 L 181 280 L 202 306 Q 201 308 204 307 L 205 311 L 208 312 L 219 327 L 222 327 L 230 319 L 228 311 L 220 300 L 223 296 L 228 298 L 229 303 L 232 304 Q 233 309 238 312 L 241 312 L 251 307 L 265 304 L 273 304 L 289 300 L 315 283 Q 317 284 316 282 L 321 278 Q 320 275 323 276 L 334 258 Q 335 253 333 252 L 331 252 Q 326 258 319 261 L 316 266 Q 317 270 313 268 Q 307 265 309 254 L 313 251 L 318 253 L 321 252 L 332 240 L 332 226 L 330 226 L 320 233 Q 316 235 316 240 Q 315 244 309 243 L 307 233 Q 306 227 310 226 Q 314 226 315 229 L 318 227 Q 320 228 319 225 L 323 224 L 324 222 L 328 219 L 328 206 L 327 204 L 323 200 Q 318 206 311 209 Q 308 210 309 216 Q 308 218 305 217 L 302 215 L 300 208 Q 298 201 302 200 L 307 202 L 316 197 L 320 192 L 316 185 Q 313 179 303 181 Z M 209 185 L 207 186 L 201 195 L 201 203 L 208 208 L 224 216 L 231 218 Q 236 219 239 216 Q 241 215 240 211 L 223 200 Q 218 197 220 188 Q 217 184 209 185 Z M 194 206 L 192 207 L 188 213 L 189 223 L 205 232 L 211 233 L 219 237 L 227 236 L 228 235 L 229 227 L 202 213 L 200 211 L 194 206 Z M 187 230 L 184 235 L 185 240 L 188 241 L 189 244 L 205 251 L 212 250 Q 215 249 214 245 L 211 241 L 207 241 L 201 237 L 198 237 L 187 230 Z M 181 248 L 181 256 Q 186 262 195 264 L 202 262 Q 205 261 204 257 L 196 256 L 186 249 L 181 248 Z M 339 265 L 329 280 L 321 288 L 318 289 L 316 292 L 306 297 L 304 300 L 286 309 Q 282 308 284 312 L 289 313 L 307 325 Q 309 324 308 327 L 312 328 L 313 326 L 316 324 L 321 318 Q 320 315 323 316 L 325 313 Q 324 310 327 311 L 344 290 L 347 288 L 353 280 L 352 276 L 339 265 Z M 169 278 L 152 289 Q 148 290 149 296 L 152 297 L 153 301 Q 171 319 185 343 L 188 344 L 189 348 L 192 349 L 193 353 L 198 356 L 201 354 Q 200 351 203 352 L 204 350 L 216 339 L 216 335 L 175 284 Q 176 281 173 282 L 172 280 Q 173 277 169 278 Z M 365 279 L 363 280 L 340 307 Q 341 309 339 308 L 325 324 Q 326 326 324 325 L 316 334 L 315 338 L 317 342 L 334 355 Q 337 356 336 354 L 339 352 L 352 334 L 355 332 L 359 324 L 355 320 Q 352 318 353 313 Q 360 312 362 316 L 367 316 L 371 311 L 369 307 L 364 304 Q 360 302 360 298 L 364 295 L 375 302 L 379 301 L 384 295 L 385 291 L 374 281 L 365 279 Z M 131 286 L 123 292 L 105 301 L 102 304 L 98 305 L 85 314 L 86 323 L 93 337 L 93 340 L 96 343 L 97 348 L 109 367 L 122 382 Q 121 384 124 383 L 133 393 Q 135 392 134 395 L 159 413 L 163 412 L 164 410 L 167 408 L 189 383 L 192 381 L 198 372 L 152 310 L 149 308 L 144 299 L 142 297 L 137 291 L 131 286 Z M 395 293 L 393 296 L 390 297 L 388 302 L 376 316 Q 377 318 375 317 L 365 331 L 361 333 L 360 336 Q 361 338 359 337 L 345 356 L 343 357 L 339 363 L 339 367 L 345 376 Q 354 388 368 396 L 370 396 L 375 392 Q 391 375 404 355 L 416 331 Q 416 324 420 321 L 421 312 L 424 307 L 419 301 L 411 297 L 406 296 L 401 293 L 395 293 Z M 268 312 L 267 313 L 258 313 L 246 317 L 233 325 L 225 335 Q 226 341 222 344 L 202 363 L 205 369 L 205 376 L 180 403 L 179 407 L 198 416 Q 203 415 205 417 L 206 423 L 203 425 L 182 417 L 176 413 L 169 413 L 168 419 L 178 424 L 181 424 L 187 428 L 193 429 L 198 432 L 202 432 L 212 436 L 218 436 L 236 440 L 270 440 L 288 436 L 294 436 Q 299 432 308 432 L 336 420 L 361 403 L 360 400 L 357 397 L 355 397 L 347 404 L 343 405 L 334 412 L 315 421 L 311 421 L 307 424 Q 295 425 288 429 L 281 429 L 270 432 L 261 432 Q 258 431 259 427 L 262 424 L 274 424 L 288 420 L 294 420 L 303 416 L 307 416 L 311 413 L 317 412 Q 319 408 326 408 L 329 405 L 335 403 L 344 396 L 347 395 L 349 392 L 333 372 L 331 362 L 313 349 L 308 342 L 308 336 L 288 321 L 279 317 L 275 313 L 268 312 Z " /><path fill="rgb(59,59,59)" stroke="rgb(59,59,59)" stroke-width="0" opacity="1" d="M 236.5 96 L 268.5 96 L 274 99.5 Q 274.75 104.25 271.5 105 L 266.5 104 L 238.5 104 L 237.5 105 L 224.5 105 L 217.5 108 L 206.5 109 L 202.5 112 L 195.5 113 L 191.5 116 L 178.5 121 Q 175.25 120.25 176 115.5 L 177 113 L 182.5 112 L 185.5 109 L 191.5 108 L 198.5 104 L 203.5 104 L 212.5 100 L 219.5 100 L 227.5 97 L 235.5 97 L 236.5 96 Z " /><path fill="rgb(59,59,59)" stroke="rgb(59,59,59)" stroke-width="0" opacity="1" d="M 289.5 101 L 295.5 101 L 300.5 104 L 307.5 105 L 311.5 108 L 317.5 109 L 340.5 121 L 347 126.5 Q 348.88 131.9 345.5 131 L 342.5 132 L 339.5 129 L 335.5 128 L 317.5 117 L 301.5 112 L 297.5 109 Q 291.38 109.75 289 108 L 288 102.5 L 289.5 101 Z " /><path fill="rgb(59,59,59)" stroke="rgb(59,59,59)" stroke-width="0" opacity="1" d="M 252.5 118 L 256 120.5 L 257 127.5 L 256 132.5 L 257 135.5 L 256 139.5 L 257 143.5 L 256 148 L 251.5 149 L 249 148 L 248 140.5 L 249 137.5 L 248 133.5 L 249 128.5 Q 246.75 127.25 248 122.5 L 250.5 119 L 252.5 118 Z " /><path fill="rgb(59,59,59)" stroke="rgb(59,59,59)" stroke-width="0" opacity="1" d="M 158.5 124 Q 163.75 122.75 165 125.5 Q 165.75 131.25 161.5 132 L 149.5 138 L 146 134.5 L 151.5 129 L 158.5 124 Z " /><path fill="rgb(59,59,59)" stroke="rgb(59,59,59)" stroke-width="0" opacity="1" d="M 202.5 143 Q 207.5 142.5 208 146.5 Q 208.63 153.87 213 157.5 L 213 162.5 Q 212.25 164.75 208.5 164 L 206 163 Q 205.44 155.73 201 151.5 L 200 145.5 L 202.5 143 Z " /><path fill="rgb(59,59,59)" stroke="rgb(59,59,59)" stroke-width="0" opacity="1" d="M 300.5 143 Q 304.25 142.25 305 144.5 L 304 151.5 L 300 159 Q 296.19 160 295 157.5 L 294 154.5 L 297 146.5 L 300.5 143 Z " /><path fill="rgb(59,59,59)" stroke="rgb(59,59,59)" stroke-width="0" opacity="1" d="M 133.5 145 Q 137.25 144.25 138 146.5 L 137 151.5 L 129 159.5 L 113 181.5 L 112 186.5 L 105 197.5 Q 104.74 204.74 101 208.5 L 100 215.5 L 97 220.5 L 97 227.5 L 94 234.5 L 92 246 Q 86.44 247 85 242.5 L 88 233.5 L 89 221.5 L 92 216.5 L 92 211.5 L 96 203.5 L 96 199.5 L 100 193.5 L 100 190.5 L 117 162.5 L 129 148 L 133.5 145 Z " /><path fill="rgb(59,59,59)" stroke="rgb(59,59,59)" stroke-width="0" opacity="1" d="M 369 148 Q 377.86 148.18 381 155.5 L 400 183.5 L 401 191.5 L 397.5 193 L 393 188.5 L 387 176.5 L 372 156 Q 369.33 157.13 370 154.5 L 368 150.5 L 369 148 Z " /><path fill="rgb(59,59,59)" stroke="rgb(59,59,59)" stroke-width="0" opacity="1" d="M 149.5 160 L 154.5 161 L 163 169.5 L 164.5 172 L 177 183.5 L 178 186.5 L 175.5 190 Q 167.55 188.95 165 182.5 Q 165.75 180.25 163.5 181 L 149 166.5 L 148 161.5 L 149.5 160 Z " /><path fill="rgb(59,59,59)" stroke="rgb(59,59,59)" stroke-width="0" opacity="1" d="M 352.5 160 Q 356.25 159.25 357 161.5 L 357 165.5 L 342.5 180 L 337.5 181 Q 335.25 180.25 336 176.5 L 343.5 168 Q 345.75 168.75 345 166.5 L 352.5 160 Z " /><path fill="rgb(59,59,59)" stroke="rgb(59,59,59)" stroke-width="0" opacity="1" d="M 403.5 200 L 409 201 L 409 205.5 L 412 209.5 L 412 212.5 Q 411.5 216.5 406.5 216 L 401 204.5 L 401 201 L 403.5 200 Z " /><path fill="rgb(59,59,59)" stroke="rgb(59,59,59)" stroke-width="0" opacity="1" d="M 133.5 212 L 139.5 213 L 143.5 216 L 156.5 220 L 162 224.5 Q 162.75 228.25 160.5 229 L 155.5 229 L 149.5 225 L 142.5 224 L 139.5 221 L 134.5 220 L 131 216.5 Q 129.5 212.13 132.5 213 L 133.5 212 Z " /><path fill="rgb(59,59,59)" stroke="rgb(59,59,59)" stroke-width="0" opacity="1" d="M 368.5 212 L 374 213 Q 375 218.56 370.5 220 Q 363.13 220.63 359.5 225 L 353.5 225 Q 351.25 224.25 352 220.5 L 356.5 217 L 361.5 216 L 368.5 212 Z " /><path fill="rgb(59,59,59)" stroke="rgb(59,59,59)" stroke-width="0" opacity="1" d="M 281.5 213 Q 285.5 212.5 286 215.5 Q 286.75 221.25 282.5 222 L 259.5 236 L 257 236 L 256 229.5 L 281.5 213 Z " /><path fill="rgb(59,59,59)" stroke="rgb(59,59,59)" stroke-width="0" opacity="1" d="M 289.5 240 Q 296.5 238.5 298 242.5 L 295.5 246 L 281.5 253 L 278.5 253 L 275.5 256 L 265.5 257 L 264 253.5 L 269.5 249 Q 276.87 248.37 280.5 244 L 283.5 244 L 289.5 240 Z " /><path fill="rgb(59,59,59)" stroke="rgb(59,59,59)" stroke-width="0" opacity="1" d="M 292.5 265 Q 296.88 263.5 296 266.5 L 297 271.5 L 283.5 277 L 278.5 277 L 272.5 279 L 269 276.5 Q 268.25 272.75 270.5 272 Q 276.56 272.56 278.5 269 L 287.5 268 L 292.5 265 Z " /><path fill="rgb(59,59,59)" stroke="rgb(59,59,59)" stroke-width="0" opacity="1" d="M 250.5 336 Q 256 335 257 338.5 L 256 343.5 Q 258.25 344.75 257 349.5 L 256 350.5 L 256 365.5 L 254.5 367 Q 250 368 249 365.5 L 248 360.5 L 249 359.5 L 249 351.5 Q 246.25 349.75 248 343.5 L 248 341.5 L 250.5 336 Z " /><path fill="rgb(59,59,59)" stroke="rgb(59,59,59)" stroke-width="0" opacity="1" d="M 286.5 342 L 292 348.5 L 297 363.5 L 300 367.5 L 301 374.5 L 297.5 377 L 293 373.5 L 283 346.5 L 286.5 342 Z " /><path fill="rgb(59,59,59)" stroke="rgb(59,59,59)" stroke-width="0" opacity="1" d="M 226.5 358 L 232 361.5 L 229 368.5 L 228 379.5 L 222.5 392 L 218 391 L 217 385.5 L 219 383.5 L 221 370.5 L 226.5 358 Z " /><path fill="rgb(59,59,59)" stroke="rgb(59,59,59)" stroke-width="0" opacity="1" d="M 270.5 378 Q 275 377 276 379.5 L 277 381.5 L 277 395.5 L 273.5 397 L 269 388.5 L 269 379.5 L 270.5 378 Z " /><path fill="rgb(59,59,59)" stroke="rgb(59,59,59)" stroke-width="0" opacity="1" d="M 169.5 380 Q 174.25 379.25 175 382.5 L 173 388 L 171.5 388 L 159.5 400 L 157.5 400 Q 154.5 398.5 156 392.5 L 169.5 380 Z " /><path fill="rgb(59,59,59)" stroke="rgb(59,59,59)" stroke-width="0" opacity="1" d="M 221.5 422 L 230.5 424 L 243.5 424 L 247 426.5 Q 248 431 245.5 432 L 233.5 432 Q 229.17 428.83 221.5 429 L 219 426.5 L 221.5 422 Z " /><path fill="rgb(247,247,247)" stroke="rgb(247,247,247)" stroke-width="0" opacity="1" d="M 0 0 L 528 0 L 528 508 L 0 508 L 0 0 Z M 247 44 Q 245 47 240 45 L 235 48 L 231 48 L 219 54 L 212 52 L 195 52 L 190 53 L 185 56 L 181 56 L 171 61 L 158 73 Q 155 72 156 75 L 141 77 L 121 88 L 108 102 L 103 112 Q 104 114 101 113 L 101 115 L 95 117 L 85 124 Q 76 131 70 142 L 64 156 L 64 167 L 48 185 L 44 193 L 40 208 Q 38 221 42 230 Q 41 238 36 243 L 32 259 L 33 277 L 42 299 L 40 307 L 40 321 Q 42 322 41 327 L 44 333 L 44 337 Q 51 352 64 363 Q 63 371 65 377 L 76 397 Q 85 408 101 414 L 112 433 L 121 441 L 132 448 L 137 449 L 144 453 Q 149 452 151 454 L 153 453 Q 160 455 163 461 Q 165 460 164 463 L 176 470 Q 178 469 177 472 L 195 477 L 212 477 L 218 475 L 240 484 Q 246 482 248 485 L 266 484 L 271 481 L 278 480 L 287 475 L 294 477 L 311 477 L 316 476 Q 318 472 325 473 L 339 465 L 341 461 L 350 454 L 366 452 Q 368 448 375 448 L 385 441 L 397 428 L 402 418 Q 401 415 404 416 L 404 414 L 411 412 L 421 405 Q 430 397 436 386 L 441 374 L 441 364 L 457 345 L 461 337 L 465 322 L 465 307 L 464 306 L 464 296 L 469 287 L 469 283 L 472 277 Q 471 272 473 271 L 472 253 L 469 247 L 469 243 L 463 231 L 465 223 L 465 209 Q 463 207 464 202 L 461 197 L 461 193 L 453 179 L 442 168 L 440 153 L 429 133 L 416 120 L 405 115 L 393 97 L 385 88 L 372 80 L 369 80 L 361 76 L 351 76 Q 343 65 330 59 Q 327 60 328 57 L 312 52 Q 296 50 287 54 L 278 49 Q 270 49 266 45 L 247 44 Z " /><path fill="rgb(247,247,247)" stroke="rgb(247,247,247)" stroke-width="0" opacity="1" d="M 246.5 52 L 266.5 53 L 275 57 L 273.5 60 Q 264.92 60.43 259.5 64 L 245.5 64 Q 240.08 60.43 231.5 60 L 230 58.5 L 235.5 54 L 246.5 52 Z " /><path fill="rgb(247,247,247)" stroke="rgb(247,247,247)" stroke-width="0" opacity="1" d="M 196.5 60 L 217.5 61 L 234.5 69 Q 241.86 68.14 245.5 71 L 259.5 71 L 264.5 69 L 273.5 68 L 287.5 61 L 308.5 60 Q 310.25 62.75 316.5 61 L 321.5 64 L 326.5 65 L 343 78.5 L 353 95.5 L 365.5 108 L 379.5 116 L 401.5 121 L 416 129 L 418.5 133 L 421 134.5 L 431 149.5 L 435 167.5 L 435 172.5 L 433 180.5 L 433 190.5 L 436 204.5 L 440 214.5 L 453 232 L 456 233.5 L 464 250.5 L 465 269.5 L 464 270.5 L 464 278.5 L 461 283.5 L 460 288.5 L 445 306.5 L 436 323.5 L 436 328.5 L 434 332.5 Q 435.5 338 433 339.5 L 433 350.5 Q 436 353.5 435 360.5 L 434 361.5 L 433 373.5 L 428 385.5 L 416 400 L 401.5 408 Q 392.21 408.21 386.5 412 L 381.5 412 L 364 422.5 Q 364.75 424.75 362.5 424 L 357 428 L 356 432 L 353 433.5 L 344 449.5 L 337.5 456 L 327.5 463 L 316.5 468 L 295.5 469 L 285.5 467 L 270.5 460 Q 263.14 460.86 259.5 458 L 245.5 458 L 240.5 460 L 231.5 461 L 218.5 468 L 196.5 469 Q 194.75 466.25 188.5 468 L 181.5 464 L 178.5 464 L 165 453.5 Q 165.75 451.25 163.5 452 L 148 428 L 126.5 413 L 117.5 412 Q 112.5 408 103.5 408 L 95.5 404 L 85 396 L 73 376.5 L 72 367.5 L 70 362.5 L 70 354.5 Q 73.5 348 72 336.5 L 65 314.5 L 56 301 L 52 298.5 L 45 288.5 L 45 285.5 L 41 278.5 L 40 258.5 Q 42.75 256.75 41 250.5 L 46 238.5 L 58.5 223 Q 60.75 223.75 60 221.5 L 69 204.5 L 72 189.5 L 72 178.5 Q 69.29 175.21 70 168.5 L 71 167.5 L 72 155.5 L 77 143.5 L 91.5 128 L 103.5 121 L 125.5 116 L 141 106.5 Q 140.25 104.25 142.5 105 L 153 94.5 L 153 92.5 L 162 78 L 166 75.5 Q 165.25 73.25 167.5 74 L 178.5 65 L 181.5 65 L 187.5 61 L 195.5 61 L 196.5 60 Z M 294 67 L 289 78 L 289 83 L 288 84 L 272 83 L 265 81 L 232 82 L 225 84 L 218 84 L 210 87 L 199 89 L 193 79 Q 194 73 192 71 L 187 69 L 184 74 L 188 82 Q 187 88 190 91 L 183 96 L 179 97 L 174 95 L 173 90 L 169 86 L 165 88 L 165 93 L 168 97 L 168 102 L 149 113 L 135 124 L 107 153 L 103 152 L 101 149 Q 95 148 92 143 L 87 143 Q 84 144 85 148 L 99 157 L 101 161 L 100 165 L 89 181 L 88 186 L 80 202 L 80 206 L 77 211 L 76 219 L 73 225 L 72 239 L 71 240 L 62 240 Q 59 241 60 245 L 70 251 Q 68 257 69 268 L 68 270 L 66 271 Q 56 270 51 272 L 49 276 L 53 278 L 69 278 L 72 291 L 73 305 Q 77 308 76 316 Q 81 321 81 331 L 84 335 L 85 340 L 91 352 L 83 359 L 87 364 Q 89 360 96 360 L 104 371 L 103 375 L 89 386 L 91 389 L 97 389 L 103 384 Q 105 385 104 383 Q 105 379 111 380 L 121 393 L 131 401 Q 133 400 132 403 L 147 413 L 148 416 L 154 418 L 162 424 L 166 425 L 169 428 L 174 429 L 180 433 L 193 439 L 192 446 L 188 453 L 188 460 L 191 461 L 194 460 L 197 454 L 197 449 L 202 441 Q 209 440 213 444 L 235 446 L 243 448 L 264 448 L 271 446 L 279 446 L 291 444 L 293 455 L 296 457 Q 300 458 301 456 L 301 451 L 299 444 Q 307 437 320 436 Q 324 440 325 448 L 330 452 L 332 452 L 333 450 L 333 445 L 328 436 L 329 432 L 356 416 Q 358 417 357 415 L 376 401 L 380 396 Q 382 397 381 395 L 384 393 L 384 392 L 399 376 L 403 377 L 416 386 L 419 385 L 420 382 L 405 370 L 405 365 L 412 356 L 421 338 L 421 335 L 424 332 L 425 325 L 429 316 L 430 308 L 432 305 L 436 275 Q 437 272 443 273 L 445 271 L 444 267 Q 445 264 439 265 L 436 263 L 435 251 Q 438 246 447 247 Q 450 246 449 242 L 448 240 L 435 240 L 433 239 L 432 224 L 424 199 L 416 181 L 409 171 L 408 167 L 402 160 L 402 157 L 416 148 L 418 144 L 417 140 L 411 141 L 399 151 L 395 149 L 388 142 Q 389 139 387 140 L 385 138 L 383 136 L 380 132 L 359 115 Q 356 116 357 113 L 347 108 L 343 104 L 340 104 Q 337 100 331 99 L 325 95 L 331 83 L 330 79 Q 329 76 325 77 L 319 92 L 313 92 L 305 88 Q 299 89 297 87 L 297 77 L 299 70 L 294 67 Z " /><path fill="rgb(247,247,247)" stroke="rgb(247,247,247)" stroke-width="0" opacity="1" d="M 144.5 84 Q 150.19 82.2 148 88.5 L 137.5 100 L 125.5 108 L 121.5 108 Q 118.75 111.75 113 111 L 114 106.5 L 122.5 96 L 130.5 90 L 144.5 84 Z " /><path fill="rgb(247,247,247)" stroke="rgb(247,247,247)" stroke-width="0" opacity="1" d="M 357 84 L 364.5 85 L 374.5 90 L 384 97 L 391 106.5 L 392 111 L 380.5 108 L 366 98.5 L 364.5 96 L 361 93.5 L 357 88.5 L 357 84 Z " /><path fill="rgb(247,247,247)" stroke="rgb(247,247,247)" stroke-width="0" opacity="1" d="M 234.5 89 L 270.5 89 Q 272 91.5 277.5 90 L 281.5 92 L 293.5 93 L 303.5 97 L 308.5 97 L 312.5 100 L 318.5 101 L 342.5 113 L 376 138.5 L 377.5 141 L 380 142.5 L 385.5 150 Q 387.75 149.25 387 151.5 L 399 166.5 L 405 178.5 L 408 181.5 L 420 209.5 L 420 213.5 L 423 219.5 L 425 235.5 L 428 246.5 L 428 281.5 L 426 292.5 L 423.5 296 L 420 294.5 Q 417.4 293.1 418 288.5 L 420 285.5 L 421 258.5 L 420 257.5 L 420 243.5 L 417 235.5 L 417 230.5 L 414.5 228 L 409 230.5 L 412 240.5 L 413 269.5 L 412 270.5 L 412 286.5 L 410.5 288 Q 402.71 289.29 400.5 285 L 391.5 285 L 375.5 274 L 365.5 271 Q 364 273.5 358.5 272 L 357 269 L 352 266.5 Q 352.75 264.25 350.5 265 L 343 258.5 L 341 254.5 Q 341.88 246.13 339 241.5 L 340 240.5 L 340 228.5 L 336 218.5 L 336 206.5 L 330.5 196 Q 328.25 196.75 329 194.5 Q 324.66 189.15 324 181 L 320 178.5 Q 320.75 176.25 318.5 177 L 311.5 173 L 304.5 173 Q 303.25 175.25 298.5 174 L 287.5 171 L 282.5 168 L 278.5 168 L 273.5 165 L 264.5 163 L 255.5 163 L 250.5 164 L 241 169 Q 242.13 171.67 239.5 171 Q 234.72 178.22 225.5 181 L 216.5 178 L 208.5 178 Q 200.38 179.38 197 185.5 L 191.5 199 Q 186.75 199.25 185 202.5 L 180 211.5 L 180 227.5 L 176 232.5 L 176 242.5 L 173 245.5 L 173 255.5 L 178.5 264 L 181 265.5 L 179.5 269 Q 177.8 271.8 172.5 271 L 168.5 270 L 157.5 276 L 147.5 284 L 142.5 285 L 140 284 L 138.5 281 Q 134.67 278.33 126.5 280 L 101.5 296 L 96.5 297 L 93 290.5 L 92 262.5 L 90.5 261 L 86.5 260 L 84 262.5 L 84 275.5 L 85 276.5 L 85 287.5 L 88 294.5 L 88 304 L 82 306 Q 79.22 298.58 79 287.5 L 77 282.5 L 77 246.5 L 81 230.5 L 82 220.5 Q 85.57 215.08 86 206.5 L 88 204.5 L 93 189.5 L 109 162.5 L 123.5 145 L 126 143.5 L 129 138 L 134 136 Q 132.88 133.33 135.5 134 L 150.5 121 L 177.5 105 L 180.5 105 L 186.5 101 L 189.5 101 L 196.5 97 L 201.5 97 L 210.5 93 L 216.5 93 L 234.5 89 Z M 237 96 L 236 97 L 228 97 L 220 100 L 213 100 L 204 104 L 199 104 L 192 108 L 186 109 L 183 112 L 177 113 L 176 116 Q 175 120 179 121 L 192 116 L 196 113 L 203 112 L 207 109 L 218 108 L 225 105 L 238 105 L 239 104 L 267 104 L 272 105 Q 275 104 274 100 L 269 96 L 237 96 Z M 290 101 L 288 103 L 289 108 Q 291 110 298 109 L 302 112 L 318 117 L 336 128 L 340 129 L 343 132 L 346 131 Q 349 132 347 127 L 341 121 L 318 109 L 312 108 L 308 105 L 301 104 L 296 101 L 290 101 Z M 253 118 L 251 119 L 248 123 Q 247 127 249 129 L 248 134 L 249 138 L 248 141 L 249 148 L 252 149 L 256 148 L 257 144 L 256 140 L 257 136 L 256 133 L 257 128 L 256 121 L 253 118 Z M 159 124 L 152 129 L 146 135 L 150 138 L 162 132 Q 166 131 165 126 Q 164 123 159 124 Z M 203 143 L 200 146 L 201 152 Q 205 156 206 163 L 209 164 Q 212 165 213 163 L 213 158 Q 209 154 208 147 Q 208 143 203 143 Z M 301 143 L 297 147 L 294 155 L 295 158 Q 296 160 300 159 L 304 152 L 305 145 Q 304 142 301 143 Z M 134 145 L 129 148 L 117 163 L 100 191 L 100 194 L 96 200 L 96 204 L 92 212 L 92 217 L 89 222 L 88 234 L 85 243 Q 86 247 92 246 L 94 235 L 97 228 L 97 221 L 100 216 L 101 209 Q 105 205 105 198 L 112 187 L 113 182 L 129 160 L 137 152 L 138 147 Q 137 144 134 145 Z M 369 148 L 368 151 L 370 155 Q 369 157 372 156 L 387 177 L 393 189 L 398 193 L 401 192 L 400 184 L 381 156 Q 378 148 369 148 Z M 150 160 L 148 162 L 149 167 L 164 181 Q 166 180 165 183 Q 168 189 176 190 L 178 187 L 177 184 L 165 172 L 163 170 L 155 161 L 150 160 Z M 353 160 L 345 167 Q 346 169 344 168 L 336 177 Q 335 180 338 181 L 343 180 L 357 166 L 357 162 Q 356 159 353 160 Z M 404 200 L 401 201 L 401 205 L 407 216 Q 411 216 412 213 L 412 210 L 409 206 L 409 201 L 404 200 Z M 134 212 L 133 213 Q 130 212 131 217 L 135 220 L 140 221 L 143 224 L 150 225 L 156 229 L 161 229 Q 163 228 162 225 L 157 220 L 144 216 L 140 213 L 134 212 Z M 369 212 L 362 216 L 357 217 L 352 221 Q 351 224 354 225 L 360 225 Q 363 221 371 220 Q 375 219 374 213 L 369 212 Z " /><path fill="rgb(247,247,247)" stroke="rgb(247,247,247)" stroke-width="0" opacity="1" d="M 257.5 170 L 263.5 170 Q 266.33 173.67 273.5 173 L 278.5 176 L 286.5 177 L 288 178.5 L 286.5 181 L 265.5 191 L 262.5 187 L 257 188 L 256 192.5 L 251 199 L 241.5 201 L 233 199 Q 234.13 196.33 231.5 197 L 228 194.5 Q 227 189 230.5 188 L 233 186.5 Q 232.25 184.25 234.5 185 L 249.5 173 L 257.5 170 Z " /><path fill="rgb(247,247,247)" stroke="rgb(247,247,247)" stroke-width="0" opacity="1" d="M 62.5 179 L 64 180.5 L 64 196.5 L 60 204.5 L 60 207.5 L 54.5 217 Q 52.25 216.25 53 218.5 L 49.5 221 L 48 219.5 L 48 209.5 L 49 208.5 L 49 199.5 L 53 193.5 L 53 190.5 L 62.5 179 Z " /><path fill="rgb(247,247,247)" stroke="rgb(247,247,247)" stroke-width="0" opacity="1" d="M 442.5 179 L 452 190.5 Q 452.54 196.96 456 200.5 L 457 219.5 L 453 221 L 445 207.5 L 445 204.5 L 441 195.5 L 441 180.5 L 442.5 179 Z " /><path fill="rgb(247,247,247)" stroke="rgb(247,247,247)" stroke-width="0" opacity="1" d="M 302.5 181 Q 312.97 179.03 316 184.5 L 320 191.5 L 315.5 197 L 306.5 202 L 301.5 200 Q 298.5 201.5 300 207.5 L 302 214.5 L 304.5 217 Q 308.25 217.75 309 215.5 Q 307.75 210.25 310.5 209 Q 317.93 205.93 322.5 200 L 327 203.5 L 328 205.5 L 328 218.5 L 324 221.5 L 322.5 224 L 319 225 Q 320.13 227.67 317.5 227 L 314.5 229 Q 314 225.5 309.5 226 Q 306 227 307 232.5 L 309 243 Q 314.56 244 316 239.5 Q 316.25 234.75 319.5 233 L 329.5 226 L 332 226 L 332 239.5 L 320.5 252 L 317.5 253 L 312.5 251 L 309 253.5 Q 306.81 264.69 312.5 268 Q 317.31 269.67 316 265.5 L 318.5 261 Q 325.93 257.93 330.5 252 L 332.5 252 Q 335 253 334 257.5 L 322.5 276 Q 320.25 275.25 321 277.5 L 316 281.5 Q 316.75 283.75 314.5 283 L 288.5 300 L 272.5 304 L 264.5 304 L 250.5 307 L 240.5 312 L 237.5 312 Q 232.65 309.4 232 304 L 229 302.5 L 228 298 L 222.5 296 L 220 299.5 L 228 310.5 L 230 318.5 L 221.5 327 L 218.5 327 L 208 312 L 205 310.5 L 204 307 Q 201.33 308.13 202 305.5 L 181 279.5 L 181 277.5 L 190.5 270 L 192.5 270 L 197.5 271 L 208 266.5 L 215.5 256 Q 217.75 256.75 217 254.5 L 221 250.5 Q 220.25 245.75 223.5 245 Q 231.58 244.58 234 238.5 Q 238.33 234.05 237 225 Q 242.4 224.35 245 219.5 L 249.5 208 L 302.5 181 Z M 282 213 L 256 230 L 257 236 L 260 236 L 283 222 Q 287 221 286 216 Q 286 213 282 213 Z M 290 240 L 284 244 L 281 244 Q 277 248 270 249 L 264 254 L 266 257 L 276 256 L 279 253 L 282 253 L 296 246 L 298 243 Q 297 239 290 240 Z M 293 265 L 288 268 L 279 269 Q 277 273 271 272 Q 268 273 269 277 L 273 279 L 279 277 L 284 277 L 297 272 L 296 267 Q 297 264 293 265 Z " /><path fill="rgb(247,247,247)" stroke="rgb(247,247,247)" stroke-width="0" opacity="1" d="M 208.5 185 Q 216.75 183.75 220 187.5 Q 218.12 196.88 222.5 200 L 240 210.5 Q 241 215 238.5 216 Q 236.17 218.67 230.5 218 L 223.5 216 L 207.5 208 L 201 202.5 L 201 194.5 L 206.5 186 L 208.5 185 Z " /><path fill="rgb(247,247,247)" stroke="rgb(247,247,247)" stroke-width="0" opacity="1" d="M 193.5 206 L 200 210.5 L 201.5 213 L 229 226.5 L 228 234.5 L 226.5 236 L 218.5 237 L 210.5 233 L 204.5 232 L 189 222.5 L 188 212.5 L 191.5 207 L 193.5 206 Z " /><path fill="rgb(247,247,247)" stroke="rgb(247,247,247)" stroke-width="0" opacity="1" d="M 186.5 230 L 197.5 237 L 200.5 237 L 206.5 241 L 210.5 241 L 214 244.5 Q 214.75 249.25 211.5 250 L 204.5 251 L 189 244 L 187.5 241 L 185 239.5 L 184 234.5 L 186.5 230 Z " /><path fill="rgb(247,247,247)" stroke="rgb(247,247,247)" stroke-width="0" opacity="1" d="M 181 248 L 185.5 249 L 195.5 256 L 204 257 Q 204.75 260.83 201.5 262 L 194.5 264 Q 185.63 261.87 181 255.5 L 181 248 Z " /><path fill="rgb(247,247,247)" stroke="rgb(247,247,247)" stroke-width="0" opacity="1" d="M 338.5 265 L 352 275.5 L 353 279.5 L 346.5 288 L 344 289.5 L 327 311 Q 324.33 309.87 325 312.5 L 322.5 316 Q 320.25 315.25 321 317.5 L 316 324 L 313 325.5 L 311.5 328 L 308 326.5 Q 308.75 324.25 306.5 325 L 288.5 313 L 284 312 Q 282.5 308.25 285.5 309 L 304 300 L 305.5 297 L 316 292 L 317.5 289 L 320.5 288 L 329 279.5 L 338.5 265 Z " /><path fill="rgb(247,247,247)" stroke="rgb(247,247,247)" stroke-width="0" opacity="1" d="M 168.5 278 Q 172.87 276.5 172 279.5 L 173 282 Q 175.67 280.88 175 283.5 L 216 334.5 L 216 338.5 L 204 349.5 L 202.5 352 Q 200.25 351.25 201 353.5 L 197.5 356 L 193 352.5 L 192 349 L 189 347.5 L 188 344 L 185 342.5 Q 171.02 319.48 153 300.5 L 152 297 L 149 295.5 Q 148 290 151.5 289 L 168.5 278 Z " /><path fill="rgb(247,247,247)" stroke="rgb(247,247,247)" stroke-width="0" opacity="1" d="M 364.5 279 L 373.5 281 L 385 290.5 L 384 294.5 L 378.5 301 L 374.5 302 L 363.5 295 L 360 297.5 Q 360.25 302.25 363.5 304 L 369 306.5 L 371 310.5 L 366.5 316 L 361.5 316 Q 359.75 311.5 353 313 Q 351.5 318.38 354.5 320 L 359 323.5 L 355 332 L 352 333.5 L 338.5 352 L 336 353.5 Q 336.83 356.13 333.5 355 L 317 341.5 L 315 337.5 L 316 333.5 L 323.5 325 Q 325.75 325.75 325 323.5 L 338.5 308 Q 340.75 308.75 340 306.5 L 362.5 280 L 364.5 279 Z " /><path fill="rgb(247,247,247)" stroke="rgb(247,247,247)" stroke-width="0" opacity="1" d="M 130.5 286 L 137 290.5 L 141.5 297 L 144 298.5 L 149 308 L 152 309.5 L 198 371.5 L 192 381 L 189 382.5 L 166.5 408 L 164 409.5 L 162.5 412 L 158.5 413 L 134 395 Q 135.13 392.33 132.5 393 L 123.5 383 Q 121.25 383.75 122 381.5 L 109 366.5 L 97 347.5 L 96 342.5 L 93 339.5 L 93 336.5 L 86 322.5 L 85 313.5 L 97.5 305 L 101.5 304 L 104.5 301 L 122.5 292 L 130.5 286 Z M 170 380 L 156 393 Q 154 398 158 400 L 160 400 L 172 388 L 173 388 L 175 383 Q 174 379 170 380 Z " /><path fill="rgb(247,247,247)" stroke="rgb(247,247,247)" stroke-width="0" opacity="1" d="M 394.5 293 L 400.5 293 L 405.5 296 L 410.5 297 L 418.5 301 L 424 306.5 L 421 311.5 L 420 320.5 Q 416 323.5 416 330.5 L 404 354.5 Q 390.96 374.96 374.5 392 L 369.5 396 L 367.5 396 Q 354.1 387.9 345 375.5 L 339 366.5 L 339 362.5 L 342.5 357 L 345 355.5 L 358.5 337 Q 360.75 337.75 360 335.5 L 361 333 L 365 330.5 L 374.5 317 Q 376.75 317.75 376 315.5 L 388 301.5 L 390 297 L 393 295.5 L 394.5 293 Z " /><path fill="rgb(247,247,247)" stroke="rgb(247,247,247)" stroke-width="0" opacity="1" d="M 49.5 308 Q 52.83 306.88 52 309.5 L 54.5 313 Q 57.13 312.17 56 315.5 L 60 321.5 L 60 324.5 L 64 333.5 L 64 349 L 61.5 349 L 57 344.5 L 49 328.5 L 48 309.5 L 49.5 308 Z " /><path fill="rgb(247,247,247)" stroke="rgb(247,247,247)" stroke-width="0" opacity="1" d="M 453 308 L 457 309.5 L 456 329.5 L 448 344.5 L 442.5 350 L 441 348.5 L 441 333.5 L 449 313 L 452 311.5 L 453 308 Z " /><path fill="rgb(247,247,247)" stroke="rgb(247,247,247)" stroke-width="0" opacity="1" d="M 267.5 312 L 274.5 313 L 278.5 317 L 287.5 321 L 308 335.5 L 308 341.5 L 313 349 L 331 362 L 333 371.5 L 349 391.5 L 347 395 L 343.5 396 L 334.5 403 L 328.5 405 L 325.5 408 Q 319.3 408.3 316.5 412 L 310.5 413 L 306.5 416 L 302.5 416 L 293.5 420 L 287.5 420 L 273.5 424 L 261.5 424 L 259 426.5 Q 258 431 260.5 432 L 269.5 432 L 280.5 429 L 287.5 429 Q 295.11 424.61 306.5 424 L 310.5 421 L 314.5 421 L 333.5 412 L 342.5 405 L 346.5 404 L 354.5 397 L 356.5 397 L 360 399.5 L 361 402.5 L 335.5 420 L 307.5 432 Q 298.5 432 293.5 436 L 287.5 436 L 269.5 440 L 235.5 440 L 217.5 436 L 211.5 436 L 201.5 432 L 197.5 432 L 192.5 429 L 186.5 428 L 180.5 424 L 177.5 424 L 168 418.5 L 169 413 L 175.5 413 L 181.5 417 L 202.5 425 L 206 422.5 L 205 417 Q 202.94 415.38 197.5 416 L 179 406.5 L 180 402.5 L 205 375.5 L 205 368.5 L 202 362.5 L 222 343.5 Q 225.75 341.25 225 334.5 L 233 325 L 245.5 317 L 257.5 313 L 266.5 313 L 267.5 312 Z M 251 336 L 248 342 L 248 344 Q 246 350 249 352 L 249 360 L 248 361 L 249 366 Q 250 368 255 367 L 256 366 L 256 351 L 257 350 Q 258 345 256 344 L 257 339 Q 256 335 251 336 Z M 287 342 L 283 347 L 293 374 L 298 377 L 301 375 L 300 368 L 297 364 L 292 349 L 287 342 Z M 227 358 L 221 371 L 219 384 L 217 386 L 218 391 L 223 392 L 228 380 L 229 369 L 232 362 L 227 358 Z M 271 378 L 269 380 L 269 389 L 274 397 L 277 396 L 277 382 L 276 380 Q 275 377 271 378 Z M 222 422 L 219 427 L 222 429 Q 229 429 234 432 L 246 432 Q 248 431 247 427 L 244 424 L 231 424 L 222 422 Z " /><path fill="rgb(247,247,247)" stroke="rgb(247,247,247)" stroke-width="0" opacity="1" d="M 114.5 417 L 132.5 425 L 144 435.5 L 149 442.5 L 148 445 Q 127.41 441.44 117 426.5 L 113 421.5 L 113 418.5 L 114.5 417 Z " /><path fill="rgb(247,247,247)" stroke="rgb(247,247,247)" stroke-width="0" opacity="1" d="M 388.5 418 Q 394.19 416.2 392 422.5 L 389 424 L 386.5 429 Q 384.25 428.25 385 430.5 L 381 433 L 379.5 436 L 376 437 Q 377.13 439.67 374.5 439 L 364.5 444 L 357 445 L 357 440.5 L 367.5 429 L 379.5 421 L 382.5 421 L 388.5 418 Z " /><path fill="rgb(247,247,247)" stroke="rgb(247,247,247)" stroke-width="0" opacity="1" d="M 245.5 465 L 260.5 465 L 275 470.5 Q 275.75 472.75 273.5 472 L 266.5 476 L 246.5 477 Q 244.75 474.25 238.5 476 L 230 472 L 231.5 469 Q 240.08 468.57 245.5 465 Z " /></svg>