<svg viewBox="0 0 264 254" version="1.1" xmlns="http://www.w3.org/2000/svg" desc="Created with imagetracer.js version 1.2.6" ><path fill="rgb(60,60,60)" stroke="rgb(60,60,60)" stroke-width="0" opacity="1" d="M 123.5 22 L 129.5 22 L 137.5 24 L 142.5 27 L 146.5 27 L 147.5 26 L 155.5 26 Q 168.7 28.8 175.5 38 L 180.5 38 L 189.5 42 L 197 48.5 L 202.5 58 Q 210.5 60.5 215 66.5 Q 220.83 72.17 221 83.5 L 227 89.5 L 231 96.5 L 233 104.5 L 233 111.5 L 232 116.5 L 235 121.5 L 237 129.5 L 237 135.5 L 235 143.5 L 232 148.5 L 232 152.5 Q 234.75 154.25 233 160.5 Q 230.64 174.64 221 181.5 L 221 186.5 L 217 195.5 L 210.5 203 L 201 208.5 Q 198.5 216.5 192.5 221 Q 186.83 226.83 175.5 227 L 169.5 233 L 162.5 237 L 155.5 239 L 147.5 239 L 142.5 238 L 137.5 241 L 124.5 243 L 115.5 241 L 110.5 238 L 106.5 238 L 105.5 239 L 97.5 239 L 83.5 233 L 77.5 227 L 72.5 227 L 63.5 223 L 56 216.5 L 50.5 207 Q 42.5 204.5 38 198.5 L 32 186.5 L 32 181.5 L 22 168.5 L 20 160.5 L 20 153.5 L 21 148.5 Q 15.9 141.6 16 129.5 L 18 121.5 L 21 116.5 L 21 112.5 Q 18.25 110.75 20 104.5 Q 22.36 90.36 32 83.5 L 32 78.5 L 36 69.5 L 42.5 62 L 52 56.5 Q 54.5 48.5 60.5 44 L 72.5 38 L 77.5 38 L 83.5 32 L 90.5 28 L 97.5 26 L 105.5 26 L 110.5 27 L 115.5 24 L 123.5 22 Z M 124 26 L 119 27 L 115 30 L 122 32 Q 132 33 138 30 L 135 27 L 124 26 Z M 99 30 L 88 34 L 85 37 Q 82 36 83 39 L 81 39 L 77 48 L 68 56 L 48 63 L 39 72 L 35 85 L 36 88 L 35 103 Q 31 113 23 120 L 20 130 L 21 141 Q 25 151 33 158 L 36 167 L 36 177 L 35 178 Q 35 189 40 195 L 48 202 L 58 206 L 62 206 L 71 211 Q 77 216 81 225 Q 80 227 83 226 L 83 228 L 94 234 L 99 235 L 111 234 L 113 232 L 124 229 L 136 230 L 141 233 L 149 235 L 160 234 L 170 228 L 177 217 L 184 210 L 192 206 Q 200 206 206 202 L 214 194 L 218 181 L 217 177 L 218 163 Q 222 153 229 147 L 232 141 Q 231 136 233 135 L 233 130 L 230 120 L 220 108 L 217 99 L 217 88 L 218 87 L 216 76 L 211 67 L 200 60 Q 188 60 183 54 Q 175 49 172 40 Q 166 32 155 30 L 148 30 L 136 35 Q 131 34 130 36 L 118 35 L 111 31 L 106 30 L 99 30 Z M 73 42 L 62 48 L 57 54 L 57 56 Q 64 55 70 50 L 74 45 Q 75 41 73 42 Z M 179 42 Q 178 45 181 47 Q 180 49 183 48 L 183 50 L 195 56 Q 197 57 196 54 Q 191 44 179 42 Z M 32 90 L 25 100 Q 26 104 24 106 Q 23 110 26 111 L 32 100 L 32 90 Z M 222 90 L 221 100 L 226 110 Q 228 113 229 110 L 228 100 L 222 90 Z M 26 154 L 24 156 L 25 166 L 28 172 L 32 175 L 32 166 L 26 154 Z M 228 154 L 221 166 L 222 175 L 225 172 L 229 161 Q 230 155 228 154 Z M 57 209 L 57 212 Q 63 220 73 223 L 75 222 L 72 218 Q 67 211 57 209 Z M 195 209 L 184 215 L 179 221 L 179 223 L 191 218 L 196 212 Q 197 208 195 209 Z M 122 233 L 115 236 L 119 238 L 124 239 L 135 238 L 138 236 Q 132 232 122 233 Z " /><path fill="rgb(60,60,60)" stroke="rgb(60,60,60)" stroke-width="0" opacity="1" d="M 146 34 L 150 35.5 L 149 44 L 160 46 L 163.5 39 L 166 40.5 L 163 47.5 L 180.5 58 L 197 73.5 Q 196.25 75.75 198.5 75 L 199.5 76 L 202.5 73 L 206.5 70 L 209 70 L 209 72.5 L 204.5 77 L 201 79.5 Q 214.17 95.11 217 120 Q 223.14 118.25 225 121.5 L 223.5 124 Q 219 123 218 125.5 Q 216.5 131.5 219.5 133 L 223 134.5 L 221.5 137 Q 215.38 135.17 218 142.5 L 212 166.5 L 203 182.5 L 203 186 L 210 190.5 Q 211.31 194.67 206.5 193 L 199.5 188 L 185.5 203 Q 176.89 211.23 165 215 L 164 217.5 L 167 224.5 L 164.5 226 L 159.5 218 L 150 221 L 151 227.5 L 148.5 229 L 146 222 L 134.5 224 L 118.5 224 L 100 221 Q 99.96 227.67 95.5 231 Q 93.25 230.25 94 226.5 L 97 219 Q 72.05 211.32 57 192.5 L 55.5 190 L 48.5 195 L 45 195 Q 44.25 191.17 47.5 190 L 52 188 L 52 185.5 L 47.5 180 L 43.5 182 L 42 179.5 L 46 175.5 L 44 173.5 L 38 157.5 L 35 139 L 25.5 139 L 25 136 L 32.5 136 L 35 133.5 L 35 125.5 L 33.5 124 L 30 123 L 31.5 120 Q 38.25 122.25 36 115.5 Q 40.5 95 51 80.5 L 43 75 Q 41.25 70.5 46.5 72 L 53.5 77 L 67.5 62 L 84 52 L 83 43 L 87 45.5 Q 85.88 48.83 88.5 48 L 90.5 48 L 95 45.5 L 92 37.5 L 93 35 L 97 37.5 L 99 45 L 116.5 41 L 135.5 41 L 136.5 42 L 145 42 L 146 34 Z M 115 45 Q 82 51 63 72 Q 64 74 61 73 L 46 97 L 43 104 L 39 121 L 39 144 L 41 153 L 44 152 L 42 132 L 45 130 L 46 132 L 47 147 L 48 149 L 64 140 Q 70 139 72 143 L 85 135 L 87 136 Q 91 137 91 134 L 87 129 L 88 117 L 90 115 Q 89 106 92 103 L 96 100 L 99 93 L 105 89 Q 111 88 114 91 L 126 82 L 135 82 L 148 87 Q 155 86 159 88 L 163 93 L 168 103 L 168 110 L 170 114 L 171 129 L 180 136 L 186 136 L 197 143 L 206 144 L 206 136 L 207 135 L 205 116 L 208 114 L 209 116 L 210 129 L 211 130 L 210 144 L 209 145 L 210 147 Q 209 150 213 148 L 214 144 L 214 121 L 212 111 Q 206 90 194 77 L 192 74 Q 177 58 156 49 L 139 45 L 115 45 Z M 130 85 Q 121 88 116 94 L 114 98 L 122 101 L 126 100 L 130 94 L 134 96 L 143 91 Q 145 92 144 89 L 130 85 Z M 151 91 L 127 103 L 119 114 L 118 119 L 114 123 L 111 123 L 111 126 L 106 132 L 103 135 L 99 136 L 97 135 L 91 139 L 91 141 L 107 160 L 109 164 L 115 160 L 111 151 Q 109 149 112 148 L 114 149 L 119 156 L 133 152 L 139 152 L 146 150 L 158 142 L 167 131 L 167 126 L 162 129 L 158 134 L 155 133 L 155 126 L 159 126 L 160 127 L 166 121 L 166 113 L 159 117 L 158 121 L 156 122 Q 152 121 154 115 Q 156 111 158 115 L 164 110 Q 166 102 162 100 L 158 103 Q 155 104 155 108 L 153 109 L 151 108 L 150 102 Q 151 99 153 101 L 157 100 Q 161 99 160 95 Q 159 90 151 91 Z M 103 93 L 101 97 L 101 102 Q 107 108 119 109 L 120 106 L 110 99 L 110 93 L 103 93 Z M 98 103 L 95 104 L 94 107 L 95 112 Q 101 117 110 119 L 114 118 L 115 113 L 105 109 L 98 103 Z M 94 115 L 92 118 L 93 121 L 103 126 L 106 125 Q 108 126 107 123 L 94 115 Z M 92 124 L 91 129 L 97 132 L 101 131 Q 103 132 102 129 L 100 129 L 92 124 Z M 170 133 L 167 138 Q 157 149 142 156 L 155 164 L 157 164 L 177 140 L 176 137 L 170 133 Z M 85 139 L 75 145 L 75 149 L 99 178 L 108 170 L 106 165 L 88 142 L 85 139 Z M 181 140 L 163 162 Q 164 164 161 163 L 158 168 L 159 172 L 168 178 L 180 163 Q 176 161 177 157 L 181 158 Q 185 159 186 156 L 185 153 L 183 152 Q 180 153 181 151 Q 179 149 182 148 L 190 151 L 193 146 L 186 140 L 181 140 Z M 66 143 L 43 156 L 43 162 L 49 175 L 56 186 L 61 191 L 63 194 L 81 207 L 99 188 L 99 185 L 69 146 L 66 143 Z M 198 147 L 170 181 L 170 185 L 173 189 Q 177 196 186 198 Q 205 182 212 154 Q 208 147 198 147 Z M 135 156 Q 133 159 128 157 L 121 160 Q 113 164 111 173 L 101 182 L 103 185 Q 104 189 101 191 L 90 202 L 90 204 L 103 210 L 102 213 L 89 207 L 86 207 L 84 210 L 98 216 L 115 220 L 138 220 L 149 218 L 171 209 L 181 202 L 180 199 L 178 199 Q 169 207 158 211 L 138 216 L 131 216 L 130 214 L 132 212 L 140 212 L 155 208 L 174 198 L 175 196 L 167 187 L 166 181 L 162 179 Q 154 176 154 167 L 135 156 Z " /><path fill="rgb(60,60,60)" stroke="rgb(60,60,60)" stroke-width="0" opacity="1" d="M 118.5 48 L 134.5 48 L 137 49 L 135.5 53 L 133.5 52 L 119.5 52 L 102.5 55 L 89.5 61 L 88 58.5 L 99.5 52 L 118.5 48 Z " /><path fill="rgb(60,60,60)" stroke="rgb(60,60,60)" stroke-width="0" opacity="1" d="M 144 51 Q 162.43 53.19 174 63.5 Q 175.25 67.25 171.5 66 L 157.5 58 L 146.5 55 L 144 52.5 L 144 51 Z " /><path fill="rgb(60,60,60)" stroke="rgb(60,60,60)" stroke-width="0" opacity="1" d="M 126.5 59 Q 129.5 59.5 129 63.5 L 128 66.5 L 128 68.5 L 129 71.5 L 126.5 75 L 124 70.5 L 124 68.5 L 125 64.5 L 124 61.5 L 126.5 59 Z " /><path fill="rgb(60,60,60)" stroke="rgb(60,60,60)" stroke-width="0" opacity="1" d="M 79.5 62 L 83 63.5 L 81.5 66 L 74.5 69 Q 71 67 75.5 65 L 79.5 62 Z " /><path fill="rgb(60,60,60)" stroke="rgb(60,60,60)" stroke-width="0" opacity="1" d="M 101.5 72 L 105 74.5 L 107 82 Q 101.8 84.08 103 79.5 L 100 73.5 L 101.5 72 Z " /><path fill="rgb(60,60,60)" stroke="rgb(60,60,60)" stroke-width="0" opacity="1" d="M 150.5 72 Q 154.25 70.75 153 74.5 L 149.5 80 Q 147.25 80.75 148 78.5 L 148 76.5 Q 147.5 72.5 150.5 72 Z " /><path fill="rgb(60,60,60)" stroke="rgb(60,60,60)" stroke-width="0" opacity="1" d="M 66.5 73 Q 70.25 71.75 69 75.5 L 67 79 Q 64.33 77.88 65 80.5 Q 57.37 87.87 53 98.5 L 49 109.5 L 47 121.5 L 45.5 123 L 43 121.5 Q 44.85 106.85 50 95.5 Q 56.47 82.47 66.5 73 Z " /><path fill="rgb(60,60,60)" stroke="rgb(60,60,60)" stroke-width="0" opacity="1" d="M 185.5 74 L 193 80.5 L 199 89.5 L 201 95.5 L 199.5 97 L 196 93.5 L 194 88.5 L 184 75.5 L 185.5 74 Z " /><path fill="rgb(60,60,60)" stroke="rgb(60,60,60)" stroke-width="0" opacity="1" d="M 75.5 80 L 89 92.5 Q 90.25 96.25 86.5 95 L 74 81.5 L 75.5 80 Z " /><path fill="rgb(60,60,60)" stroke="rgb(60,60,60)" stroke-width="0" opacity="1" d="M 176.5 80 L 179 81.5 L 170.5 91 L 168 89.5 L 176.5 80 Z " /><path fill="rgb(60,60,60)" stroke="rgb(60,60,60)" stroke-width="0" opacity="1" d="M 202.5 100 L 205 101.5 L 206 106.5 L 203.5 108 L 201 101.5 L 202.5 100 Z " /><path fill="rgb(60,60,60)" stroke="rgb(60,60,60)" stroke-width="0" opacity="1" d="M 67.5 106 L 78.5 110 L 81 112.5 Q 82.25 116.25 78.5 115 L 68.5 111 L 66 108.5 L 67.5 106 Z " /><path fill="rgb(60,60,60)" stroke="rgb(60,60,60)" stroke-width="0" opacity="1" d="M 184.5 106 L 187 107.5 L 184.5 111 L 177.5 113 L 176 110 L 184.5 106 Z " /><path fill="rgb(60,60,60)" stroke="rgb(60,60,60)" stroke-width="0" opacity="1" d="M 140.5 107 Q 144.25 105.75 143 109.5 L 129.5 118 L 128 115.5 L 140.5 107 Z " /><path fill="rgb(60,60,60)" stroke="rgb(60,60,60)" stroke-width="0" opacity="1" d="M 145.5 120 L 149 121.5 Q 149.75 123.75 147.5 123 L 136.5 129 L 133.5 129 Q 130 127 134.5 125 L 145.5 120 Z " /><path fill="rgb(60,60,60)" stroke="rgb(60,60,60)" stroke-width="0" opacity="1" d="M 145.5 133 L 149 134.5 L 147.5 137 L 136.5 140 L 135 136 L 145.5 133 Z " /><path fill="rgb(60,60,60)" stroke="rgb(60,60,60)" stroke-width="0" opacity="1" d="M 125 168 L 129 169.5 L 128 171.5 L 129 174.5 L 128 175.5 L 128 184 Q 124.25 185.5 125 182.5 L 124 180.5 L 125 176.5 L 124 172.5 L 125 169.5 L 125 168 Z " /><path fill="rgb(60,60,60)" stroke="rgb(60,60,60)" stroke-width="0" opacity="1" d="M 143.5 171 L 146 173.5 L 151 187.5 Q 149.75 190.25 148.5 188 Q 146.25 188.75 147 186.5 L 142 175.5 L 142 172.5 L 143.5 171 Z " /><path fill="rgb(60,60,60)" stroke="rgb(60,60,60)" stroke-width="0" opacity="1" d="M 113.5 179 L 116 180 L 113 194.5 L 111.5 196 Q 107.33 197.31 109 192.5 L 113.5 179 Z " /><path fill="rgb(60,60,60)" stroke="rgb(60,60,60)" stroke-width="0" opacity="1" d="M 135 189 Q 138.75 187.5 138 190.5 Q 140.5 192 139 197.5 Q 137.5 200.5 136 197.5 L 135 189 Z " /><path fill="rgb(60,60,60)" stroke="rgb(60,60,60)" stroke-width="0" opacity="1" d="M 85.5 190 L 88 191.5 L 80.5 200 Q 76.33 201.31 78 196.5 L 85.5 190 Z " /><path fill="rgb(60,60,60)" stroke="rgb(60,60,60)" stroke-width="0" opacity="1" d="M 111.5 211 L 124 213 L 124 216 L 115.5 216 L 110 213.5 L 111.5 211 Z " /><path fill="rgb(247,247,247)" stroke="rgb(247,247,247)" stroke-width="0" opacity="1" d="M 0 0 L 264 0 L 264 254 L 0 254 L 0 0 Z M 124 22 L 116 24 L 111 27 L 106 26 L 98 26 L 91 28 L 84 32 L 78 38 L 73 38 L 61 44 Q 55 49 52 57 L 43 62 L 36 70 L 32 79 L 32 84 Q 22 90 20 105 Q 18 111 21 113 L 21 117 L 18 122 L 16 130 Q 16 142 21 149 L 20 154 L 20 161 L 22 169 L 32 182 L 32 187 L 38 199 Q 43 205 51 207 L 56 217 L 64 223 L 73 227 L 78 227 L 84 233 L 98 239 L 106 239 L 107 238 L 111 238 L 116 241 L 125 243 L 138 241 L 143 238 L 148 239 L 156 239 L 163 237 L 170 233 L 176 227 Q 187 227 193 221 Q 199 217 201 209 L 211 203 L 217 196 L 221 187 L 221 182 Q 231 175 233 161 Q 235 154 232 153 L 232 149 L 235 144 L 237 136 L 237 130 L 235 122 L 232 117 L 233 112 L 233 105 L 231 97 L 227 90 L 221 84 Q 221 72 215 67 Q 211 61 203 58 L 197 49 L 190 42 L 181 38 L 176 38 Q 169 29 156 26 L 148 26 L 147 27 L 143 27 L 138 24 L 130 22 L 124 22 Z " /><path fill="rgb(247,247,247)" stroke="rgb(247,247,247)" stroke-width="0" opacity="1" d="M 123.5 26 L 134.5 27 L 138 29.5 Q 132.39 33.39 121.5 32 L 115 29.5 L 118.5 27 L 123.5 26 Z " /><path fill="rgb(247,247,247)" stroke="rgb(247,247,247)" stroke-width="0" opacity="1" d="M 98.5 30 L 105.5 30 L 110.5 31 L 117.5 35 L 129.5 36 Q 130.75 33.75 135.5 35 L 147.5 30 L 154.5 30 Q 165.84 32.16 172 39.5 Q 175.46 48.54 182.5 54 Q 188.17 59.83 199.5 60 L 211 67 L 216 75.5 L 218 86.5 L 217 87.5 L 217 98.5 L 220 107.5 L 230 119.5 L 233 129.5 L 233 134.5 Q 230.75 135.75 232 140.5 L 229 146.5 Q 221.7 152.7 218 162.5 L 217 176.5 L 218 180.5 L 214 193.5 L 205.5 202 Q 200.08 205.57 191.5 206 L 183.5 210 L 177 216.5 L 169.5 228 L 159.5 234 L 148.5 235 L 140.5 233 L 135.5 230 L 123.5 229 L 112.5 232 L 110.5 234 L 98.5 235 L 93.5 234 L 83 228 L 83 226 Q 80.33 227.13 81 224.5 Q 77.39 216.11 70.5 211 L 61.5 206 L 57.5 206 L 47.5 202 L 40 194.5 Q 34.93 188.57 35 177.5 L 36 176.5 L 36 166.5 L 33 157.5 Q 25.41 150.59 21 140.5 L 20 129.5 L 23 119.5 Q 30.99 112.99 35 102.5 L 36 87.5 L 35 84.5 L 39 71.5 L 47.5 63 L 67.5 56 L 77 47.5 L 81 39 L 83 39 Q 81.88 36.33 84.5 37 L 87.5 34 L 98.5 30 Z M 146 34 L 145 42 L 137 42 L 136 41 L 117 41 L 99 45 L 97 38 L 93 35 L 92 38 L 95 46 L 91 48 L 89 48 Q 86 49 87 46 L 83 43 L 84 52 L 68 62 L 54 77 L 47 72 Q 41 71 43 75 L 51 81 Q 41 95 36 116 Q 38 122 32 120 L 30 123 L 34 124 L 35 126 L 35 134 L 33 136 L 25 136 L 26 139 L 35 139 L 38 158 L 44 174 L 46 176 L 42 180 L 44 182 L 48 180 L 52 186 L 52 188 L 48 190 Q 44 191 45 195 L 49 195 L 56 190 L 57 193 Q 72 211 97 219 L 94 227 Q 93 230 96 231 Q 100 228 100 221 L 119 224 L 135 224 L 146 222 L 149 229 L 151 228 L 150 221 L 160 218 L 165 226 L 167 225 L 164 218 L 165 215 Q 177 211 186 203 L 200 188 L 207 193 Q 211 195 210 191 L 203 186 L 203 183 L 212 167 L 218 143 Q 215 135 222 137 L 223 135 L 220 133 Q 216 132 218 126 Q 219 123 224 124 L 225 122 Q 223 118 217 120 Q 214 95 201 80 L 205 77 L 209 73 L 209 70 L 207 70 L 203 73 L 200 76 L 199 75 Q 196 76 197 74 L 181 58 L 163 48 L 166 41 L 164 39 L 160 46 L 149 44 L 150 36 L 146 34 Z " /><path fill="rgb(247,247,247)" stroke="rgb(247,247,247)" stroke-width="0" opacity="1" d="M 72.5 42 Q 75.13 41.17 74 44.5 L 69.5 50 Q 64.41 54.69 57 56 L 57 53.5 L 61.5 48 L 72.5 42 Z " /><path fill="rgb(247,247,247)" stroke="rgb(247,247,247)" stroke-width="0" opacity="1" d="M 179 42 Q 190.52 44.12 196 53.5 Q 197.13 56.83 194.5 56 L 183 50 L 183 48 Q 180.33 49.13 181 46.5 Q 178.25 45.42 179 42 Z " /><path fill="rgb(247,247,247)" stroke="rgb(247,247,247)" stroke-width="0" opacity="1" d="M 114.5 45 L 138.5 45 L 155.5 49 Q 177.46 57.54 192 73.5 L 194 76.5 Q 206.4 90.1 212 110.5 L 214 120.5 L 214 143.5 L 213 148 Q 209.25 149.5 210 146.5 L 209 144.5 L 210 143.5 L 211 129.5 L 210 128.5 L 209 115.5 L 207.5 114 L 205 115.5 L 207 134.5 L 206 135.5 L 206 144 L 196.5 143 L 185.5 136 L 179.5 136 L 171 128.5 L 170 113.5 L 168 109.5 L 168 102.5 L 163 92.5 L 158.5 88 Q 155 85.5 147.5 87 L 134.5 82 L 125.5 82 L 113.5 91 Q 110.57 88.43 104.5 89 L 99 92.5 L 95.5 100 L 92 102.5 Q 88.67 106.17 90 114.5 L 88 116.5 L 87 128.5 L 91 133.5 Q 90.5 136.5 86.5 136 L 84.5 135 L 71.5 143 Q 70.25 138.75 63.5 140 L 48 149 L 47 146.5 L 46 131.5 L 44.5 130 L 42 131.5 L 44 151.5 L 41 153 L 39 143.5 L 39 120.5 L 43 103.5 L 46 96.5 L 61 73 Q 63.67 74.13 63 71.5 Q 81.57 51.07 114.5 45 Z M 119 48 L 100 52 L 88 59 L 90 61 L 103 55 L 120 52 L 134 52 L 136 53 L 137 49 L 135 48 L 119 48 Z M 144 51 L 144 53 L 147 55 L 158 58 L 172 66 Q 175 67 174 64 Q 162 53 144 51 Z M 127 59 L 124 62 L 125 65 L 124 69 L 124 71 L 127 75 L 129 72 L 128 69 L 128 67 L 129 64 Q 130 59 127 59 Z M 80 62 L 76 65 Q 71 67 75 69 L 82 66 L 83 64 L 80 62 Z M 102 72 L 100 74 L 103 80 Q 102 84 107 82 L 105 75 L 102 72 Z M 151 72 Q 148 73 148 77 L 148 79 Q 147 81 150 80 L 153 75 Q 154 71 151 72 Z M 67 73 Q 56 82 50 96 Q 45 107 43 122 L 46 123 L 47 122 L 49 110 L 53 99 Q 57 88 65 81 Q 64 78 67 79 L 69 76 Q 70 72 67 73 Z M 186 74 L 184 76 L 194 89 L 196 94 L 200 97 L 201 96 L 199 90 L 193 81 L 186 74 Z M 76 80 L 74 82 L 87 95 Q 90 96 89 93 L 76 80 Z M 177 80 L 168 90 L 171 91 L 179 82 L 177 80 Z M 203 100 L 201 102 L 204 108 L 206 107 L 205 102 L 203 100 Z M 68 106 L 66 109 L 69 111 L 79 115 Q 82 116 81 113 L 79 110 L 68 106 Z M 185 106 L 176 110 L 178 113 L 185 111 L 187 108 L 185 106 Z " /><path fill="rgb(247,247,247)" stroke="rgb(247,247,247)" stroke-width="0" opacity="1" d="M 129.5 85 L 144 89 Q 145.13 91.67 142.5 91 L 133.5 96 L 129.5 94 L 126 100 L 121.5 101 L 114 98 L 115.5 94 Q 120.75 87.75 129.5 85 Z " /><path fill="rgb(247,247,247)" stroke="rgb(247,247,247)" stroke-width="0" opacity="1" d="M 31.5 90 L 32 99.5 L 25.5 111 Q 23 110 24 105.5 Q 26.25 104.25 25 99.5 L 31.5 90 Z " /><path fill="rgb(247,247,247)" stroke="rgb(247,247,247)" stroke-width="0" opacity="1" d="M 221.5 90 L 228 99.5 L 229 109.5 Q 227.5 112.5 226 109.5 L 221 99.5 L 221.5 90 Z " /><path fill="rgb(247,247,247)" stroke="rgb(247,247,247)" stroke-width="0" opacity="1" d="M 150.5 91 Q 158.5 89.5 160 94.5 Q 160.5 99.5 156.5 100 L 152.5 101 Q 151.25 98.75 150 101.5 L 151 107.5 L 152.5 109 L 155 107.5 Q 154.5 103.5 157.5 103 L 161.5 100 Q 165.75 101.75 164 109.5 L 157.5 115 Q 155.75 111.25 154 114.5 Q 152.5 120.5 155.5 122 L 158 120.5 L 159 117 L 165.5 113 L 166 120.5 L 159.5 127 L 158.5 126 L 155 126 L 155 132.5 L 157.5 134 L 161.5 129 L 167 126 L 167 130.5 L 157.5 142 L 145.5 150 L 138.5 152 L 132.5 152 L 118.5 156 L 113.5 149 L 111.5 148 Q 108.75 149.25 111 150.5 L 115 159.5 L 109 164 L 107 159.5 L 91 140.5 L 91 138.5 L 96.5 135 L 98.5 136 L 102.5 135 L 106 131.5 L 111 125.5 L 111 123 L 113.5 123 L 118 118.5 L 119 113.5 L 126.5 103 L 150.5 91 Z M 141 107 L 128 116 L 130 118 L 143 110 Q 144 106 141 107 Z M 146 120 L 135 125 Q 130 127 134 129 L 137 129 L 148 123 Q 150 124 149 122 L 146 120 Z M 146 133 L 135 136 L 137 140 L 148 137 L 149 135 L 146 133 Z " /><path fill="rgb(247,247,247)" stroke="rgb(247,247,247)" stroke-width="0" opacity="1" d="M 103 93 L 110 93 L 110 98.5 L 120 105.5 L 118.5 109 Q 106.53 108.47 101 101.5 L 101 96.5 L 103 93 Z " /><path fill="rgb(247,247,247)" stroke="rgb(247,247,247)" stroke-width="0" opacity="1" d="M 97.5 103 L 104.5 109 L 115 113 L 114 118 L 109.5 119 Q 100.75 116.75 95 111.5 L 94 106.5 L 95 104 L 97.5 103 Z " /><path fill="rgb(247,247,247)" stroke="rgb(247,247,247)" stroke-width="0" opacity="1" d="M 93.5 115 L 107 122.5 Q 108.13 125.83 105.5 125 L 102.5 126 L 93 121 L 92 117.5 L 93.5 115 Z " /><path fill="rgb(247,247,247)" stroke="rgb(247,247,247)" stroke-width="0" opacity="1" d="M 91.5 124 L 99.5 129 L 102 129 Q 103.13 131.67 100.5 131 L 96.5 132 L 91 128.5 L 91.5 124 Z " /><path fill="rgb(247,247,247)" stroke="rgb(247,247,247)" stroke-width="0" opacity="1" d="M 169.5 133 L 176 137 L 177 139.5 L 157 164 L 154.5 164 L 142 155.5 Q 157.19 149.19 167 137.5 L 169.5 133 Z " /><path fill="rgb(247,247,247)" stroke="rgb(247,247,247)" stroke-width="0" opacity="1" d="M 84.5 139 L 88 141.5 L 106 164.5 L 108 169.5 L 98.5 178 L 75 148.5 L 75 145 L 84.5 139 Z " /><path fill="rgb(247,247,247)" stroke="rgb(247,247,247)" stroke-width="0" opacity="1" d="M 181 140 L 185.5 140 L 193 145.5 L 190 151 L 181.5 148 Q 178.75 149.25 181 150.5 Q 180.25 152.75 182.5 152 L 185 153 L 186 155.5 Q 185.25 158.75 180.5 158 L 177 157 Q 176.25 161.25 180 162.5 L 167.5 178 L 159 171.5 L 158 167.5 L 161 163 Q 163.67 164.13 163 161.5 L 181 140 Z " /><path fill="rgb(247,247,247)" stroke="rgb(247,247,247)" stroke-width="0" opacity="1" d="M 65.5 143 L 69 145.5 L 99 184.5 L 99 187.5 L 80.5 207 L 63 193.5 L 61 190.5 L 56 185.5 L 49 174.5 L 43 161.5 L 43 156 L 65.5 143 Z M 86 190 L 78 197 Q 76 201 81 200 L 88 192 L 86 190 Z " /><path fill="rgb(247,247,247)" stroke="rgb(247,247,247)" stroke-width="0" opacity="1" d="M 197.5 147 Q 207.57 147.43 212 153.5 Q 204.7 181.7 185.5 198 Q 176.89 195.61 173 188.5 L 170 184.5 L 170 180.5 L 197.5 147 Z " /><path fill="rgb(247,247,247)" stroke="rgb(247,247,247)" stroke-width="0" opacity="1" d="M 25.5 154 L 32 165.5 L 32 174.5 L 28 171.5 L 25 165.5 L 24 155.5 L 25.5 154 Z " /><path fill="rgb(247,247,247)" stroke="rgb(247,247,247)" stroke-width="0" opacity="1" d="M 227.5 154 Q 230.25 155.25 229 160.5 L 225 171.5 L 221.5 175 L 221 165.5 L 227.5 154 Z " /><path fill="rgb(247,247,247)" stroke="rgb(247,247,247)" stroke-width="0" opacity="1" d="M 134.5 156 L 154 167 Q 154.18 175.86 161.5 179 L 166 181 L 167 186.5 L 175 195.5 L 174 198 L 154.5 208 L 139.5 212 L 131.5 212 L 130 213.5 L 130.5 216 L 137.5 216 L 157.5 211 Q 169.02 206.52 177.5 199 L 180 199 L 181 201.5 L 170.5 209 L 148.5 218 L 137.5 220 L 114.5 220 L 97.5 216 L 84 210 L 85.5 207 L 88.5 207 L 101.5 213 L 103 209.5 L 90 203.5 L 90 201.5 L 101 190.5 Q 103.6 189.1 103 184.5 L 101 181.5 L 111 172.5 Q 113.39 163.89 120.5 160 L 127.5 157 Q 133 158.5 134.5 156 Z M 125 168 L 125 170 L 124 173 L 125 177 L 124 181 L 125 183 Q 124 186 128 184 L 128 176 L 129 175 L 128 172 L 129 170 L 125 168 Z M 144 171 L 142 173 L 142 176 L 147 187 Q 146 189 149 188 Q 150 190 151 188 L 146 174 L 144 171 Z M 114 179 L 109 193 Q 107 197 112 196 L 113 195 L 116 180 L 114 179 Z M 135 189 L 136 198 Q 138 201 139 198 Q 141 192 138 191 Q 139 188 135 189 Z M 112 211 L 110 214 L 116 216 L 124 216 L 124 213 L 112 211 Z " /><path fill="rgb(247,247,247)" stroke="rgb(247,247,247)" stroke-width="0" opacity="1" d="M 57 209 Q 66.5 210.75 72 217.5 L 75 221.5 L 72.5 223 Q 62.5 219.5 57 211.5 L 57 209 Z " /><path fill="rgb(247,247,247)" stroke="rgb(247,247,247)" stroke-width="0" opacity="1" d="M 194.5 209 Q 197.13 208.17 196 211.5 L 190.5 218 L 179 223 L 179 220.5 L 183.5 215 L 194.5 209 Z " /><path fill="rgb(247,247,247)" stroke="rgb(247,247,247)" stroke-width="0" opacity="1" d="M 121.5 233 Q 132.39 231.61 138 235.5 L 134.5 238 L 123.5 239 L 118.5 238 L 115 235.5 L 121.5 233 Z " /></svg>