<svg viewBox="0 0 396 381" version="1.1" xmlns="http://www.w3.org/2000/svg" desc="Created with imagetracer.js version 1.2.6" ><path fill="rgb(251,251,251)" stroke="rgb(251,251,251)" stroke-width="0" opacity="1" d="M 0 0 L 396 0 L 396 381 L 0 381 L 0 0 Z M 179 33 L 167 39 L 142 39 L 140 41 L 134 42 L 128 45 L 116 56 L 106 57 L 90 66 L 78 80 L 77 84 L 63 93 Q 50 102 47 121 L 47 126 L 45 126 L 45 128 L 42 129 L 33 143 Q 34 149 30 151 L 30 176 L 27 180 Q 27 186 24 189 L 24 209 L 30 221 L 30 246 L 33 252 L 33 255 L 42 268 L 45 270 Q 44 272 47 271 L 48 283 L 57 299 Q 63 307 74 310 L 84 326 L 99 337 Q 104 337 106 340 L 116 341 L 119 343 L 120 346 L 134 355 Q 140 354 142 358 L 168 358 L 171 361 Q 177 360 179 364 L 201 364 L 213 358 L 238 358 L 250 352 Q 253 353 252 351 L 258 346 Q 260 347 259 345 L 264 341 L 275 340 L 289 332 L 297 324 L 301 318 L 301 315 L 306 310 L 309 310 L 317 304 L 328 290 L 331 283 L 332 273 L 334 270 L 337 268 L 346 255 Q 345 248 349 247 L 349 222 L 355 209 L 355 189 L 349 177 L 349 151 L 342 136 L 337 131 Q 338 128 336 129 L 332 125 L 331 114 L 322 99 L 309 87 L 305 86 L 301 83 L 301 80 L 296 73 L 281 60 Q 275 60 274 57 L 264 56 L 259 53 Q 260 50 258 51 L 256 48 L 239 39 L 212 39 L 209 36 Q 203 36 201 33 L 179 33 Z " /><path fill="rgb(251,251,251)" stroke="rgb(251,251,251)" stroke-width="0" opacity="1" d="M 181.5 40 L 197.5 40 L 205 43.5 Q 205.58 46.25 199.5 45 L 192.5 48 L 187.5 48 L 179.5 45 L 175.5 45 L 174 43.5 L 181.5 40 Z " /><path fill="rgb(251,251,251)" stroke="rgb(251,251,251)" stroke-width="0" opacity="1" d="M 144.5 46 L 160.5 46 L 166.5 49 L 169.5 49 L 173.5 52 L 178.5 52 L 185.5 55 L 193.5 55 L 200.5 52 L 205.5 52 L 217.5 46 L 234.5 46 Q 247.54 48.96 255 57.5 L 257 60.5 L 267 76 L 270 77.5 Q 269.25 79.75 271.5 79 L 284.5 88 L 288.5 88 L 294.5 91 L 299.5 91 L 306.5 94 L 318 104.5 L 324 115.5 L 325 131.5 L 324 132.5 L 324 145.5 L 330 162.5 L 337.5 172 Q 339.75 171.25 339 173.5 L 345 181.5 L 345 184.5 L 348 190.5 L 348 206.5 L 342 220.5 Q 332.6 228.6 327 240.5 L 327 244.5 L 324 250.5 L 324 264.5 L 325 265.5 L 325 273.5 Q 322.25 275.25 324 281.5 L 320 289.5 L 310.5 300 L 299.5 306 L 293.5 306 Q 290.54 309.04 284.5 309 L 270 318 L 268.5 321 Q 266.25 320.25 267 322.5 L 252.5 342 L 238.5 350 Q 230.6 352.6 218.5 351 L 212.5 348 L 209.5 348 L 205.5 345 L 201.5 345 L 193.5 342 L 188.5 342 L 178.5 345 L 173.5 345 L 169.5 348 L 166.5 348 L 160.5 351 L 143.5 351 L 138.5 348 L 133.5 347 L 125 341 L 123.5 338 Q 121.25 338.75 122 336.5 L 118 331.5 L 115 324 L 112 322.5 Q 112.75 320.25 110.5 321 L 109 318 L 95.5 309 L 89.5 309 Q 86.63 304.87 78.5 306 L 68.5 300 L 64 295.5 Q 64.75 293.25 62.5 294 L 55 281.5 L 54 265.5 L 55 264.5 L 55 250.5 L 49 234.5 L 41.5 225 Q 39.25 225.75 40 223.5 L 34 215.5 L 34 212.5 L 31 206.5 L 31 190.5 L 37 176.5 L 44.5 168 Q 47.12 168.83 46 165.5 L 52 156.5 L 52 152.5 L 55 146.5 L 55 132.5 L 54 131.5 L 54 123.5 Q 56.75 121.75 55 115.5 L 61 104.5 L 65.5 100 Q 67.75 100.75 67 98.5 L 79.5 91 L 84.5 91 Q 87.33 87.33 94.5 88 L 109 79 L 110.5 76 Q 112.75 76.75 112 74.5 L 121 61.5 L 130.5 52 L 144.5 46 Z M 221 49 L 216 57 L 216 63 L 201 60 L 179 60 Q 177 63 171 61 L 167 63 L 159 63 L 148 66 L 148 62 Q 145 59 145 54 L 142 51 L 138 53 L 138 60 L 141 63 L 142 68 Q 139 71 134 72 L 128 64 Q 124 63 123 66 Q 122 72 126 75 L 125 77 L 112 84 L 99 93 L 98 96 Q 95 95 96 98 L 89 104 Q 90 106 87 105 L 81 114 L 79 114 L 69 106 L 64 106 L 63 111 L 75 120 L 75 123 L 63 142 L 60 153 L 57 158 L 57 163 L 54 168 Q 55 176 52 180 L 45 180 L 45 185 L 52 189 L 51 190 L 51 201 L 50 202 L 39 203 Q 35 204 36 208 L 40 210 L 50 209 L 53 217 L 54 230 Q 58 232 57 240 L 66 262 L 68 264 Q 65 263 66 266 L 61 269 L 65 274 L 70 271 Q 75 271 75 275 Q 74 278 77 277 L 77 280 L 69 285 L 68 288 Q 65 287 66 291 L 70 293 L 74 292 L 81 286 L 84 286 L 87 291 Q 86 293 89 292 L 90 295 L 93 297 Q 92 299 95 298 L 96 301 L 112 313 Q 121 316 127 322 L 144 330 Q 145 336 141 338 L 141 346 L 146 346 L 148 344 L 148 339 L 151 331 L 159 334 L 167 334 L 178 337 L 201 337 L 213 334 L 218 334 Q 220 336 219 342 L 225 344 L 227 341 Q 224 339 226 333 L 236 328 L 240 328 L 243 334 L 243 337 L 247 340 L 250 339 L 250 332 Q 246 330 247 325 L 257 319 Q 260 320 259 317 L 264 316 L 279 304 L 282 302 L 283 300 L 286 298 L 291 292 Q 293 293 292 291 L 295 289 L 298 283 L 302 283 L 311 290 L 315 290 L 316 287 L 304 277 L 319 249 L 319 246 L 322 240 L 322 236 L 325 230 L 325 222 L 327 217 L 328 207 Q 329 204 334 205 L 335 203 L 334 200 Q 333 197 328 198 L 327 189 L 329 187 L 336 186 L 338 183 L 336 179 L 328 180 L 325 176 L 325 167 L 322 162 L 321 155 L 319 153 L 319 149 L 303 119 L 312 112 L 315 107 L 312 104 L 308 105 L 306 108 L 298 112 L 292 106 L 288 102 L 286 100 L 282 96 L 280 93 L 261 80 Q 258 81 259 78 L 245 72 L 247 69 L 247 65 L 249 63 L 249 58 L 245 57 L 240 64 Q 241 68 239 69 L 232 66 L 227 66 L 223 64 L 223 60 L 226 53 L 221 49 Z " /><path fill="rgb(251,251,251)" stroke="rgb(251,251,251)" stroke-width="0" opacity="1" d="M 106.5 64 Q 111.9 62.13 111 65.5 L 102.5 75 L 92.5 81 L 87.5 82 L 87 79.5 L 94.5 71 L 106.5 64 Z " /><path fill="rgb(251,251,251)" stroke="rgb(251,251,251)" stroke-width="0" opacity="1" d="M 268 64 L 272.5 64 L 278.5 67 L 288 74.5 Q 287.25 76.75 289.5 76 L 293 82 L 286.5 81 L 280.5 78 L 271 69.5 L 268 64 Z " /><path fill="rgb(251,251,251)" stroke="rgb(251,251,251)" stroke-width="0" opacity="1" d="M 180.5 67 L 197.5 67 L 210.5 70 L 217.5 70 L 232.5 74 L 234.5 76 L 237.5 76 L 256.5 85 L 285 108.5 L 296 121.5 L 302 130.5 L 303 135 Q 305.67 133.88 305 136.5 L 315 158.5 L 315 163.5 L 318 171.5 L 318 177.5 L 321 188.5 L 321 208.5 L 318 221 L 315 219.5 L 316 214.5 L 316 181.5 L 313 171 Q 307.63 169.5 306 172.5 L 309 182.5 L 309 214.5 L 305.5 216 L 300.5 213 L 292 213 L 290.5 210 L 283.5 207 L 280.5 204 L 268 203 Q 269.13 200.33 266.5 201 L 258 193.5 L 256 188.5 L 256 170.5 Q 251.33 165.67 253 154.5 L 247 145.5 L 244 136.5 L 239.5 132 L 234.5 129 L 226.5 129 L 224.5 130 L 219.5 129 L 214.5 126 L 210.5 126 L 205.5 123 L 193.5 121 L 185.5 123 L 173.5 133 Q 172.1 135.6 167.5 135 L 157.5 132 L 149 136.5 L 142.5 149 L 138 151.5 L 135 156.5 L 135 169.5 L 132 172.5 L 132 180.5 Q 127.29 183.29 129 192.5 L 135 200.5 L 130.5 203 L 127.5 201 L 109.5 213 L 106.5 213 Q 104.61 207.89 96.5 209 L 75.5 222 L 73.5 222 L 70 216.5 L 70 196.5 L 68.5 195 Q 63.12 194.37 63 195.5 L 63 216.5 Q 66.75 220.75 66 228 Q 62.19 229 61 226.5 L 61 219.5 L 58 207.5 L 58 189.5 L 61 177.5 L 61 170.5 L 67 150.5 L 70 146.5 L 70 143.5 Q 79.28 123.78 93.5 109 L 97 106.5 L 99.5 103 L 109 95.5 Q 108.25 93.25 110.5 94 L 128.5 82 L 134.5 79 L 137.5 79 L 141.5 76 L 144.5 76 L 148.5 73 L 153.5 73 L 160.5 70 L 167.5 70 L 180.5 67 Z M 171 72 L 163 75 L 157 75 L 151 78 L 147 78 L 143 81 L 140 81 L 134 84 Q 131 86 132 91 L 138 91 L 142 88 L 149 85 L 153 85 L 158 82 L 164 82 L 173 79 L 205 79 L 207 77 L 206 74 L 205 72 L 171 72 Z M 216 75 L 215 78 L 216 81 Q 217 83 222 82 L 226 85 L 230 85 L 234 88 L 237 88 L 254 97 L 257 100 L 260 100 Q 263 99 262 95 L 251 87 L 239 81 L 236 81 L 232 78 Q 225 79 223 75 L 216 75 Z M 188 88 L 186 90 L 186 111 Q 187 113 192 112 L 193 111 L 193 90 Q 192 87 188 88 Z M 122 92 L 114 96 L 109 101 L 109 103 L 113 105 L 122 100 Q 125 99 124 93 L 122 92 Z M 152 106 L 150 108 L 150 115 Q 154 116 153 122 Q 155 125 160 124 L 160 117 Q 156 115 157 110 Q 157 106 152 106 Z M 226 106 L 222 110 Q 223 115 219 117 L 220 119 L 225 121 Q 229 117 230 111 L 229 108 L 226 106 Z M 101 108 L 98 110 L 96 113 L 93 114 L 75 142 L 69 157 L 69 161 L 66 166 L 66 173 L 63 183 Q 64 187 69 186 L 71 182 Q 70 176 73 175 L 73 167 L 76 163 L 76 159 L 79 153 L 79 150 L 85 138 L 98 120 L 101 118 Q 104 115 105 110 Q 104 107 101 108 Z M 276 111 L 276 116 L 291 135 L 294 142 Q 295 146 301 145 L 302 143 L 301 138 Q 298 137 298 133 L 285 114 Q 282 115 283 113 Q 281 109 276 111 Z M 266 119 L 263 120 L 257 127 L 254 129 Q 251 131 252 136 Q 257 137 259 135 Q 258 132 261 133 L 263 130 Q 265 131 264 129 L 267 127 Q 269 125 268 120 L 266 119 Z M 111 120 Q 109 125 113 127 Q 115 126 114 129 L 117 130 L 119 133 Q 121 132 120 135 L 123 136 L 126 141 L 131 144 L 134 142 L 133 137 L 130 135 L 129 132 Q 126 133 127 131 L 125 129 L 120 123 Q 117 124 118 122 Q 116 118 111 120 Z M 302 150 L 300 152 L 300 155 L 305 163 L 309 162 L 310 160 L 307 153 L 307 150 L 302 150 Z M 101 158 L 99 159 L 97 163 L 107 169 L 111 169 L 119 173 L 123 171 L 122 168 L 120 165 Q 114 165 113 162 L 109 162 L 101 158 Z M 278 158 L 270 162 L 267 162 L 263 167 L 266 170 L 279 166 Q 282 166 282 161 L 278 158 Z " /><path fill="rgb(251,251,251)" stroke="rgb(251,251,251)" stroke-width="0" opacity="1" d="M 192.5 129 L 203.5 130 L 208.5 133 Q 213.75 131.75 215 134.5 L 199 143 L 197.5 139 L 192 141.5 L 192 143.5 L 186.5 149 L 178.5 150 L 174.5 147 L 172 147 L 172 142 L 173.5 142 L 178 139 Q 176.88 136.33 179.5 137 L 187.5 130 L 192.5 129 Z " /><path fill="rgb(251,251,251)" stroke="rgb(251,251,251)" stroke-width="0" opacity="1" d="M 46.5 136 L 48 138.5 L 47 139.5 L 47 148.5 Q 44.4 149.9 45 154.5 L 39 165 L 37 164.5 L 37 151.5 L 43 139.5 L 46.5 136 Z " /><path fill="rgb(251,251,251)" stroke="rgb(251,251,251)" stroke-width="0" opacity="1" d="M 228.5 136 Q 235.37 135.12 237 139.5 L 239 144.5 Q 236.63 149.63 230.5 151 L 225.5 150 L 224 153.5 Q 226.25 154.75 225 159.5 L 227.5 163 Q 232 164 233 161.5 L 232 158.5 L 241 152.5 Q 240.25 150.25 242.5 151 Q 247.53 153.47 246 162.5 L 235.5 171 L 234 168 L 229 171.5 Q 231.75 176.08 231 183 L 233.5 184 L 237 181.5 Q 237.25 176.75 240.5 175 L 242.5 175 L 247.5 171 Q 250.5 172.5 249 178.5 L 239.5 189 L 235.5 187 L 231 189.5 Q 229.88 197.69 232 201 L 236.5 202 L 239.5 196 L 247 191.5 Q 246.25 189.25 248.5 190 L 250 192.5 L 242 207 Q 239.33 205.88 240 208.5 L 215.5 225 L 210.5 225 L 202.5 228 L 189.5 229 L 182.5 231 L 178 234 L 169.5 222 Q 162.75 219.75 165 226.5 L 172 237.5 L 166.5 244 L 163 242.5 L 148 222 L 145 220.5 L 137 208.5 Q 139.08 204.08 145.5 204 L 147.5 204 L 150.5 204 L 157 200.5 L 161.5 193 L 166 189.5 L 167 185 Q 174.87 184.42 178 177.5 Q 176.25 170.75 179.5 169 L 185 164.5 L 188.5 156 L 197.5 151 L 201 151 Q 199.88 148.33 202.5 149 L 228.5 136 Z M 212 159 L 191 173 L 194 178 L 196 178 L 215 166 Q 217 165 216 162 Q 215 159 212 159 Z M 220 179 L 212 183 L 209 183 L 205 186 L 202 186 L 198 190 Q 197 193 200 194 L 207 193 L 218 187 L 221 187 Q 225 186 224 180 L 220 179 Z M 219 198 Q 216 202 209 201 L 201 206 Q 200 209 203 210 L 216 208 L 224 204 L 223 200 Q 224 196 219 198 Z " /><path fill="rgb(251,251,251)" stroke="rgb(251,251,251)" stroke-width="0" opacity="1" d="M 331 136 L 336 139.5 L 342 152.5 L 342 165 Q 339.33 166.13 340 163.5 L 334 154.5 L 331 136 Z " /><path fill="rgb(251,251,251)" stroke="rgb(251,251,251)" stroke-width="0" opacity="1" d="M 156.5 140 Q 162.5 138.5 164 141.5 Q 163.11 148.39 166.5 151 L 173.5 154 L 176.5 157 L 179 157 L 180 159.5 L 179 162 L 173.5 163 L 155.5 155 L 151 150.5 Q 151.53 143.03 156.5 140 Z " /><path fill="rgb(251,251,251)" stroke="rgb(251,251,251)" stroke-width="0" opacity="1" d="M 144.5 156 L 146.5 156 L 153.5 162 L 171 170.5 Q 172.25 175.75 169.5 177 L 162.5 177 L 158.5 174 L 154.5 174 L 151.5 171 L 148.5 171 L 142 166.5 Q 140 158 144.5 156 Z " /><path fill="rgb(251,251,251)" stroke="rgb(251,251,251)" stroke-width="0" opacity="1" d="M 140.5 174 Q 147.92 180.22 159 182 L 160 184.5 Q 159 188 153.5 187 L 148.5 186 L 139 180 Q 137.75 175.4 140.5 174 Z " /><path fill="rgb(251,251,251)" stroke="rgb(251,251,251)" stroke-width="0" opacity="1" d="M 136 187 L 138.5 187 L 146.5 193 L 152 193 L 149.5 197 L 144.5 197 L 136 190.5 L 136 187 Z " /><path fill="rgb(251,251,251)" stroke="rgb(251,251,251)" stroke-width="0" opacity="1" d="M 254.5 200 L 264 207.5 L 264 210.5 L 256.5 219 Q 254.25 218.25 255 220.5 L 233.5 245 L 216.5 234 L 214 234 Q 212.69 230.67 217.5 232 L 245 213.5 L 254.5 200 Z " /><path fill="rgb(251,251,251)" stroke="rgb(251,251,251)" stroke-width="0" opacity="1" d="M 127.5 209 L 150 236.5 L 159 250 Q 161.67 248.88 161 251.5 L 162 253.5 L 156 258 L 154.5 261 Q 152.25 260.25 153 262.5 L 150 264 Q 151.25 267 147.5 266 L 142 258 Q 139.33 259.13 140 256.5 L 112 219.5 L 127.5 209 Z " /><path fill="rgb(251,251,251)" stroke="rgb(251,251,251)" stroke-width="0" opacity="1" d="M 274.5 210 L 280.5 212 L 288 217 L 288 219.5 L 283.5 225 L 279.5 225 Q 277.5 221 271.5 221 Q 269 222 270 226.5 L 277 231.5 L 274.5 237 Q 270.12 238.5 271 235.5 Q 270 233 265.5 234 Q 263 235 264 239.5 L 268 242.5 L 267 246.5 L 255 260.5 L 254 264 L 250.5 266 L 238 255.5 L 238 250.5 L 242 245 Q 244.67 246.12 244 243.5 L 248.5 238 Q 250.75 238.75 250 236.5 L 266.5 217 Q 268.75 217.75 268 215.5 L 271 214 L 272.5 211 L 274.5 210 Z " /><path fill="rgb(251,251,251)" stroke="rgb(251,251,251)" stroke-width="0" opacity="1" d="M 97.5 216 L 102 217 L 114 235 Q 116.67 233.88 116 236.5 L 147 276.5 L 147 280.5 L 121.5 309 L 118.5 309 Q 118 305.5 113.5 306 L 94 288.5 L 86.5 279 Q 84.25 279.75 85 277.5 L 79 269.5 L 79 267 L 76 265.5 L 76 262.5 L 73 259.5 L 73 256.5 L 70 253.5 L 70 250.5 L 67 246.5 L 64 235 L 71.5 232 L 88.5 221 L 93 220 L 94.5 217 L 97.5 216 Z M 128 284 L 122 289 Q 123 291 121 290 L 116 296 Q 115 300 118 301 L 123 299 L 126 295 Q 128 296 127 294 L 130 292 L 132 287 L 128 284 Z " /><path fill="rgb(251,251,251)" stroke="rgb(251,251,251)" stroke-width="0" opacity="1" d="M 296.5 220 L 299.5 220 L 303.5 223 L 306.5 223 L 315 227.5 L 317 230.5 L 315 233.5 L 314 241.5 L 312 243.5 L 312 246.5 L 309 250.5 L 309 253.5 L 303 265.5 Q 292.38 282.88 277.5 296 L 268 291 L 266.5 288 Q 264.25 288.75 265 286.5 L 262 285 L 259 279 Q 256.33 280.13 257 277.5 L 255 273.5 L 274 247 L 277 245.5 L 296.5 220 Z " /><path fill="rgb(251,251,251)" stroke="rgb(251,251,251)" stroke-width="0" opacity="1" d="M 37 232 Q 39.67 230.88 39 233.5 L 45 242.5 L 48 259.5 L 46.5 261 L 43 257.5 L 37 244.5 L 37 232 Z " /><path fill="rgb(251,251,251)" stroke="rgb(251,251,251)" stroke-width="0" opacity="1" d="M 340 232 L 342 232.5 L 342 245.5 L 336 257.5 L 332.5 261 L 331 258.5 L 334 242.5 L 340 232 Z " /><path fill="rgb(251,251,251)" stroke="rgb(251,251,251)" stroke-width="0" opacity="1" d="M 196.5 235 Q 204 234 207 236 Q 205.88 238.67 208.5 238 L 230 251.5 L 231 257.5 L 234 262 L 237 263.5 Q 236.25 265.75 238.5 265 L 248 273.5 L 250 280.5 L 259.5 292 Q 261.75 291.25 261 293.5 L 260 296 L 242.5 306 L 232.5 309 L 229.5 312 L 224.5 312 L 218.5 315 L 210.5 315 L 201.5 318 L 194.5 318 L 193 319.5 Q 191.13 324.9 194.5 324 L 195.5 325 L 203.5 325 L 212.5 322 L 219.5 322 L 225.5 319 L 230.5 319 L 234.5 316 L 238.5 316 L 241.5 313 L 244.5 313 L 256 307 Q 254.87 304.33 257.5 305 L 262 302.5 Q 261.25 300.25 263.5 301 L 267.5 299 L 270 300 Q 271.5 303.75 268.5 303 L 256.5 312 L 231.5 323 Q 223.23 323.23 218.5 327 L 210.5 327 L 195.5 330 L 193.5 329 L 192.5 330 L 181.5 330 L 168.5 327 L 161.5 327 L 154.5 324 L 150.5 324 L 132.5 317 L 127 313.5 L 128.5 310 L 141.5 316 L 144.5 316 L 148.5 319 L 154.5 319 Q 156.75 318.25 156 314.5 L 153.5 312 L 142.5 309 L 139.5 306 Q 135.75 306.75 135 304.5 L 139 298 L 142 296.5 L 154 283.5 L 155 277.5 L 153 271.5 L 168 257.5 L 169 251.5 L 170.5 250 Q 172.75 250.75 172 248.5 L 179.5 241 L 196.5 235 Z M 189 251 L 188 252 L 186 253 L 186 275 Q 187 278 191 277 L 193 275 L 193 252 L 189 251 Z M 213 256 L 212 259 L 212 263 L 216 270 L 216 274 Q 220 275 219 281 Q 221 284 226 283 L 226 276 L 223 272 L 223 269 Q 219 266 219 260 Q 218 255 213 256 Z M 170 268 L 165 278 L 165 285 L 162 289 L 162 293 Q 163 296 168 295 L 169 294 L 170 288 L 172 286 L 172 279 L 175 274 L 175 271 Q 174 267 170 268 Z M 204 282 L 201 285 L 201 293 L 204 298 Q 208 299 209 297 L 208 285 L 204 282 Z M 167 315 L 163 320 L 164 322 L 175 325 L 185 325 Q 187 325 187 321 L 185 318 L 172 317 L 167 315 Z " /><path fill="rgb(251,251,251)" stroke="rgb(251,251,251)" stroke-width="0" opacity="1" d="M 86.5 314 L 98.5 319 L 104 323 Q 102.88 325.67 105.5 325 L 111 333 L 106.5 333 L 94 325.5 Q 94.75 323.25 92.5 324 L 86 316.5 L 86.5 314 Z " /><path fill="rgb(251,251,251)" stroke="rgb(251,251,251)" stroke-width="0" opacity="1" d="M 290.5 315 Q 293.83 313.88 293 316.5 L 283.5 327 L 272.5 333 L 268 333 L 272 326 L 275 324.5 Q 274.25 322.25 276.5 323 L 280.5 319 L 290.5 315 Z " /><path fill="rgb(251,251,251)" stroke="rgb(251,251,251)" stroke-width="0" opacity="1" d="M 188.5 349 L 192.5 349 L 199.5 352 L 205 352 L 203.5 355 Q 195.5 359 181.5 357 L 174 354 Q 172.62 350 179.5 352 L 188.5 349 Z " /><path fill="rgb(154,154,154)" stroke="rgb(154,154,154)" stroke-width="0" opacity="1" d="M 178.5 33 L 200.5 33 Q 202.54 36.46 208.5 36 L 211.5 39 L 238.5 39 L 256 48 L 257.5 51 Q 259.75 50.25 259 52.5 L 263.5 56 L 273.5 57 Q 275.33 60.17 280.5 60 L 296 72.5 L 301 79.5 L 301 82.5 L 304.5 86 L 308.5 87 L 322 98.5 L 331 113.5 L 332 124.5 L 335.5 129 Q 337.75 128.25 337 130.5 L 342 135.5 L 349 150.5 L 349 176.5 L 355 188.5 L 355 208.5 L 349 221.5 L 349 246.5 Q 345.44 248.44 346 254.5 L 337 268 L 334 269.5 L 332 272.5 L 331 282.5 L 328 289.5 L 316.5 304 L 308.5 310 L 305.5 310 L 301 314.5 L 301 317.5 L 297 323.5 L 288.5 332 L 274.5 340 L 263.5 341 L 259 344.5 Q 259.75 346.75 257.5 346 L 252 350.5 Q 252.83 353.13 249.5 352 L 237.5 358 L 212.5 358 L 200.5 364 L 178.5 364 Q 176.86 360.14 170.5 361 L 167.5 358 L 141.5 358 Q 139.56 354.44 133.5 355 L 120 346 L 118.5 343 L 115.5 341 L 105.5 340 Q 103.67 336.83 98.5 337 L 84 325.5 L 73.5 310 Q 62.84 306.66 57 298.5 L 48 282.5 L 47 271 Q 44.33 272.13 45 269.5 L 42 268 L 33 254.5 L 33 251.5 L 30 245.5 L 30 220.5 L 24 208.5 L 24 188.5 Q 27.04 185.54 27 179.5 L 30 175.5 L 30 150.5 Q 33.56 148.56 33 142.5 L 42 129 L 45 127.5 L 45 126 L 47 125.5 L 47 120.5 Q 50.3 102.3 62.5 93 L 77 83.5 L 78 79.5 L 89.5 66 L 105.5 57 L 115.5 56 L 127.5 45 L 133.5 42 L 139.5 41 L 141.5 39 L 166.5 39 L 178.5 33 Z M 184 34 L 173 37 L 166 41 L 161 40 L 145 40 L 130 46 L 123 52 Q 120 51 121 54 L 117 57 L 108 58 L 100 61 L 89 69 Q 82 75 78 85 L 65 94 L 62 96 Q 49 106 48 127 L 43 130 L 37 139 L 31 154 Q 29 166 33 173 L 28 182 Q 28 188 25 193 L 25 205 L 28 215 L 33 225 L 31 229 L 31 242 L 33 250 L 37 259 L 43 267 L 46 269 Q 45 271 48 270 Q 50 273 49 281 L 52 289 L 58 297 L 60 300 Q 66 307 77 310 L 85 324 L 87 327 L 100 336 L 113 340 L 115 339 L 118 340 L 121 345 L 135 354 Q 141 354 145 357 L 160 357 L 164 355 L 173 360 L 184 363 L 196 363 L 207 360 L 214 356 L 219 357 L 235 357 L 250 351 L 257 345 Q 259 346 258 344 L 262 340 L 272 339 L 280 336 L 289 330 Q 297 324 300 314 L 305 309 Q 311 308 315 303 Q 317 304 316 301 L 319 300 Q 318 297 321 298 L 327 289 L 331 275 L 331 270 Q 334 271 333 269 L 336 267 L 342 259 L 348 244 L 348 229 L 347 228 L 347 223 L 351 216 Q 351 209 354 205 L 354 193 Q 351 188 351 182 L 346 173 L 348 168 L 348 155 L 346 148 L 342 139 L 336 130 L 333 129 Q 334 126 331 127 L 330 116 L 321 100 Q 314 91 304 87 L 291 69 Q 288 70 289 67 L 280 61 L 272 58 L 267 58 L 265 58 L 263 57 Q 260 58 261 55 L 258 54 Q 259 51 257 52 L 255 49 L 245 43 Q 238 43 236 40 L 219 40 L 218 41 L 214 41 L 207 37 L 196 34 L 184 34 Z " /><path fill="rgb(154,154,154)" stroke="rgb(154,154,154)" stroke-width="0" opacity="1" d="M 187.5 38 L 199.5 39 L 207 42 L 205.5 46 L 201.5 46 L 193.5 49 L 185.5 49 L 177.5 46 L 173.5 46 L 172 44.5 L 174.5 41 L 187.5 38 Z M 182 40 L 174 44 L 176 45 L 180 45 L 188 48 L 193 48 L 200 45 Q 206 46 205 44 L 198 40 L 182 40 Z " /><path fill="rgb(154,154,154)" stroke="rgb(154,154,154)" stroke-width="0" opacity="1" d="M 148.5 44 L 162.5 45 L 175.5 51 L 190.5 53 L 191.5 52 L 203.5 51 L 216.5 45 L 229.5 44 L 240.5 46 L 252 52 Q 250.88 54.67 253.5 54 L 261 62.5 L 262 66.5 L 268 75 L 271 76.5 Q 270.25 78.75 272.5 78 L 279.5 84 L 286.5 87 L 301.5 90 L 307.5 93 L 319 103.5 Q 328.11 113.89 327 134.5 L 326 135.5 L 326 143.5 L 328 154.5 L 332 162.5 L 343 175.5 L 348 184.5 L 350 200.5 Q 347.25 202.25 349 208.5 L 346 216.5 L 334 231.5 L 328 242.5 L 326 252.5 L 326 262.5 L 327 263.5 L 327 275.5 Q 323.13 292.13 311.5 301 L 303.5 306 L 294.5 309 L 286.5 310 L 274 316 L 272.5 319 L 268 322.5 L 258 338.5 L 253.5 343 L 250.5 345 L 240.5 351 L 224.5 353 L 223.5 352 L 212.5 351 L 210.5 349 L 198.5 345 L 180.5 345 L 175.5 346 L 163.5 352 L 148.5 353 L 134.5 349 L 124 341.5 L 122.5 339 Q 120.25 339.75 121 337.5 L 107.5 319 Q 101.54 312.96 92.5 310 L 88.5 310 L 75.5 306 L 60 293.5 L 54 282.5 L 52 274.5 L 52 262.5 L 53 261.5 L 53 252.5 L 51 242.5 Q 47.83 240.67 48 235.5 L 34 218.5 L 30 208.5 L 29 196.5 L 30 195.5 L 31 184.5 L 34 178.5 L 45 165.5 L 51 154.5 L 53 144.5 L 53 134.5 L 52 133.5 L 52 122.5 Q 55.5 105 67.5 96 L 77.5 90 L 92.5 87 L 108 78 L 109.5 75 Q 111.75 75.75 111 73.5 L 125.5 54 L 138.5 46 L 148.5 44 Z M 145 46 L 131 52 L 121 62 L 112 75 Q 113 77 111 76 L 109 79 L 95 88 Q 87 87 85 91 L 80 91 L 67 99 Q 68 101 66 100 L 61 105 L 55 116 Q 57 122 54 124 L 54 132 L 55 133 L 55 147 L 52 153 L 52 157 L 46 166 Q 47 169 45 168 L 37 177 L 31 191 L 31 207 L 34 213 L 34 216 L 40 224 Q 39 226 42 225 L 49 235 L 55 251 L 55 265 L 54 266 L 55 282 L 63 294 Q 65 293 64 296 L 69 300 L 79 306 Q 87 305 90 309 L 96 309 L 109 318 L 111 321 Q 113 320 112 323 L 115 324 L 118 332 L 122 337 Q 121 339 124 338 L 125 341 L 134 347 L 139 348 L 144 351 L 161 351 L 167 348 L 170 348 L 174 345 L 179 345 L 189 342 L 194 342 L 202 345 L 206 345 L 210 348 L 213 348 L 219 351 Q 231 353 239 350 L 253 342 L 267 323 Q 266 320 269 321 L 270 318 L 285 309 Q 291 309 294 306 L 300 306 L 311 300 L 320 290 L 324 282 Q 322 275 325 274 L 325 266 L 324 265 L 324 251 L 327 245 L 327 241 Q 333 229 342 221 L 348 207 L 348 191 L 345 185 L 345 182 L 339 174 Q 340 171 338 172 L 330 163 L 324 146 L 324 133 L 325 132 L 324 116 L 318 105 L 307 94 L 300 91 L 295 91 L 289 88 L 285 88 L 272 79 Q 269 80 270 78 L 267 76 L 257 61 L 255 58 Q 248 49 235 46 L 218 46 L 206 52 L 201 52 L 194 55 L 186 55 L 179 52 L 174 52 L 170 49 L 167 49 L 161 46 L 145 46 Z " /><path fill="rgb(154,154,154)" stroke="rgb(154,154,154)" stroke-width="0" opacity="1" d="M 220.5 49 L 226 52.5 L 223 59.5 L 223 63.5 L 226.5 66 L 231.5 66 L 238.5 69 Q 241 68 240 63.5 L 244.5 57 L 249 58 L 249 62.5 L 247 64.5 L 247 68.5 L 245 72 L 259 78 Q 257.88 80.67 260.5 80 L 280 93 L 281.5 96 L 286 99.5 L 287.5 102 L 292 105.5 L 297.5 112 L 306 108 L 307.5 105 L 311.5 104 L 315 106.5 L 311.5 112 L 303 118.5 L 319 148.5 L 319 152.5 L 321 154.5 L 322 161.5 L 325 166.5 L 325 175.5 L 327.5 180 L 335.5 179 L 338 182.5 L 335.5 186 L 328.5 187 L 327 188.5 L 328 198 Q 332.6 196.75 334 199.5 L 335 202.5 L 334 205 Q 329.4 203.75 328 206.5 L 327 216.5 L 325 221.5 L 325 229.5 L 322 235.5 L 322 239.5 L 319 245.5 L 319 248.5 L 304 276.5 L 316 286.5 L 314.5 290 L 310.5 290 L 301.5 283 L 298 283 L 295 289 L 292 290.5 Q 292.75 292.75 290.5 292 L 285.5 298 L 283 299.5 L 281.5 302 L 278.5 304 L 263.5 316 L 259 317 Q 260.25 320 256.5 319 L 247 324.5 Q 246.36 330.14 250 331.5 L 250 338.5 L 246.5 340 L 243 336.5 L 243 333.5 L 240 328 L 235.5 328 L 226 332.5 Q 224.25 338.75 227 340.5 L 224.5 344 L 219 341.5 Q 220.5 335.5 217.5 334 L 212.5 334 L 200.5 337 L 177.5 337 L 166.5 334 L 158.5 334 L 151 331 L 148 338.5 L 148 343.5 L 145.5 346 L 141 346 L 141 337.5 Q 144.56 335.56 144 329.5 L 126.5 322 Q 120.54 315.96 111.5 313 L 96 301 L 94.5 298 Q 92.25 298.75 93 296.5 L 90 295 L 88.5 292 Q 86.25 292.75 87 290.5 L 84 286 L 80.5 286 L 73.5 292 L 69.5 293 L 66 290.5 Q 64.88 287.17 67.5 288 L 69 285 L 77 279.5 L 77 277 Q 74 278.25 75 274.5 Q 74.5 270.5 69.5 271 L 64.5 274 L 61 268.5 L 66 266 Q 64.88 263.33 67.5 264 L 66 261.5 L 57 239.5 Q 57.67 232.33 54 229.5 L 53 216.5 L 49.5 209 L 39.5 210 L 36 207.5 Q 35.5 203.5 38.5 203 L 49.5 202 L 51 200.5 L 51 189.5 L 52 188.5 L 45 184.5 L 45 180 L 51.5 180 Q 55.43 176.43 54 167.5 L 57 162.5 L 57 157.5 L 60 152.5 L 63 141.5 L 75 122.5 L 75 119.5 L 63 110.5 L 64 106 L 68.5 106 L 78.5 114 L 81 114 L 87 105 Q 89.67 106.13 89 103.5 L 96 97.5 Q 95.25 95.25 97.5 96 L 99 93 L 111.5 84 L 125 77 L 126 74.5 Q 122.25 72.25 123 65.5 Q 123.75 63.25 127.5 64 L 133.5 72 Q 139.29 71.29 142 67.5 L 141 62.5 L 138 59.5 L 138 52.5 L 141.5 51 L 145 53.5 Q 144.54 59.46 148 61.5 L 148 66 L 158.5 63 L 166.5 63 L 170.5 61 Q 176.75 62.75 178.5 60 L 200.5 60 L 216 63 L 216 56.5 L 220.5 49 Z M 220 51 L 218 62 L 216 64 L 200 63 L 199 62 L 169 63 L 154 67 L 149 67 L 145 62 L 144 56 L 142 54 Q 140 52 139 55 L 144 69 L 137 73 L 132 73 L 128 66 L 124 68 Q 128 70 127 77 L 113 85 L 99 97 Q 96 96 97 99 L 94 100 L 93 103 Q 90 102 91 105 L 88 106 L 83 114 L 80 116 L 71 109 L 67 108 L 65 111 L 76 118 L 76 124 L 70 132 L 64 144 L 63 149 L 61 151 L 55 172 L 55 179 L 53 181 L 46 181 L 46 184 L 53 186 L 54 189 L 53 191 L 53 202 L 51 204 L 41 204 L 40 205 Q 37 204 38 207 L 41 208 L 53 208 L 54 210 L 55 226 L 58 234 L 58 238 L 60 240 L 61 247 L 67 259 Q 66 262 69 261 L 69 265 L 66 267 Q 61 269 65 271 L 72 269 L 76 275 Q 75 277 78 276 L 79 279 L 78 282 L 70 286 L 68 291 L 73 291 L 73 289 L 82 285 L 83 284 L 88 290 Q 87 292 90 291 L 91 294 L 94 296 Q 93 298 96 297 L 97 300 L 113 312 L 128 321 L 131 321 L 145 329 Q 146 336 142 340 Q 141 346 144 345 L 147 341 L 149 333 L 152 330 L 159 331 L 163 333 L 180 334 L 181 335 L 199 335 L 200 334 L 211 334 L 218 332 L 220 335 L 221 341 L 225 342 Q 226 336 223 333 Q 230 328 240 326 Q 244 328 244 335 L 249 338 L 249 334 L 245 326 L 246 324 Q 266 315 281 301 L 282 299 L 285 297 L 288 293 L 291 291 L 299 281 L 303 282 L 311 288 L 313 288 Q 315 289 314 287 L 303 278 L 303 274 Q 311 265 315 254 L 321 238 L 322 230 L 324 226 L 326 205 L 329 204 Q 335 206 333 200 L 327 199 L 325 188 Q 329 183 336 184 L 336 181 L 327 181 L 324 179 L 324 172 L 321 160 L 319 158 L 318 151 L 312 137 L 301 119 L 311 111 L 313 106 L 310 106 L 300 114 L 298 114 L 291 107 L 285 102 L 284 99 L 281 97 L 279 94 L 267 85 L 243 72 L 247 64 Q 249 57 244 59 L 240 70 L 235 70 Q 229 66 222 66 L 223 53 L 220 51 Z " /><path fill="rgb(154,154,154)" stroke="rgb(154,154,154)" stroke-width="0" opacity="1" d="M 109.5 62 Q 114.08 60.65 112 66.5 L 103.5 76 L 93.5 82 L 84 84 Q 86.02 74.82 93.5 70 L 109.5 62 Z M 107 64 L 95 71 L 87 80 L 88 82 L 93 81 L 103 75 L 111 66 Q 112 62 107 64 Z " /><path fill="rgb(154,154,154)" stroke="rgb(154,154,154)" stroke-width="0" opacity="1" d="M 268.5 62 L 273.5 63 L 286 70.5 Q 285.25 72.75 287.5 72 Q 294.23 75.86 295 84 Q 278.4 81.82 270 70.5 L 267 66.5 L 267 63.5 L 268.5 62 Z M 268 64 L 271 70 L 281 78 L 287 81 L 293 82 L 290 76 Q 287 77 288 75 L 279 67 L 273 64 L 268 64 Z " /><path fill="rgb(154,154,154)" stroke="rgb(154,154,154)" stroke-width="0" opacity="1" d="M 177.5 66 L 201.5 66 L 224.5 70 L 241.5 76 L 253.5 82 Q 264.58 87.42 272.5 96 L 276 97 L 277.5 100 L 288 109.5 L 289.5 112 Q 291.75 111.25 291 113.5 Q 301.77 123.96 307 139 Q 310 137.75 309 141.5 L 318 163.5 L 321 178.5 Q 319.5 184 322 185.5 L 322 210.5 L 320 222 L 316.5 223 Q 312 222 313 215.5 L 315 208.5 L 315 189.5 L 312 172 L 308 173.5 L 310 180.5 L 310 215.5 Q 309 218 304.5 217 L 298.5 214 L 291.5 214 L 279.5 205 L 273.5 204 L 268 205 L 266.5 202 L 256 193.5 L 255 184.5 L 253 181.5 L 255 174.5 L 252 166.5 L 250 151.5 Q 244.46 146.54 243 137.5 L 238.5 133 Q 235.21 130.29 228.5 131 L 224.5 132 L 199.5 123 L 191.5 123 Q 180.06 126.56 173.5 135 L 166.5 136 L 165.5 135 L 154.5 135 L 151 136 L 144.5 150 L 138 154.5 Q 134 159.5 136 170.5 L 133 174.5 L 133 182.5 Q 129.36 183.86 130 189.5 Q 131.98 196.52 137 200.5 Q 135 206 125.5 204 L 107.5 215 Q 104.71 210.79 98.5 210 Q 86.48 214.48 77.5 222 L 71.5 224 L 69 217.5 L 69 204.5 Q 66.5 203 68 197.5 L 66.5 196 L 64 197.5 L 64 209.5 L 67 221.5 L 67 227.5 L 61 231 L 57 211.5 L 57 185.5 Q 59.75 183.75 58 177.5 L 61 168.5 L 61 163.5 L 67 146.5 L 82 120 Q 84.67 121.13 84 118.5 L 92.5 108 Q 94.75 108.75 94 106.5 L 100 102 L 101.5 99 Q 105.01 93.96 111 93 Q 109.88 90.33 112.5 91 L 125.5 82 L 147.5 72 L 152.5 72 L 158.5 69 Q 165.21 69.71 168.5 67 L 176.5 67 L 177.5 66 Z M 181 67 L 168 70 L 161 70 L 154 73 L 149 73 L 145 76 L 142 76 L 138 79 L 135 79 L 129 82 L 111 94 Q 108 93 109 96 L 100 103 L 97 107 L 94 109 Q 79 124 70 144 L 70 147 L 67 151 L 61 171 L 61 178 L 58 190 L 58 208 L 61 220 L 61 227 Q 62 229 66 228 Q 67 221 63 217 L 63 196 Q 63 194 69 195 L 70 197 L 70 217 L 74 222 L 76 222 L 97 209 Q 105 208 107 213 L 110 213 L 128 201 L 131 203 L 135 201 L 129 193 Q 127 183 132 181 L 132 173 L 135 170 L 135 157 L 138 152 L 143 149 L 149 137 L 158 132 L 168 135 Q 172 136 174 133 L 186 123 L 194 121 L 206 123 L 211 126 L 215 126 L 220 129 L 225 130 L 227 129 L 235 129 L 240 132 L 244 137 L 247 146 L 253 155 Q 251 166 256 171 L 256 189 L 258 194 L 267 201 Q 269 200 268 203 L 281 204 L 284 207 L 291 210 L 292 213 L 301 213 L 306 216 L 309 215 L 309 183 L 306 173 Q 308 170 313 171 L 316 182 L 316 215 L 315 220 L 318 221 L 321 209 L 321 189 L 318 178 L 318 172 L 315 164 L 315 159 L 305 137 Q 306 134 303 135 L 302 131 L 296 122 L 285 109 L 257 85 L 238 76 L 235 76 L 233 74 L 218 70 L 211 70 L 198 67 L 181 67 Z " /><path fill="rgb(154,154,154)" stroke="rgb(154,154,154)" stroke-width="0" opacity="1" d="M 170.5 72 L 204.5 72 L 206 73.5 L 207 76.5 L 204.5 79 L 172.5 79 L 163.5 82 L 157.5 82 L 152.5 85 L 148.5 85 L 141.5 88 L 137.5 91 L 132 91 Q 130.5 85.63 133.5 84 L 139.5 81 L 142.5 81 L 146.5 78 L 150.5 78 L 156.5 75 L 162.5 75 L 170.5 72 Z M 175 73 L 170 75 L 159 76 L 153 79 L 149 79 L 135 85 Q 132 86 133 90 L 156 81 L 161 81 L 171 78 L 182 78 L 183 77 L 197 77 L 198 78 Q 203 79 205 77 L 204 75 L 203 73 L 175 73 Z " /><path fill="rgb(154,154,154)" stroke="rgb(154,154,154)" stroke-width="0" opacity="1" d="M 216 75 L 222.5 75 Q 224.75 78.75 231.5 78 L 235.5 81 L 238.5 81 L 250.5 87 L 262 94.5 Q 262.75 99.25 259.5 100 L 256.5 100 L 253.5 97 L 236.5 88 L 233.5 88 L 229.5 85 L 225.5 85 L 221.5 82 Q 217 83 216 80.5 L 215 77.5 L 216 75 Z M 219 76 L 217 80 L 241 88 L 258 98 L 259 95 L 244 85 L 219 76 Z " /><path fill="rgb(154,154,154)" stroke="rgb(154,154,154)" stroke-width="0" opacity="1" d="M 187.5 88 Q 192 87 193 89.5 L 193 110.5 L 191.5 112 Q 187 113 186 110.5 L 186 89.5 L 187.5 88 Z M 189 90 L 187 92 L 187 110 L 191 111 L 192 110 L 192 92 L 189 90 Z " /><path fill="rgb(154,154,154)" stroke="rgb(154,154,154)" stroke-width="0" opacity="1" d="M 121.5 92 L 124 93 Q 125.25 98.5 121.5 100 L 112.5 105 L 109 103 L 109 100.5 L 113.5 96 L 121.5 92 Z M 120 94 L 111 101 L 113 103 L 123 97 Q 124 92 120 94 Z " /><path fill="rgb(154,154,154)" stroke="rgb(154,154,154)" stroke-width="0" opacity="1" d="M 151.5 106 Q 156.5 105.5 157 109.5 Q 156.36 115.14 160 116.5 L 160 124 Q 154.5 125.25 153 121.5 Q 153.64 115.86 150 114.5 L 150 107.5 L 151.5 106 Z M 153 108 L 151 110 L 151 113 L 155 121 Q 157 125 159 122 L 159 118 L 153 108 Z " /><path fill="rgb(154,154,154)" stroke="rgb(154,154,154)" stroke-width="0" opacity="1" d="M 225.5 106 L 229 107.5 L 230 110.5 Q 228.75 117.25 224.5 121 L 220 118.5 L 219 116.5 Q 222.64 115.14 222 109.5 L 225.5 106 Z M 227 108 L 222 115 Q 220 119 225 118 L 228 113 Q 229 109 227 108 Z " /><path fill="rgb(154,154,154)" stroke="rgb(154,154,154)" stroke-width="0" opacity="1" d="M 100.5 108 Q 104.25 107.25 105 109.5 Q 104.38 115.38 100.5 118 L 98 119.5 L 85 137.5 L 79 149.5 L 79 152.5 L 76 158.5 L 76 162.5 L 73 166.5 L 73 174.5 Q 70.2 176.2 71 181.5 L 68.5 186 Q 63.5 186.5 63 182.5 L 66 172.5 L 66 165.5 L 69 160.5 L 69 156.5 L 75 141.5 L 93 114 L 96 112.5 L 97.5 110 L 100.5 108 Z M 102 109 L 99 111 L 97 114 L 94 115 L 76 143 L 72 156 L 70 158 L 65 182 L 69 184 L 70 175 L 72 172 L 72 166 L 79 147 L 90 128 L 103 113 L 102 109 Z " /><path fill="rgb(154,154,154)" stroke="rgb(154,154,154)" stroke-width="0" opacity="1" d="M 276 111 Q 281.37 109.5 283 112.5 Q 282.25 114.75 284.5 114 L 298 132.5 Q 297.5 137 301 137.5 L 302 142.5 L 301 145 Q 295.44 146 294 141.5 L 291 134.5 L 276 115.5 L 276 111 Z M 277 112 L 277 115 Q 288 125 295 141 L 300 144 L 300 140 L 297 134 L 284 116 Q 283 111 277 112 Z " /><path fill="rgb(154,154,154)" stroke="rgb(154,154,154)" stroke-width="0" opacity="1" d="M 265.5 119 L 268 120 Q 269.5 125.38 266.5 127 L 264 128.5 Q 264.75 130.75 262.5 130 L 261 133 Q 258.33 131.88 259 134.5 Q 257.37 137.5 252 136 Q 250.5 130.63 253.5 129 L 256.5 127 L 262.5 120 L 265.5 119 Z M 264 121 L 253 133 L 253 135 L 256 135 L 267 125 Q 269 119 264 121 Z " /><path fill="rgb(154,154,154)" stroke="rgb(154,154,154)" stroke-width="0" opacity="1" d="M 111 120 Q 116.38 118.5 118 121.5 Q 117.25 123.75 119.5 123 L 124.5 129 L 127 130.5 Q 126.25 132.75 128.5 132 L 130 135 L 133 136.5 L 134 141.5 L 130.5 144 L 126 140.5 L 122.5 136 L 120 134.5 Q 120.75 132.25 118.5 133 L 117 130 L 114 128.5 Q 114.75 126.25 112.5 127 Q 109.5 125.37 111 120 Z M 112 121 L 112 124 L 131 142 L 133 141 L 117 124 L 117 122 L 112 121 Z " /><path fill="rgb(154,154,154)" stroke="rgb(154,154,154)" stroke-width="0" opacity="1" d="M 191.5 127 L 198.5 127 L 210.5 132 L 217 133 L 213.5 138 L 201.5 144 L 198.5 144 L 195.5 141 L 194.5 142 Q 191.88 141.17 193 144.5 L 192 147 Q 189.33 145.88 190 148.5 Q 186.58 153.08 176.5 151 L 170 145.5 Q 169.25 141.75 171.5 141 L 191.5 127 Z M 193 129 L 188 130 L 180 137 Q 177 136 178 139 L 174 142 L 172 142 L 172 147 L 175 147 L 179 150 L 187 149 L 192 144 L 192 142 L 198 139 L 199 143 L 215 135 Q 214 132 209 133 L 204 130 L 193 129 Z " /><path fill="rgb(154,154,154)" stroke="rgb(154,154,154)" stroke-width="0" opacity="1" d="M 46 133 Q 48.67 131.88 48 134.5 L 49 135.5 L 49 146.5 L 43 161.5 L 38.5 167 L 35 164.5 L 37 147.5 L 46 133 Z M 47 136 L 43 140 L 37 152 L 37 165 L 39 165 L 45 155 Q 44 150 47 149 L 47 140 L 48 139 L 47 136 Z " /><path fill="rgb(154,154,154)" stroke="rgb(154,154,154)" stroke-width="0" opacity="1" d="M 331 133 Q 333.67 131.88 333 134.5 L 337 138.5 L 342 147.5 L 344 163.5 L 343 167 L 339 165.5 L 331 150.5 L 330 135.5 L 331 133 Z M 331 136 L 334 155 L 340 164 Q 339 166 342 165 L 342 153 L 336 140 L 331 136 Z " /><path fill="rgb(154,154,154)" stroke="rgb(154,154,154)" stroke-width="0" opacity="1" d="M 227.5 135 Q 236.85 133.65 239 139.5 L 241 143.5 L 240 147 L 229 153 Q 230.25 150 226.5 151 Q 223.75 152.25 226 153.5 L 228 162 L 232 160.5 L 231 158.5 L 232 156 L 243.5 150 Q 248.97 153.03 247 163.5 L 240 169 Q 241.13 171.67 238.5 171 L 234.5 172 L 232.5 171 L 231 174.5 L 232 181 L 236 179.5 L 238.5 175 L 246.5 169 L 248.5 169 L 250 170.5 L 250 179.5 L 240.5 190 L 238.5 191 L 233 190 Q 232 196.88 234 200 Q 238.5 201.75 237 196.5 L 246 190.5 Q 245.25 188.25 247.5 189 L 250.5 188 Q 252.75 188.75 252 192.5 Q 246.01 205.51 235.5 214 L 216.5 226 Q 211.9 225.4 210.5 228 L 188.5 231 L 178.5 235 L 168.5 223 Q 165.17 221.88 166 224.5 L 169 231 Q 171.67 229.88 171 232.5 L 174 238.5 L 167.5 246 Q 163 247 162 244.5 L 153 231 Q 150.33 232.13 151 229.5 L 135 208.5 L 142.5 202 Q 155.06 204.06 158 196.5 L 160.5 192 L 163 190.5 Q 162.33 187.88 165 189 L 165 186.5 L 167.5 183 L 170.5 183 L 175 178.5 L 177 175.5 Q 175.5 169.5 178.5 168 L 183 164.5 L 185 157.5 L 188.5 154 L 227.5 135 Z M 229 136 L 203 149 Q 200 148 201 151 L 198 151 L 189 156 L 185 165 L 180 169 Q 176 171 178 178 Q 175 184 167 185 L 166 190 L 162 193 L 157 201 L 151 204 L 148 204 L 146 204 Q 139 204 137 209 L 145 221 L 148 222 L 163 243 L 167 244 L 172 238 L 165 227 Q 163 220 170 222 L 178 234 L 183 231 L 190 229 L 203 228 L 211 225 L 216 225 L 240 209 Q 239 206 242 207 L 250 193 L 249 190 Q 246 189 247 192 L 240 196 L 237 202 L 232 201 Q 230 198 231 190 L 236 187 L 240 189 L 249 179 Q 250 172 248 171 L 243 175 L 241 175 Q 237 177 237 182 L 234 184 L 231 183 Q 232 176 229 172 L 234 168 L 236 171 L 246 163 Q 248 153 243 151 Q 240 150 241 153 L 232 159 L 233 162 Q 232 164 228 163 L 225 160 Q 226 155 224 154 L 226 150 L 231 151 Q 237 150 239 145 L 237 140 Q 235 135 229 136 Z " /><path fill="rgb(154,154,154)" stroke="rgb(154,154,154)" stroke-width="0" opacity="1" d="M 157.5 138 L 164.5 139 L 166 140.5 L 165 144.5 L 169.5 151 L 181 157.5 L 181 160.5 L 176.5 165 L 172.5 165 L 170.5 163 L 165.5 162 L 155.5 157 L 150 151.5 Q 149.48 142.48 154.5 139 L 157.5 138 Z M 157 140 Q 152 143 151 151 L 156 155 L 174 163 L 179 162 L 180 160 L 179 157 L 177 157 L 174 154 L 167 151 Q 163 148 164 142 Q 163 139 157 140 Z " /><path fill="rgb(154,154,154)" stroke="rgb(154,154,154)" stroke-width="0" opacity="1" d="M 301.5 150 L 307 150 L 307 152.5 L 310 159.5 L 309 162 L 304.5 163 L 300 154.5 L 300 151.5 L 301.5 150 Z M 302 151 L 304 158 Q 303 163 307 161 L 308 159 L 306 154 Q 307 149 302 151 Z " /><path fill="rgb(154,154,154)" stroke="rgb(154,154,154)" stroke-width="0" opacity="1" d="M 144.5 154 L 146.5 154 L 156.5 162 L 172 169.5 Q 172.75 175.63 171 178 L 166.5 179 L 153.5 175 L 142 169 L 140 161.5 L 141 157.5 L 144.5 154 Z M 145 156 Q 140 158 142 167 L 149 171 L 152 171 L 155 174 L 159 174 L 163 177 L 170 177 Q 172 176 171 171 L 154 162 L 147 156 L 145 156 Z " /><path fill="rgb(154,154,154)" stroke="rgb(154,154,154)" stroke-width="0" opacity="1" d="M 100.5 158 L 108.5 162 L 112.5 162 Q 114.33 165.17 119.5 165 L 122 167.5 L 123 170.5 L 118.5 173 L 110.5 169 L 106.5 169 L 97 162.5 L 98.5 159 L 100.5 158 Z M 101 160 L 99 162 L 103 165 L 117 171 Q 120 172 121 170 L 120 167 L 113 165 L 111 163 L 108 163 L 104 160 L 101 160 Z " /><path fill="rgb(154,154,154)" stroke="rgb(154,154,154)" stroke-width="0" opacity="1" d="M 277.5 158 L 282 160.5 Q 282.5 165.5 278.5 166 L 265.5 170 L 263 166.5 L 266.5 162 L 269.5 162 L 277.5 158 Z M 277 160 L 265 165 L 267 169 L 277 165 L 280 162 L 277 160 Z " /><path fill="rgb(154,154,154)" stroke="rgb(154,154,154)" stroke-width="0" opacity="1" d="M 211.5 159 Q 215.5 158.5 216 161.5 Q 216.75 165.25 214.5 166 L 195.5 178 L 193.5 178 L 191 172.5 L 211.5 159 Z M 212 161 L 195 171 Q 192 172 193 176 L 212 166 Q 216 164 213 163 Q 214 160 212 161 Z " /><path fill="rgb(154,154,154)" stroke="rgb(154,154,154)" stroke-width="0" opacity="1" d="M 139.5 172 L 154.5 180 L 159.5 181 L 162 183.5 Q 162.5 188.5 158.5 189 Q 143.94 188.56 138 179.5 L 137 176.5 L 139.5 172 Z M 141 174 Q 138 175 139 180 L 149 186 L 154 187 Q 159 188 160 185 L 159 182 Q 148 180 141 174 Z " /><path fill="rgb(154,154,154)" stroke="rgb(154,154,154)" stroke-width="0" opacity="1" d="M 219.5 179 L 224 180 Q 225 185.56 220.5 187 L 217.5 187 L 206.5 193 L 199.5 194 Q 197.25 193.25 198 189.5 L 201.5 186 L 204.5 186 L 208.5 183 L 211.5 183 L 219.5 179 Z M 218 181 L 209 186 L 204 187 L 199 191 L 201 193 L 219 186 L 223 183 Q 222 180 218 181 Z " /><path fill="rgb(154,154,154)" stroke="rgb(154,154,154)" stroke-width="0" opacity="1" d="M 136.5 185 L 148.5 192 Q 153 191 154 193.5 L 150.5 198 L 147.5 199 L 142.5 198 L 135 191.5 Q 133.75 186.25 136.5 185 Z M 136 187 L 136 191 L 145 197 L 150 197 L 152 193 L 147 193 L 139 187 L 136 187 Z " /><path fill="rgb(154,154,154)" stroke="rgb(154,154,154)" stroke-width="0" opacity="1" d="M 218.5 198 Q 223.9 196.12 223 199.5 L 224 203.5 L 215.5 208 L 202.5 210 Q 200.25 209.25 201 205.5 L 208.5 201 Q 215.94 201.94 218.5 198 Z M 220 200 L 204 205 Q 201 207 204 208 L 214 207 L 220 204 Q 223 205 222 202 L 220 200 Z " /><path fill="rgb(154,154,154)" stroke="rgb(154,154,154)" stroke-width="0" opacity="1" d="M 253.5 199 L 261 202 Q 259.88 204.67 262.5 204 L 266 209.5 L 246 234 Q 243.33 232.88 244 235.5 L 239.5 241 Q 237.25 240.25 238 242.5 L 232.5 247 L 212 233.5 L 213.5 231 L 226.5 225 L 239.5 216 L 246 209.5 L 253.5 199 Z M 255 200 L 245 214 L 218 232 Q 213 231 214 234 L 217 234 L 234 245 L 255 221 Q 254 218 257 219 L 264 211 L 264 208 L 255 200 Z " /><path fill="rgb(154,154,154)" stroke="rgb(154,154,154)" stroke-width="0" opacity="1" d="M 126.5 208 Q 131.5 207.5 132 211.5 L 160 249 Q 162.67 247.88 162 250.5 L 163 254.5 L 157 259 L 155.5 262 L 152.5 264 L 149.5 268 Q 144.5 268.5 144 264.5 L 138 255 Q 135.33 256.13 136 253.5 L 111 221.5 L 111 218.5 L 126.5 208 Z M 128 209 L 112 220 L 140 257 Q 139 259 142 258 L 148 266 Q 151 267 150 264 L 153 263 Q 152 260 155 261 L 156 258 L 162 254 L 161 252 Q 162 249 159 250 L 150 237 L 128 209 Z " /><path fill="rgb(154,154,154)" stroke="rgb(154,154,154)" stroke-width="0" opacity="1" d="M 273.5 208 Q 283.84 210.66 290 217.5 L 287.5 223 Q 285.25 222.25 286 224.5 L 285 227 L 281.5 228 L 272.5 222 L 271 225.5 L 279 231.5 L 276 238 L 271.5 238 L 266 236 Q 265.25 239.83 268.5 241 L 270 241 L 270 246 Q 267.33 244.88 268 247.5 L 258 261 Q 255.33 259.88 256 262.5 L 251.5 267 L 249.5 267 L 244 264 Q 245.13 261.33 242.5 262 Q 236.04 259.46 236 250.5 L 247.5 237 Q 249.75 237.75 249 235.5 L 259 223 Q 261.67 224.13 261 221.5 L 265.5 216 Q 267.75 216.75 267 214.5 L 270 213 L 273.5 208 Z M 275 210 L 273 211 L 271 214 L 268 216 Q 269 218 267 217 L 250 237 Q 251 239 249 238 L 244 244 Q 245 246 242 245 L 238 251 L 238 256 L 251 266 L 254 264 L 255 261 L 267 247 L 268 243 L 264 240 Q 263 235 266 234 Q 270 233 271 236 Q 270 238 275 237 L 277 232 L 270 227 Q 269 222 272 221 Q 278 221 280 225 L 284 225 L 288 220 L 288 217 L 281 212 L 275 210 Z " /><path fill="rgb(154,154,154)" stroke="rgb(154,154,154)" stroke-width="0" opacity="1" d="M 97.5 214 L 102 215 L 115 234 Q 117.67 232.88 117 235.5 L 118 238 Q 120.67 236.87 120 239.5 L 148 275.5 L 149 280.5 L 125.5 307 Q 123.25 306.25 124 308.5 L 119.5 311 Q 103.06 301.44 91 287.5 L 79 272.5 L 78 268 Q 75.33 269.13 76 266.5 L 66 247.5 L 63 235.5 L 66.5 232 L 80.5 225 L 97.5 214 Z M 98 216 L 95 217 L 93 220 L 89 221 L 72 232 L 64 235 L 67 247 L 70 251 L 70 254 L 73 257 L 73 260 L 76 263 L 76 266 L 79 267 L 79 270 L 85 278 Q 84 280 87 279 L 94 289 L 114 306 Q 118 306 119 309 L 122 309 L 147 281 L 147 277 L 116 237 Q 117 234 114 235 L 102 217 L 98 216 Z " /><path fill="rgb(154,154,154)" stroke="rgb(154,154,154)" stroke-width="0" opacity="1" d="M 295.5 219 L 303.5 220 L 318 228.5 L 318 232.5 L 315 242.5 L 313 244.5 L 312 250.5 L 300 272.5 L 291 285 Q 288.33 283.88 289 286.5 L 276.5 298 Q 266.75 292.75 260 284.5 L 253 274.5 L 253 272.5 L 265 256 Q 267.67 257.13 267 254.5 L 289 226 Q 291.67 227.13 291 224.5 L 295.5 219 Z M 297 220 L 277 246 L 274 247 L 255 274 L 257 278 Q 256 280 259 279 L 262 285 L 265 287 Q 264 289 267 288 L 268 291 L 278 296 Q 292 283 303 266 L 309 254 L 309 251 L 312 247 L 312 244 L 314 242 L 315 234 L 317 231 L 315 228 L 307 223 L 304 223 L 300 220 L 297 220 Z " /><path fill="rgb(154,154,154)" stroke="rgb(154,154,154)" stroke-width="0" opacity="1" d="M 36 230 L 40 231.5 L 48 246.5 L 49 261.5 L 46.5 263 L 42 258.5 L 37 249.5 L 35 233.5 L 36 230 Z M 37 232 L 37 245 L 43 258 L 47 261 L 48 260 L 45 243 L 39 234 Q 40 231 37 232 Z " /><path fill="rgb(154,154,154)" stroke="rgb(154,154,154)" stroke-width="0" opacity="1" d="M 340.5 230 L 344 232.5 L 343 246.5 L 336 261 L 333 262.5 Q 333.67 265.13 331 264 Q 328.75 260.38 330 251.5 Q 332.63 238.13 340.5 230 Z M 340 232 L 334 243 L 331 259 L 333 261 L 336 258 L 342 246 L 342 233 L 340 232 Z " /><path fill="rgb(154,154,154)" stroke="rgb(154,154,154)" stroke-width="0" opacity="1" d="M 201.5 233 L 207.5 235 L 231 250.5 L 232 256.5 L 238.5 264 L 241 265.5 Q 240.17 268.13 243.5 267 L 249 271 L 250 277.5 L 253 283 Q 255.67 281.88 255 284.5 L 260.5 291 Q 263.5 290.12 262 294.5 L 261 297 Q 255.01 297.96 251.5 303 L 237.5 310 L 234.5 310 L 232.5 312 L 219.5 316 L 214.5 316 L 211.5 318 L 196.5 319 L 195 320.5 L 197.5 324 L 203.5 322 L 216.5 321 L 219.5 319 L 228.5 318 Q 230.44 314.44 236.5 315 L 254.5 306 L 267.5 297 L 271 299.5 L 272 303 L 257.5 313 L 241.5 321 L 238.5 321 L 233.5 324 L 220.5 328 L 214.5 328 L 210.5 330 L 202.5 330 L 201.5 331 L 177.5 331 L 154.5 327 L 133.5 318 L 130 318 Q 131.25 315 127.5 316 L 125 315 L 127.5 309 L 131.5 309 L 142.5 315 L 152.5 318 L 154 315.5 L 153 313 L 148.5 313 L 133 306 L 135 300.5 L 153 281.5 L 153 275.5 L 151 271.5 L 166 257.5 L 169.5 249 Q 171.75 249.75 171 247.5 L 174 246 L 175.5 243 Q 177.75 243.75 177 241.5 L 189.5 235 L 200.5 234 L 201.5 233 Z M 197 235 L 180 241 L 172 249 Q 173 251 171 250 L 169 252 L 168 258 L 153 272 L 155 278 L 154 284 L 142 297 L 139 298 L 135 305 Q 136 307 140 306 L 143 309 L 154 312 L 156 315 Q 157 318 155 319 L 149 319 L 145 316 L 142 316 L 129 310 L 127 314 L 133 317 L 151 324 L 155 324 L 162 327 L 169 327 L 182 330 L 193 330 L 194 329 L 196 330 L 211 327 L 219 327 Q 223 323 232 323 L 257 312 L 269 303 Q 271 304 270 300 L 268 299 L 264 301 Q 261 300 262 303 L 258 305 Q 255 304 256 307 L 245 313 L 242 313 L 239 316 L 235 316 L 231 319 L 226 319 L 220 322 L 213 322 L 204 325 L 196 325 L 195 324 Q 191 325 193 320 L 195 318 L 202 318 L 211 315 L 219 315 L 225 312 L 230 312 L 233 309 L 243 306 L 260 296 L 261 294 Q 262 291 260 292 L 250 281 L 248 274 L 239 265 Q 236 266 237 264 L 234 262 L 231 258 L 230 252 L 209 238 Q 206 239 207 236 Q 204 234 197 235 Z " /><path fill="rgb(154,154,154)" stroke="rgb(154,154,154)" stroke-width="0" opacity="1" d="M 188.5 251 L 193 252 L 193 274.5 L 190.5 277 Q 186.5 277.5 186 274.5 L 186 252.5 L 187.5 252 L 188.5 251 Z M 189 253 L 187 255 L 187 273 L 191 274 L 192 273 L 192 255 L 189 253 Z " /><path fill="rgb(154,154,154)" stroke="rgb(154,154,154)" stroke-width="0" opacity="1" d="M 213 256 Q 217.67 255.25 219 259.5 Q 219.3 265.7 223 268.5 L 223 271.5 L 226 275.5 L 226 283 Q 220.5 284.25 219 280.5 Q 219.64 274.86 216 273.5 L 216 269.5 L 212 262.5 L 212 258.5 L 213 256 Z M 214 258 L 213 261 L 220 279 L 222 281 Q 221 284 225 282 L 225 278 L 217 260 L 214 258 Z " /><path fill="rgb(154,154,154)" stroke="rgb(154,154,154)" stroke-width="0" opacity="1" d="M 169.5 268 Q 174.25 267.25 175 270.5 L 175 273.5 L 172 278.5 L 172 285.5 L 170 287.5 L 169 293.5 L 167.5 295 Q 162.75 295.75 162 292.5 L 162 288.5 L 165 284.5 L 165 277.5 L 169.5 268 Z M 169 270 L 164 292 L 167 293 L 171 283 L 171 278 L 173 272 L 169 270 Z " /><path fill="rgb(154,154,154)" stroke="rgb(154,154,154)" stroke-width="0" opacity="1" d="M 203.5 282 L 208 284.5 L 209 296.5 Q 207.81 299 204 298 L 201 292.5 L 201 284.5 L 203.5 282 Z M 204 285 L 202 287 L 204 296 L 207 297 L 208 295 L 207 287 L 204 285 Z " /><path fill="rgb(154,154,154)" stroke="rgb(154,154,154)" stroke-width="0" opacity="1" d="M 127.5 284 L 132 286.5 L 129.5 292 L 127 293.5 Q 127.75 295.75 125.5 295 L 122.5 299 L 117.5 301 Q 115 300 116 295.5 L 120.5 290 Q 122.75 290.75 122 288.5 L 127.5 284 Z M 128 286 L 120 294 L 118 294 L 118 299 L 123 297 L 125 294 Q 127 295 126 293 L 129 291 L 130 289 Q 131 285 128 286 Z " /><path fill="rgb(154,154,154)" stroke="rgb(154,154,154)" stroke-width="0" opacity="1" d="M 84 313 Q 100.6 315.18 109 326.5 Q 112.86 328.58 112 334 L 105.5 334 L 93 327 Q 94.13 324.33 91.5 325 Q 84.77 321.14 84 313 Z M 87 314 L 86 317 L 93 324 Q 95 323 94 326 L 107 333 L 111 333 L 106 325 Q 103 326 104 323 L 99 319 L 87 314 Z " /><path fill="rgb(154,154,154)" stroke="rgb(154,154,154)" stroke-width="0" opacity="1" d="M 290.5 313 Q 296.8 310.81 295 316.5 L 284.5 328 L 276.5 333 L 267 335 L 267 330.5 L 275.5 321 L 290.5 313 Z M 291 315 L 281 319 L 277 323 Q 274 322 275 325 L 272 326 L 268 333 L 273 333 L 284 327 L 293 317 Q 294 314 291 315 Z " /><path fill="rgb(154,154,154)" stroke="rgb(154,154,154)" stroke-width="0" opacity="1" d="M 166.5 315 L 171.5 317 L 184.5 318 L 187 320.5 Q 187.5 324.5 184.5 325 L 174.5 325 L 164 322 L 163 319.5 L 166.5 315 Z M 166 318 L 166 321 L 183 324 Q 185 323 184 319 L 166 318 Z " /><path fill="rgb(154,154,154)" stroke="rgb(154,154,154)" stroke-width="0" opacity="1" d="M 185.5 348 Q 199.52 346.98 207 352.5 L 204.5 356 L 199.5 358 L 188.5 359 L 187.5 358 L 179.5 358 L 172 353.5 L 173.5 351 L 177.5 351 L 185.5 348 Z M 189 349 L 180 352 Q 173 350 174 354 L 182 357 Q 195 359 204 355 L 205 352 L 200 352 L 193 349 L 189 349 Z " /><path fill="rgb(39,39,39)" stroke="rgb(39,39,39)" stroke-width="0" opacity="1" d="M 183.5 34 L 195.5 34 L 206.5 37 L 213.5 41 L 217.5 41 L 218.5 40 L 235.5 40 Q 238.46 43.04 244.5 43 L 255 49 L 256.5 52 Q 258.75 51.25 258 53.5 L 261 55 Q 259.88 57.67 262.5 57 L 264.5 58 L 266.5 58 L 271.5 58 L 279.5 61 L 289 67 Q 287.88 69.67 290.5 69 L 303.5 87 Q 314.33 91.17 321 99.5 L 330 115.5 L 331 127 Q 333.67 125.88 333 128.5 L 336 130 L 342 138.5 L 346 147.5 L 348 154.5 L 348 167.5 L 346 172.5 L 351 181.5 Q 351.04 188.46 354 192.5 L 354 204.5 Q 351.04 208.54 351 215.5 L 347 222.5 L 347 227.5 L 348 228.5 L 348 243.5 L 342 258.5 L 336 267 L 333 268.5 Q 333.67 271.13 331 270 L 331 274.5 L 327 288.5 L 321 298 Q 318.33 296.88 319 299.5 L 316 301 Q 317.13 303.67 314.5 303 Q 311.1 307.6 304.5 309 L 300 313.5 Q 296.66 324.16 288.5 330 L 279.5 336 L 271.5 339 L 261.5 340 L 258 343.5 Q 258.75 345.75 256.5 345 L 249.5 351 L 234.5 357 L 218.5 357 L 213.5 356 L 206.5 360 L 195.5 363 L 183.5 363 L 172.5 360 L 163.5 355 L 159.5 357 L 144.5 357 Q 141.29 353.71 134.5 354 L 121 345 L 117.5 340 L 114.5 339 L 112.5 340 L 99.5 336 L 87 326.5 L 85 323.5 L 76.5 310 Q 66.14 306.86 60 299.5 L 58 296.5 L 52 288.5 L 49 280.5 Q 50 273 48 270 Q 45.33 271.13 46 268.5 L 43 267 L 37 258.5 L 33 249.5 L 31 241.5 L 31 228.5 L 33 224.5 L 28 214.5 L 25 204.5 L 25 192.5 Q 27.96 188.46 28 181.5 L 33 172.5 Q 29 166 31 153.5 L 37 138.5 L 43 130 L 48 126.5 Q 49.25 105.75 61.5 96 L 64.5 94 L 78 84.5 Q 81.55 75.05 88.5 69 L 99.5 61 L 107.5 58 L 116.5 57 L 121 53.5 Q 120.25 51.25 122.5 52 L 129.5 46 L 144.5 40 L 160.5 40 L 165.5 41 L 172.5 37 L 183.5 34 Z M 188 38 L 175 41 L 172 45 L 174 46 L 178 46 L 186 49 L 194 49 L 202 46 L 206 46 L 207 42 L 200 39 L 188 38 Z M 149 44 L 139 46 L 126 54 L 111 74 Q 112 76 110 75 L 108 78 L 93 87 L 78 90 L 68 96 Q 56 105 52 123 L 52 134 L 53 135 L 53 145 L 51 155 L 45 166 L 34 179 L 31 185 L 30 196 L 29 197 L 30 209 L 34 219 L 48 236 Q 48 241 51 243 L 53 253 L 53 262 L 52 263 L 52 275 L 54 283 L 60 294 L 76 306 L 89 310 L 93 310 Q 102 313 108 319 L 121 338 Q 120 340 123 339 L 124 342 L 135 349 L 149 353 L 164 352 L 176 346 L 181 345 L 199 345 L 211 349 L 213 351 L 224 352 L 225 353 L 241 351 L 251 345 L 254 343 L 258 339 L 268 323 L 273 319 L 274 316 L 287 310 L 295 309 L 304 306 L 312 301 Q 323 292 327 276 L 327 264 L 326 263 L 326 253 L 328 243 L 334 232 L 346 217 L 349 209 Q 347 202 350 201 L 348 185 L 343 176 L 332 163 L 328 155 L 326 144 L 326 136 L 327 135 Q 328 114 319 104 L 308 93 L 302 90 L 287 87 L 280 84 L 273 78 Q 270 79 271 77 L 268 75 L 262 67 L 261 63 L 254 54 Q 251 55 252 52 L 241 46 L 230 44 L 217 45 L 204 51 L 192 52 L 191 53 L 176 51 L 163 45 L 149 44 Z M 110 62 L 94 70 Q 86 75 84 84 L 94 82 L 104 76 L 112 67 Q 114 61 110 62 Z M 269 62 L 267 64 L 267 67 L 270 71 Q 278 82 295 84 Q 294 76 288 72 Q 285 73 286 71 L 274 63 L 269 62 Z M 46 133 L 37 148 L 35 165 L 39 167 L 43 162 L 49 147 L 49 136 L 48 135 Q 49 132 46 133 Z M 331 133 L 330 136 L 331 151 L 339 166 L 343 167 L 344 164 L 342 148 L 337 139 L 333 135 Q 334 132 331 133 Z M 36 230 L 35 234 L 37 250 L 42 259 L 47 263 L 49 262 L 48 247 L 40 232 L 36 230 Z M 341 230 Q 333 238 330 252 Q 329 260 331 264 Q 334 265 333 263 L 336 261 L 343 247 L 344 233 L 341 230 Z M 84 313 Q 85 321 92 325 Q 94 324 93 327 L 106 334 L 112 334 Q 113 329 109 327 Q 101 315 84 313 Z M 291 313 L 276 321 L 267 331 L 267 335 L 277 333 L 285 328 L 295 317 Q 297 311 291 313 Z M 186 348 L 178 351 L 174 351 L 172 354 L 180 358 L 188 358 L 189 359 L 200 358 L 205 356 L 207 353 Q 200 347 186 348 Z " /><path fill="rgb(39,39,39)" stroke="rgb(39,39,39)" stroke-width="0" opacity="1" d="M 220 51 L 223 52.5 L 222 66 Q 229.49 66.23 234.5 70 L 240 70 L 244 59 Q 248.88 57.2 247 63.5 L 243 71.5 L 266.5 85 L 279 94 L 280.5 97 L 283.5 99 L 285 102 L 291 106.5 L 297.5 114 L 299.5 114 L 309.5 106 L 313 106 L 310.5 111 L 301 118.5 L 312 136.5 L 318 150.5 L 319 157.5 L 321 159.5 L 324 171.5 L 324 178.5 L 326.5 181 L 335.5 181 L 336 184 Q 329.05 183.36 325 187.5 L 327 199 L 333 200 Q 335.25 206 328.5 204 L 326 205 L 324 225.5 L 322 229.5 L 321 237.5 L 315 253.5 Q 310.52 265.02 303 273.5 L 303 277.5 L 314 286.5 Q 314.75 288.75 312.5 288 L 310.5 288 L 302.5 282 L 298.5 281 L 291 291 L 288 292.5 L 284.5 297 L 282 298.5 L 280.5 301 Q 265.55 314.55 246 323.5 L 245 325.5 L 249 333.5 L 249 338 L 244 334.5 Q 243.92 328.08 239.5 326 Q 229.57 327.57 223 332.5 Q 226 335.75 225 342 L 221 340.5 L 220 334.5 L 217.5 332 L 210.5 334 L 199.5 334 L 198.5 335 L 180.5 335 L 179.5 334 L 162.5 333 L 158.5 331 L 151.5 330 L 149 332.5 L 147 340.5 L 143.5 345 Q 140.75 345.58 142 339.5 Q 145.83 336.33 145 328.5 L 130.5 321 L 127.5 321 L 112.5 312 L 97 300 L 95.5 297 Q 93.25 297.75 94 295.5 L 91 294 L 89.5 291 Q 87.25 291.75 88 289.5 L 82.5 284 L 81.5 285 L 73 289 L 73 291 L 68 291 L 70 286 L 78 282 L 79 278.5 L 78 276 Q 75.33 277.13 76 274.5 L 71.5 269 L 64.5 271 Q 61 269 65.5 267 L 69 264.5 L 69 261 Q 66 262.25 67 258.5 L 61 246.5 L 60 239.5 L 58 237.5 L 58 233.5 L 55 225.5 L 54 209.5 L 52.5 208 L 40.5 208 L 38 207 Q 36.88 204.33 39.5 205 L 40.5 204 L 50.5 204 L 53 201.5 L 53 190.5 L 54 188.5 L 53 186 L 46 184 L 46 181 L 52.5 181 L 55 178.5 L 55 171.5 L 61 150.5 L 63 148.5 L 64 143.5 L 70 131.5 L 76 123.5 L 76 118 L 65 110.5 L 66.5 108 L 70.5 109 L 79.5 116 L 83 113.5 L 88 106 L 91 104.5 Q 90.25 102.25 92.5 103 L 94 100 L 97 98.5 Q 96.25 96.25 98.5 97 L 112.5 85 L 127 76.5 Q 127.75 69.75 124 67.5 L 127.5 66 L 131.5 73 L 136.5 73 L 144 69 L 139 54.5 Q 140.25 51.75 141.5 54 L 144 55.5 L 145 61.5 L 148.5 67 L 153.5 67 L 168.5 63 L 198.5 62 L 199.5 63 L 215.5 64 L 218 61.5 L 220 51 Z M 178 66 L 177 67 L 169 67 Q 165 70 159 69 L 153 72 L 148 72 L 126 82 L 113 91 Q 110 90 111 93 Q 105 94 102 99 L 100 102 L 94 107 Q 95 109 93 108 L 84 119 Q 85 121 82 120 L 67 147 L 61 164 L 61 169 L 58 178 Q 60 184 57 186 L 57 212 L 61 231 L 67 228 L 67 222 L 64 210 L 64 198 L 67 196 L 68 198 Q 67 203 69 205 L 69 218 L 72 224 L 78 222 Q 86 214 99 210 Q 105 211 108 215 L 126 204 Q 135 206 137 201 Q 132 197 130 190 Q 129 184 133 183 L 133 175 L 136 171 Q 134 159 138 155 L 145 150 L 151 136 L 155 135 L 166 135 L 167 136 L 174 135 Q 180 127 192 123 L 200 123 L 225 132 L 229 131 Q 235 130 239 133 L 243 138 Q 244 147 250 152 L 252 167 L 255 175 L 253 182 L 255 185 L 256 194 L 267 202 L 268 205 L 274 204 L 280 205 L 292 214 L 299 214 L 305 217 Q 309 218 310 216 L 310 181 L 308 174 L 312 172 L 315 190 L 315 209 L 313 216 Q 312 222 317 223 L 320 222 L 322 211 L 322 186 Q 320 184 321 179 L 318 164 L 309 142 Q 310 138 307 139 Q 302 124 291 114 Q 292 111 290 112 L 288 110 L 278 100 L 276 97 L 273 96 Q 265 87 254 82 L 242 76 L 225 70 L 202 66 L 178 66 Z M 192 127 L 172 141 Q 169 142 170 146 L 177 151 Q 187 153 190 149 Q 189 146 192 147 L 193 145 Q 192 141 195 142 L 196 141 L 199 144 L 202 144 L 214 138 L 217 133 L 211 132 L 199 127 L 192 127 Z M 228 135 L 189 154 L 185 158 L 183 165 L 179 168 Q 176 170 177 176 L 175 179 L 171 183 L 168 183 L 165 187 L 165 189 Q 162 188 163 191 L 161 192 L 158 197 Q 155 204 143 202 L 135 209 L 151 230 Q 150 232 153 231 L 162 245 Q 163 247 168 246 L 174 239 L 171 233 Q 172 230 169 231 L 166 225 Q 165 222 169 223 L 179 235 L 189 231 L 211 228 Q 212 225 217 226 L 236 214 Q 246 206 252 193 Q 253 189 251 188 L 248 189 Q 245 188 246 191 L 237 197 Q 239 202 234 200 Q 232 197 233 190 L 239 191 L 241 190 L 250 180 L 250 171 L 249 169 L 247 169 L 239 175 L 236 180 L 232 181 L 231 175 L 233 171 L 235 172 L 239 171 Q 241 172 240 169 L 247 164 Q 249 153 244 150 L 232 156 L 231 159 L 232 161 L 228 162 L 226 154 Q 224 152 227 151 Q 230 150 229 153 L 240 147 L 241 144 L 239 140 Q 237 134 228 135 Z M 158 138 L 155 139 Q 149 142 150 152 L 156 157 L 166 162 L 171 163 L 173 165 L 177 165 L 181 161 L 181 158 L 170 151 L 165 145 L 166 141 L 165 139 L 158 138 Z M 145 154 L 141 158 L 140 162 L 142 169 L 154 175 L 167 179 L 171 178 Q 173 176 172 170 L 157 162 L 147 154 L 145 154 Z M 140 172 L 137 177 L 138 180 Q 144 189 159 189 Q 163 189 162 184 L 160 181 L 155 180 L 140 172 Z M 137 185 Q 134 186 135 192 L 143 198 L 148 199 L 151 198 L 154 194 Q 153 191 149 192 L 137 185 Z M 254 199 L 246 210 L 240 216 L 227 225 L 214 231 L 212 234 L 233 247 L 238 243 Q 237 240 240 241 L 244 236 Q 243 233 246 234 L 266 210 L 263 204 Q 260 205 261 202 L 254 199 Z M 127 208 L 111 219 L 111 222 L 136 254 Q 135 256 138 255 L 144 265 Q 144 269 150 268 L 153 264 L 156 262 L 157 259 L 163 255 L 162 251 Q 163 248 160 249 L 132 212 Q 132 207 127 208 Z M 274 208 L 270 213 L 267 215 Q 268 217 266 216 L 261 222 Q 262 224 259 223 L 249 236 Q 250 238 248 237 L 236 251 Q 236 259 243 262 Q 245 261 244 264 L 250 267 L 252 267 L 256 263 Q 255 260 258 261 L 268 248 Q 267 245 270 246 L 270 241 L 269 241 Q 265 240 266 236 L 272 238 L 276 238 L 279 232 L 271 226 L 273 222 L 282 228 L 285 227 L 286 225 Q 285 222 288 223 L 290 218 Q 284 211 274 208 Z M 98 214 L 81 225 L 67 232 L 63 236 L 66 248 L 76 267 Q 75 269 78 268 L 79 273 L 91 288 Q 103 301 120 311 L 124 309 Q 123 306 126 307 L 149 281 L 148 276 L 120 240 Q 121 237 118 238 L 117 236 Q 118 233 115 234 L 102 215 L 98 214 Z M 296 219 L 291 225 Q 292 227 289 226 L 267 255 Q 268 257 265 256 L 253 273 L 253 275 L 260 285 Q 267 293 277 298 L 289 287 Q 288 284 291 285 L 300 273 L 312 251 L 313 245 L 315 243 L 318 233 L 318 229 L 304 220 L 296 219 Z M 202 233 L 201 234 L 190 235 L 177 242 Q 178 244 176 243 L 174 246 L 171 248 Q 172 250 170 249 L 166 258 L 151 272 L 153 276 L 153 282 L 135 301 L 133 306 L 149 313 L 153 313 L 154 316 L 153 318 L 143 315 L 132 309 L 128 309 L 125 315 L 128 316 Q 131 315 130 318 L 134 318 L 155 327 L 178 331 L 202 331 L 203 330 L 211 330 L 215 328 L 221 328 L 234 324 L 239 321 L 242 321 L 258 313 L 272 303 L 271 300 L 268 297 L 255 306 L 237 315 Q 230 314 229 318 L 220 319 L 217 321 L 204 322 L 198 324 L 195 321 L 197 319 L 212 318 L 215 316 L 220 316 L 233 312 L 235 310 L 238 310 L 252 303 Q 255 298 261 297 L 262 295 Q 263 290 261 291 L 255 285 Q 256 282 253 283 L 250 278 L 249 271 L 244 267 Q 240 268 241 266 L 239 264 L 232 257 L 231 251 L 208 235 L 202 233 Z " /><path fill="rgb(39,39,39)" stroke="rgb(39,39,39)" stroke-width="0" opacity="1" d="M 174.5 73 L 202.5 73 L 204 74.5 L 205 76.5 Q 203.5 79.5 197.5 78 L 196.5 77 L 182.5 77 L 181.5 78 L 170.5 78 L 160.5 81 L 155.5 81 L 133 90 Q 132 86.19 134.5 85 L 148.5 79 L 152.5 79 L 158.5 76 L 169.5 75 L 174.5 73 Z " /><path fill="rgb(39,39,39)" stroke="rgb(39,39,39)" stroke-width="0" opacity="1" d="M 218.5 76 L 243.5 85 L 259 94.5 L 257.5 98 L 240.5 88 L 217 79.5 L 218.5 76 Z " /><path fill="rgb(39,39,39)" stroke="rgb(39,39,39)" stroke-width="0" opacity="1" d="M 188.5 90 L 192 91.5 L 192 109.5 L 190.5 111 L 187 109.5 L 187 91.5 L 188.5 90 Z " /><path fill="rgb(39,39,39)" stroke="rgb(39,39,39)" stroke-width="0" opacity="1" d="M 119.5 94 Q 124.31 92.33 123 96.5 L 112.5 103 L 111 100.5 L 119.5 94 Z " /><path fill="rgb(39,39,39)" stroke="rgb(39,39,39)" stroke-width="0" opacity="1" d="M 152.5 108 L 159 117.5 L 159 121.5 Q 157 125 155 120.5 L 151 112.5 L 151 109.5 L 152.5 108 Z " /><path fill="rgb(39,39,39)" stroke="rgb(39,39,39)" stroke-width="0" opacity="1" d="M 226.5 108 Q 228.75 108.75 228 112.5 L 224.5 118 Q 220.33 119.31 222 114.5 L 226.5 108 Z " /><path fill="rgb(39,39,39)" stroke="rgb(39,39,39)" stroke-width="0" opacity="1" d="M 101.5 109 L 103 112.5 L 90 127.5 L 79 146.5 L 72 165.5 L 72 171.5 L 70 174.5 L 69 184 L 65 181.5 L 70 157.5 L 72 155.5 L 76 142.5 L 94 115 L 97 113.5 L 98.5 111 L 101.5 109 Z " /><path fill="rgb(39,39,39)" stroke="rgb(39,39,39)" stroke-width="0" opacity="1" d="M 277 112 Q 282.56 111 284 115.5 L 297 133.5 L 300 139.5 L 300 144 L 295 140.5 Q 288.38 125.12 277 114.5 L 277 112 Z " /><path fill="rgb(39,39,39)" stroke="rgb(39,39,39)" stroke-width="0" opacity="1" d="M 112 121 L 117 122 L 117 123.5 L 133 140.5 L 130.5 142 L 112 123.5 L 112 121 Z " /><path fill="rgb(39,39,39)" stroke="rgb(39,39,39)" stroke-width="0" opacity="1" d="M 263.5 121 Q 268.75 119.25 267 124.5 L 255.5 135 L 253 135 L 253 132.5 L 263.5 121 Z " /><path fill="rgb(39,39,39)" stroke="rgb(39,39,39)" stroke-width="0" opacity="1" d="M 302 151 Q 307.2 148.92 306 153.5 L 308 158.5 L 307 161 Q 302.5 162.75 304 157.5 L 302 151 Z " /><path fill="rgb(39,39,39)" stroke="rgb(39,39,39)" stroke-width="0" opacity="1" d="M 100.5 160 L 103.5 160 L 107.5 163 L 110.5 163 L 112.5 165 L 120 167 L 121 169.5 Q 120.25 171.75 116.5 171 L 102.5 165 L 99 161.5 L 100.5 160 Z " /><path fill="rgb(39,39,39)" stroke="rgb(39,39,39)" stroke-width="0" opacity="1" d="M 276.5 160 L 280 161.5 L 276.5 165 L 266.5 169 L 265 165 L 276.5 160 Z " /><path fill="rgb(39,39,39)" stroke="rgb(39,39,39)" stroke-width="0" opacity="1" d="M 211.5 161 Q 213.75 160.25 213 162.5 Q 215.75 164.25 211.5 166 L 193 176 Q 192 172.19 194.5 171 L 211.5 161 Z " /><path fill="rgb(39,39,39)" stroke="rgb(39,39,39)" stroke-width="0" opacity="1" d="M 217.5 181 Q 222 180 223 182.5 L 218.5 186 L 200.5 193 L 199 190.5 L 203.5 187 L 208.5 186 L 217.5 181 Z " /><path fill="rgb(39,39,39)" stroke="rgb(39,39,39)" stroke-width="0" opacity="1" d="M 219.5 200 L 222 201.5 Q 223.25 205.25 219.5 204 L 213.5 207 L 203.5 208 Q 200.5 206.5 203.5 205 L 219.5 200 Z " /><path fill="rgb(39,39,39)" stroke="rgb(39,39,39)" stroke-width="0" opacity="1" d="M 188.5 253 L 192 254.5 L 192 272.5 L 190.5 274 L 187 272.5 L 187 254.5 L 188.5 253 Z " /><path fill="rgb(39,39,39)" stroke="rgb(39,39,39)" stroke-width="0" opacity="1" d="M 214 258 L 217 259.5 L 225 277.5 L 225 282 Q 221.25 283.5 222 280.5 L 220 278.5 L 213 260.5 L 214 258 Z " /><path fill="rgb(39,39,39)" stroke="rgb(39,39,39)" stroke-width="0" opacity="1" d="M 169 270 L 173 271.5 L 171 277.5 L 171 282.5 L 166.5 293 L 164 291.5 L 169 270 Z " /><path fill="rgb(39,39,39)" stroke="rgb(39,39,39)" stroke-width="0" opacity="1" d="M 203.5 285 L 207 286.5 L 208 294.5 L 207 297 L 204 295.5 L 202 286.5 L 203.5 285 Z " /><path fill="rgb(39,39,39)" stroke="rgb(39,39,39)" stroke-width="0" opacity="1" d="M 127.5 286 Q 131.25 284.75 130 288.5 L 129 291 L 126 292.5 Q 126.75 294.75 124.5 294 L 123 297 L 118 299 L 118 294 L 119.5 294 L 127.5 286 Z " /><path fill="rgb(39,39,39)" stroke="rgb(39,39,39)" stroke-width="0" opacity="1" d="M 166 318 L 184 319 Q 185 322.81 182.5 324 L 166 321 L 166 318 Z " /></svg>