<svg xmlns="http://www.w3.org/2000/svg" width="512" height="512" viewBox="0 0 1 1"><path fill="#0a733c" d="M 0 0 L 1 0 L 1 0.5608 L 0.9334 0.6285 L 0.9035 0.6424 L 0.8655 0.6458 L 0.8628 0.6493 L 0.8573 0.6458 Q 0.8224 0.6585 0.8043 0.6927 L 0.7989 0.7153 Q 0.7917 0.7114 0.7935 0.7205 L 0.7772 0.7899 L 0.7826 0.8021 Q 0.7726 0.7974 0.7772 0.8177 L 0.7921 0.8542 L 0.803 0.8611 L 0.8071 0.8524 L 0.8043 0.8455 Q 0.8229 0.8362 0.8179 0.7969 L 0.8152 0.7847 L 0.8043 0.776 L 0.8071 0.7726 L 0.8071 0.7448 L 0.8329 0.7049 L 0.8628 0.691 L 0.8736 0.6979 L 0.9103 0.6875 L 0.9144 0.6771 L 0.928 0.6771 L 0.9389 0.6632 L 0.9565 0.6597 L 0.9565 0.6753 L 0.9728 0.7135 L 0.9728 0.7344 Q 0.9611 0.7455 0.9647 0.776 L 0.9823 0.7847 L 1 0.7743 L 1 1 L 0.7514 1 L 0.6712 0.783 L 0.663 0.7448 L 0.7092 0.7031 Q 0.7072 0.6953 0.7133 0.6979 Q 0.7586 0.6464 0.7826 0.5677 L 0.7989 0.4844 L 0.8016 0.4045 L 0.7989 0.401 L 0.7935 0.3385 L 0.7826 0.2969 Q 0.7642 0.2457 0.7323 0.2118 Q 0.704 0.1785 0.6644 0.1597 L 0.6155 0.1424 L 0.5774 0.1389 L 0.5747 0.1354 L 0.2215 0.1354 L 0.2147 0.1476 L 0.2092 0.2274 L 0.1984 0.3038 L 0.1984 0.3316 L 0.1875 0.408 L 0.1875 0.4392 L 0.1766 0.5156 L 0.1712 0.5955 L 0.1685 0.599 L 0.1685 0.6233 L 0.1549 0.7135 L 0.1495 0.7899 L 0.144 0.8073 L 0.144 0.8316 L 0.1386 0.8594 L 0.1386 0.8837 L 0.1332 0.9045 L 0.1332 0.9288 L 0.1223 1 L 0.0707 1 L 0.0707 0.9774 L 0.0761 0.9531 L 0.0842 0.8507 L 0 0.8507 L 0 0.7188 L 0.0693 0.7188 L 0.0734 0.7135 L 0.0924 0.533 L 0.0883 0.5278 L 0 0.5278 L 0 0.4097 L 0.1209 0.4097 L 0.1223 0.3976 L 0.1277 0.3733 L 0.1304 0.3247 L 0.1386 0.276 L 0.1522 0.1354 L 0 0.1354 L 0 0 Z M 0.8315 0.9201 Q 0.8288 0.9271 0.8397 0.9271 Q 0.8424 0.9167 0.8315 0.9201 Z M 0.8587 0.9444 L 0.856 0.9514 L 0.8641 0.9514 L 0.8587 0.9444 Z M 0.4579 0.4063 L 0.5258 0.4097 Q 0.5542 0.4169 0.5679 0.4427 Q 0.5814 0.4655 0.5761 0.5122 Q 0.5686 0.5477 0.5476 0.566 L 0.5122 0.5833 L 0.4008 0.5833 Q 0.3933 0.579 0.3967 0.5608 L 0.3995 0.5573 L 0.413 0.4253 L 0.4198 0.4097 L 0.4552 0.4097 L 0.4579 0.4063 Z M 0.3723 0.7986 L 0.4389 0.8021 L 0.4429 0.8073 L 0.4946 1 L 0.3546 1 L 0.3533 0.9983 L 0.3533 0.974 L 0.3587 0.9497 L 0.3587 0.9219 L 0.3614 0.9184 L 0.3723 0.7986 Z"/><path fill="#ffcd30" d="M 0.3438 0.1493 L 0.3601 0.1597 L 0.4361 0.1597 L 0.4389 0.1563 L 0.4932 0.1493 L 0.5149 0.1563 L 0.5313 0.1493 L 0.538 0.1528 L 0.5421 0.1632 L 0.5557 0.1667 L 0.5625 0.1753 L 0.5639 0.1806 L 0.5679 0.1719 L 0.5652 0.1632 L 0.5965 0.1632 L 0.6128 0.1701 L 0.6454 0.1736 L 0.6617 0.1875 L 0.6889 0.191 L 0.6929 0.1962 L 0.6916 0.2014 L 0.697 0.1979 L 0.6957 0.2031 Q 0.6923 0.2161 0.7024 0.2118 L 0.7079 0.2118 L 0.7174 0.2205 L 0.712 0.2222 L 0.716 0.2326 L 0.7201 0.2344 Q 0.7126 0.2381 0.7147 0.25 L 0.7255 0.2569 Q 0.7233 0.2397 0.7323 0.2326 L 0.7418 0.2483 L 0.7391 0.2552 L 0.7446 0.2674 Q 0.7527 0.263 0.75 0.276 L 0.7432 0.2708 L 0.7391 0.276 Q 0.7321 0.2809 0.7337 0.2969 Q 0.7451 0.3066 0.7432 0.3333 L 0.7486 0.3194 L 0.7527 0.3177 L 0.7473 0.316 L 0.7568 0.2882 Q 0.7639 0.2853 0.7609 0.2969 L 0.7663 0.3108 Q 0.7561 0.3168 0.7649 0.3229 L 0.7772 0.3351 L 0.7799 0.342 L 0.7826 0.4427 L 0.788 0.4705 L 0.7799 0.4913 L 0.7799 0.5087 L 0.7731 0.5347 L 0.7609 0.5313 L 0.7636 0.559 Q 0.7748 0.5544 0.7717 0.566 L 0.7554 0.5764 L 0.7541 0.5694 L 0.7459 0.5764 L 0.7364 0.5729 Q 0.7413 0.6012 0.731 0.6128 L 0.7337 0.6267 L 0.7296 0.625 Q 0.7177 0.6198 0.7201 0.6302 L 0.716 0.6285 Q 0.707 0.6324 0.7092 0.6233 L 0.7052 0.6076 L 0.6984 0.6111 L 0.7011 0.6267 L 0.6929 0.6319 L 0.697 0.6458 Q 0.7042 0.643 0.7011 0.6545 L 0.7038 0.6649 L 0.6929 0.6701 L 0.6957 0.6858 L 0.6889 0.7014 Q 0.6841 0.6884 0.6793 0.6997 Q 0.6814 0.7075 0.6753 0.7049 L 0.6698 0.7049 Q 0.6637 0.7023 0.6658 0.7101 L 0.663 0.717 L 0.6644 0.7222 L 0.6563 0.7153 Q 0.6529 0.7257 0.6413 0.7222 Q 0.6379 0.7326 0.6481 0.7292 Q 0.6569 0.7352 0.6467 0.7413 Q 0.6432 0.7684 0.6549 0.776 L 0.6522 0.7795 L 0.6522 0.8108 L 0.6549 0.8194 L 0.6685 0.8125 L 0.6793 0.8455 L 0.6766 0.8524 L 0.6821 0.8594 L 0.6848 0.8767 L 0.6943 0.8889 L 0.7011 0.8941 L 0.6929 0.9219 L 0.6997 0.934 L 0.7065 0.9288 Q 0.7092 0.9531 0.7228 0.9635 L 0.7228 0.9809 L 0.7201 0.9844 L 0.7283 0.9948 L 0.7269 1 L 0.7079 1 L 0.6997 0.9792 L 0.6916 1 L 0.5177 1 L 0.5082 0.9965 L 0.5082 0.9844 L 0.4946 0.9497 L 0.4973 0.9497 L 0.4986 0.9549 L 0.5 0.9462 Q 0.4925 0.9401 0.4973 0.9184 L 0.5 0.9063 Q 0.4898 0.901 0.4918 0.9115 L 0.4891 0.9115 Q 0.4828 0.9005 0.4864 0.8767 L 0.4864 0.8698 Q 0.4929 0.8451 0.4891 0.8073 L 0.4823 0.7951 L 0.4728 0.8038 L 0.4674 0.8281 L 0.4728 0.8403 L 0.4647 0.8351 L 0.462 0.8142 L 0.4701 0.7969 Q 0.466 0.7865 0.462 0.7969 Q 0.464 0.8073 0.4538 0.8021 L 0.4511 0.7691 L 0.4552 0.7604 L 0.4389 0.7674 L 0.4321 0.7535 L 0.4117 0.75 L 0.3995 0.7535 Q 0.3951 0.7704 0.4103 0.7639 L 0.4103 0.7778 L 0.3954 0.7813 L 0.3791 0.7743 L 0.3668 0.7865 L 0.3587 0.8056 L 0.3505 0.8073 L 0.356 0.8247 L 0.3533 0.8333 L 0.3451 0.8385 L 0.3478 0.8733 L 0.3424 0.8906 L 0.3451 0.8976 L 0.3424 0.901 L 0.3424 0.9323 L 0.3424 0.9392 Q 0.3446 0.9576 0.337 0.9635 L 0.337 1 L 0.3207 0.9983 L 0.3261 0.9878 Q 0.32 0.9835 0.3234 0.967 L 0.3193 0.9618 L 0.3179 1 L 0.1753 1 L 0.1617 0.9896 L 0.1576 1 L 0.1399 1 L 0.1386 0.9948 L 0.144 0.974 L 0.1413 0.9705 L 0.1413 0.9479 Q 0.1504 0.9525 0.1467 0.9358 L 0.1522 0.9219 L 0.1549 0.8872 L 0.1495 0.8663 L 0.1576 0.849 L 0.1603 0.8212 L 0.1576 0.8142 L 0.1698 0.7743 L 0.1739 0.7726 L 0.1739 0.7483 L 0.1712 0.7448 L 0.1712 0.7031 L 0.1821 0.6753 L 0.1821 0.6267 L 0.1875 0.5955 L 0.1848 0.5729 L 0.1957 0.5642 L 0.197 0.5556 L 0.1997 0.5694 L 0.2011 0.5538 L 0.1957 0.5434 L 0.1984 0.526 L 0.1929 0.5191 Q 0.2024 0.5139 0.1957 0.5087 L 0.1929 0.4896 Q 0.2002 0.4857 0.1984 0.4948 L 0.2011 0.4948 L 0.2038 0.4705 L 0.2011 0.4635 Q 0.2092 0.4592 0.2065 0.4444 Q 0.2156 0.4484 0.212 0.434 L 0.2065 0.4323 L 0.2065 0.4063 L 0.2147 0.401 L 0.212 0.3819 Q 0.2201 0.3863 0.2174 0.3733 L 0.2228 0.3594 L 0.2147 0.3542 L 0.212 0.3212 L 0.2174 0.2865 Q 0.2106 0.2813 0.2201 0.276 Q 0.2181 0.2656 0.2283 0.2708 L 0.2283 0.2552 L 0.2255 0.2517 L 0.2228 0.2101 L 0.2255 0.2066 Q 0.2231 0.1776 0.2283 0.1632 L 0.2459 0.1528 L 0.2731 0.1528 L 0.2813 0.1563 L 0.284 0.1528 L 0.341 0.1528 L 0.3438 0.1493 Z M 0.2527 0.1667 L 0.2391 0.1806 L 0.2582 0.191 L 0.269 0.1806 Q 0.288 0.1875 0.2826 0.1701 L 0.2527 0.1667 Z M 0.5217 0.1701 L 0.5272 0.184 Q 0.5353 0.1875 0.5326 0.1806 L 0.5217 0.1701 Z M 0.5435 0.1701 L 0.5353 0.1806 L 0.5353 0.184 L 0.5462 0.184 L 0.5462 0.1701 L 0.5435 0.1701 Z M 0.3967 0.1771 L 0.3967 0.1806 L 0.413 0.1806 L 0.3967 0.1771 Z M 0.4293 0.2396 L 0.4293 0.2639 L 0.4375 0.2639 L 0.4375 0.2396 L 0.4293 0.2396 Z M 0.2201 0.2951 L 0.2201 0.3194 L 0.2283 0.3194 L 0.2283 0.2951 L 0.2201 0.2951 Z M 0.3261 0.3472 Q 0.3179 0.3542 0.3261 0.3576 Q 0.3342 0.3542 0.3261 0.3472 Z M 0.231 0.3576 L 0.231 0.375 L 0.2364 0.375 L 0.2364 0.3576 L 0.231 0.3576 Z M 0.4212 0.3854 Q 0.4049 0.3924 0.4076 0.4236 L 0.4049 0.4236 Q 0.4103 0.4028 0.394 0.4097 L 0.3967 0.4236 L 0.394 0.434 L 0.3995 0.4375 L 0.3913 0.4375 L 0.3886 0.4514 L 0.3913 0.4618 L 0.3886 0.5243 L 0.3859 0.5278 Q 0.3913 0.5486 0.3804 0.5451 L 0.3832 0.5347 L 0.3804 0.5174 L 0.375 0.5069 L 0.3668 0.5208 L 0.3668 0.5313 L 0.3777 0.559 Q 0.3804 0.5729 0.3723 0.5799 L 0.375 0.5868 L 0.3832 0.5799 L 0.3967 0.5938 L 0.394 0.5938 L 0.3967 0.6042 L 0.394 0.6076 L 0.394 0.6146 L 0.3777 0.6146 L 0.3804 0.6354 L 0.3859 0.6319 Q 0.3913 0.6354 0.3886 0.6285 L 0.394 0.6285 L 0.4049 0.625 Q 0.4158 0.6215 0.4185 0.6319 L 0.4348 0.6007 L 0.4348 0.6076 L 0.4429 0.6042 L 0.481 0.6042 L 0.481 0.6111 L 0.4918 0.6042 L 0.5109 0.6042 L 0.5109 0.6111 L 0.5299 0.6181 L 0.5136 0.625 L 0.5217 0.6285 Q 0.5326 0.6319 0.538 0.625 L 0.5571 0.625 L 0.5571 0.6181 Q 0.5543 0.6076 0.5435 0.6111 L 0.538 0.6042 L 0.519 0.6042 L 0.5326 0.5972 Q 0.5408 0.6007 0.538 0.5903 L 0.5679 0.5764 L 0.5625 0.5729 Q 0.5598 0.5625 0.5679 0.566 L 0.5707 0.5729 Q 0.5815 0.566 0.5788 0.5451 L 0.5897 0.5417 L 0.5842 0.5313 Q 0.587 0.5208 0.5924 0.5278 L 0.5951 0.5069 Q 0.5924 0.4965 0.6033 0.5 L 0.6087 0.4792 L 0.6033 0.4583 L 0.6005 0.4722 Q 0.5978 0.4826 0.5924 0.4722 L 0.5924 0.4479 L 0.587 0.4444 L 0.587 0.4375 L 0.5788 0.4271 L 0.5734 0.4201 L 0.587 0.4097 L 0.5707 0.4063 Q 0.5625 0.3924 0.5571 0.4097 Q 0.5489 0.4132 0.5516 0.3993 L 0.5272 0.3924 Q 0.519 0.3958 0.5217 0.3854 L 0.5082 0.3889 L 0.4946 0.3854 Q 0.4783 0.3819 0.4755 0.3889 L 0.4212 0.3854 Z M 0.2609 0.4063 L 0.2554 0.4132 L 0.2554 0.4549 L 0.2609 0.4549 L 0.2582 0.434 L 0.2609 0.4167 L 0.2609 0.4063 Z M 0.2065 0.5035 L 0.2038 0.5139 L 0.212 0.5208 Q 0.2147 0.5069 0.2065 0.5035 Z M 0.212 0.5313 L 0.2092 0.5451 L 0.2011 0.5486 L 0.212 0.5521 L 0.212 0.5313 Z M 0.6576 0.5347 Q 0.6495 0.5417 0.6576 0.5451 L 0.663 0.5417 L 0.6576 0.5347 Z M 0.75 0.5486 L 0.7446 0.5556 Q 0.7418 0.5694 0.7527 0.5625 L 0.7554 0.5556 Q 0.7582 0.5451 0.75 0.5486 Z M 0.5978 0.5556 L 0.5951 0.5625 Q 0.5897 0.5729 0.587 0.559 L 0.5788 0.5799 L 0.5951 0.5729 L 0.5978 0.5764 L 0.5978 0.5556 Z M 0.7283 0.5694 L 0.7092 0.5729 L 0.7147 0.5868 L 0.7283 0.5833 L 0.731 0.5729 L 0.7283 0.5694 Z M 0.5598 0.5833 L 0.5516 0.6042 L 0.5571 0.6076 L 0.5761 0.6111 L 0.5707 0.5903 Q 0.5679 0.5799 0.5598 0.5833 Z M 0.3587 0.6007 L 0.3478 0.6076 L 0.3587 0.6111 L 0.3587 0.6007 Z M 0.4946 0.6146 Q 0.4918 0.625 0.481 0.6215 L 0.481 0.625 L 0.4918 0.625 L 0.5054 0.6181 L 0.4946 0.6146 Z M 0.5815 0.6146 L 0.5815 0.6215 Q 0.5815 0.6285 0.5951 0.6285 L 0.5978 0.6181 L 0.5815 0.6146 Z M 0.6386 0.625 L 0.6304 0.6319 L 0.6359 0.6319 L 0.6386 0.6424 L 0.625 0.6389 L 0.6114 0.6424 Q 0.6087 0.6528 0.6196 0.6493 L 0.625 0.6493 L 0.6522 0.6458 L 0.6549 0.6354 L 0.6549 0.625 L 0.6386 0.625 Z M 0.6576 0.625 L 0.6576 0.6354 L 0.6658 0.6354 Q 0.6685 0.6181 0.6576 0.625 Z M 0.6712 0.6285 L 0.6712 0.6389 Q 0.6875 0.6424 0.6902 0.6319 L 0.6712 0.6285 Z M 0.6141 0.6563 L 0.6005 0.6667 L 0.6114 0.6701 L 0.6522 0.6667 L 0.6413 0.6597 L 0.6359 0.6632 Q 0.6304 0.6528 0.6141 0.6563 Z M 0.6576 0.6701 L 0.6467 0.6806 L 0.6522 0.6806 Q 0.6549 0.6979 0.644 0.7049 Q 0.6413 0.7118 0.6549 0.7083 Q 0.6576 0.7188 0.663 0.7049 Q 0.6685 0.7083 0.6658 0.6979 L 0.6739 0.6979 L 0.6848 0.6875 L 0.6685 0.6701 L 0.6576 0.6701 Z M 0.3859 0.7326 L 0.3804 0.7396 Q 0.3777 0.75 0.3859 0.7535 L 0.3913 0.75 Q 0.394 0.7361 0.3859 0.7326 Z M 0.462 0.7326 L 0.4565 0.7396 Q 0.4538 0.7535 0.462 0.7569 Q 0.4728 0.7604 0.4674 0.7465 L 0.4674 0.7396 Q 0.4701 0.7292 0.462 0.7326 Z M 0.6196 0.7361 L 0.6087 0.7396 L 0.6087 0.7639 L 0.6141 0.7674 L 0.6223 0.75 L 0.6196 0.7361 Z M 0.3614 0.7465 L 0.3614 0.7569 L 0.3696 0.75 L 0.3614 0.7465 Z M 0.6413 0.7604 L 0.6332 0.7743 L 0.6223 0.7778 L 0.6223 0.8125 L 0.6359 0.8125 L 0.6332 0.7951 L 0.6359 0.7847 Q 0.6332 0.7743 0.6413 0.7778 L 0.6413 0.7604 Z M 0.5027 0.8021 L 0.5027 0.8194 L 0.5109 0.8194 L 0.5109 0.8021 L 0.5027 0.8021 Z M 0.1712 0.8229 L 0.1658 0.8299 L 0.1739 0.8681 L 0.1793 0.8542 L 0.1712 0.8333 L 0.1739 0.8264 L 0.1712 0.8229 Z M 0.1712 0.9028 L 0.1658 0.9097 Q 0.1712 0.9271 0.163 0.934 Q 0.1576 0.9479 0.1685 0.9444 Q 0.1739 0.9479 0.1739 0.9653 L 0.1793 0.9514 Q 0.1848 0.9306 0.1766 0.9271 L 0.1793 0.9097 L 0.1712 0.9028 Z M 0.5109 0.9444 L 0.5054 0.9514 L 0.5082 0.9618 L 0.5054 0.9688 L 0.5136 0.9896 L 0.5245 0.9965 L 0.5217 0.9618 L 0.519 0.9722 Q 0.5109 0.9757 0.5136 0.9688 L 0.5136 0.9618 Q 0.5163 0.9479 0.5109 0.9444 Z M 0.7065 0.9444 L 0.7038 0.9479 Q 0.6957 0.9444 0.6984 0.9549 Q 0.6929 0.9583 0.7011 0.9618 L 0.7065 0.9514 L 0.7065 0.9444 Z M 0.712 0.9549 L 0.7065 0.9688 Q 0.7038 0.9861 0.712 0.9896 Q 0.7174 0.9861 0.7147 0.9965 L 0.7174 0.9965 L 0.712 0.9549 Z M 0.163 0.9583 L 0.1603 0.9792 L 0.163 0.9792 L 0.163 0.9583 Z M 0.0992 0.1528 L 0.1128 0.1528 Q 0.118 0.1654 0.1304 0.1632 Q 0.1277 0.1528 0.1359 0.1563 Q 0.1415 0.1785 0.1223 0.1701 L 0.1223 0.1858 L 0.1277 0.1927 L 0.1277 0.2309 L 0.1223 0.2413 L 0.1223 0.2951 Q 0.1123 0.2905 0.1168 0.3108 Q 0.1046 0.3194 0.1087 0.349 L 0.1101 0.3542 L 0.106 0.3542 L 0.106 0.3646 Q 0.0987 0.3607 0.1005 0.3698 L 0.0965 0.3785 L 0.091 0.375 L 0.0802 0.3854 L 0 0.3854 L 0 0.1823 L 0.0095 0.1806 L 0.0095 0.1771 Q -0.006 0.1826 0 0.1632 L 0.0149 0.1597 L 0.0747 0.1597 L 0.0829 0.1632 L 0.0992 0.1528 Z M 0.0489 0.3507 L 0.0516 0.3576 L 0.0815 0.3576 L 0.0815 0.3507 L 0.0489 0.3507 Z M 0 0.5451 L 0.0231 0.5486 L 0.0353 0.5608 L 0.0272 0.5677 Q 0.0341 0.5768 0.0489 0.5729 L 0.0435 0.5608 L 0.0516 0.5538 L 0.0489 0.5469 L 0.0557 0.5451 Q 0.0686 0.5425 0.0707 0.5538 L 0.0693 0.5903 L 0.0598 0.5868 L 0.0598 0.6163 L 0.0625 0.6198 L 0.0571 0.6302 Q 0.0659 0.6352 0.0625 0.6528 Q 0.0535 0.6482 0.0571 0.6649 L 0.0516 0.6684 L 0.0516 0.6493 Q 0.0404 0.6539 0.0435 0.6424 L 0.0326 0.6424 L 0.0326 0.658 L 0.0462 0.6858 L 0.0435 0.7014 L 0.0163 0.6997 Q 0.0238 0.6959 0.0217 0.684 L 0.0136 0.6788 Q 0.017 0.6658 0.0068 0.6701 L 0 0.6667 L 0 0.6424 L 0.0122 0.6424 L 0.0163 0.6441 Q 0.025 0.6354 0.0217 0.6146 Q 0.0102 0.6111 0.0122 0.6215 L 0 0.6215 L 0 0.5451 Z M 0.0272 0.6007 L 0.0245 0.6111 Q 0.0353 0.6146 0.0326 0.6042 L 0.0272 0.6007 Z M 0.038 0.6146 L 0.0353 0.6319 L 0.038 0.6319 L 0.038 0.6146 Z M 0.7405 0.5972 L 0.75 0.6163 L 0.7459 0.6181 L 0.7391 0.6146 L 0.7405 0.5972 Z M 0.7052 0.6319 Q 0.7133 0.6372 0.7052 0.6424 Q 0.699 0.645 0.7011 0.6372 L 0.7052 0.6319 Z M 0.0598 0.6632 Q 0.0693 0.6593 0.0652 0.6858 Q 0.0598 0.7014 0.0543 0.6892 L 0.0516 0.6753 L 0.0598 0.6788 L 0.0598 0.6632 Z M 0.4769 0.816 L 0.481 0.8299 Q 0.4706 0.834 0.4769 0.816 Z M 0.4769 0.8438 Q 0.4861 0.8406 0.481 0.8594 L 0.4728 0.8646 Q 0.4694 0.8486 0.4769 0.8438 Z M 0.0394 0.8646 Q 0.053 0.8611 0.0557 0.8715 L 0.0625 0.8681 L 0.0598 0.8872 Q 0.0668 0.892 0.0652 0.908 L 0.0598 0.9288 L 0.0598 0.9809 L 0.0571 0.9896 L 0.0476 0.9861 L 0.0435 0.9948 L 0.0448 1 L 0 1 L 0 0.8681 Q 0.0146 0.8628 0.019 0.8733 Q 0.016 0.8877 0.0272 0.8819 L 0.0313 0.8681 L 0.0394 0.8646 Z M 0.0543 0.8785 L 0.0435 0.9097 L 0.0462 0.9201 Q 0.0435 0.934 0.0516 0.9306 L 0.0543 0.9514 L 0.0543 0.9201 L 0.0571 0.9167 Q 0.0598 0.8889 0.0543 0.8785 Z"/><path fill="#fbcd34" d="M 0 0.1354 L 0.1508 0.1354 Q 0.1539 0.1359 0.1522 0.1545 L 0.1467 0.1788 L 0.1467 0.2031 L 0.144 0.2066 L 0.144 0.2274 L 0.1413 0.2309 L 0.1413 0.2517 L 0.1386 0.2552 L 0.1386 0.276 L 0.1332 0.3003 L 0.1304 0.349 L 0.1223 0.4097 L 0.0014 0.4097 L 0 0.408 L 0 0.3854 L 0.0802 0.3854 L 0.0938 0.375 L 0.0978 0.3767 L 0.1005 0.3646 L 0.106 0.3646 Q 0.1019 0.3516 0.1101 0.3542 L 0.1087 0.349 L 0.1087 0.3247 Q 0.1198 0.3167 0.1168 0.2951 L 0.1223 0.2934 L 0.1223 0.2413 L 0.1277 0.2309 L 0.1277 0.1927 Q 0.1189 0.1877 0.1223 0.1701 Q 0.1415 0.1785 0.1359 0.1563 Q 0.1277 0.1528 0.1304 0.1632 L 0.1236 0.1632 L 0.1128 0.1528 L 0.0992 0.1528 L 0.0774 0.1632 L 0.0747 0.1597 L 0.0149 0.1597 L 0 0.1632 L 0 0.1354 Z M 0.2215 0.1354 L 0.5747 0.1354 L 0.5774 0.1389 L 0.6155 0.1424 L 0.6644 0.1597 L 0.6943 0.1771 Q 0.7295 0.2033 0.7554 0.2413 L 0.7826 0.2969 L 0.7935 0.3385 L 0.7989 0.401 L 0.8016 0.4045 L 0.8016 0.4392 L 0.7989 0.4427 L 0.7989 0.4844 L 0.7935 0.5052 L 0.7935 0.5226 L 0.7745 0.592 Q 0.7514 0.6545 0.7133 0.6979 Q 0.7072 0.6953 0.7092 0.7031 L 0.663 0.7448 L 0.6712 0.783 L 0.75 0.9983 L 0.7283 1 L 0.7201 0.9844 Q 0.7262 0.98 0.7228 0.9635 L 0.712 0.9497 L 0.7052 0.9271 Q 0.7004 0.9401 0.6957 0.9288 L 0.6929 0.9219 L 0.7011 0.8941 L 0.6848 0.8767 L 0.6766 0.849 L 0.6793 0.8385 L 0.6685 0.8125 L 0.6549 0.8194 Q 0.6491 0.808 0.6522 0.7795 Q 0.659 0.7743 0.6495 0.7691 L 0.6467 0.7413 Q 0.6569 0.7352 0.6481 0.7292 Q 0.6379 0.7326 0.6413 0.7222 Q 0.6529 0.7257 0.6563 0.7153 L 0.6644 0.7222 L 0.663 0.717 L 0.6658 0.7049 L 0.6563 0.7118 L 0.644 0.7083 L 0.6522 0.6806 L 0.6467 0.6788 Q 0.6513 0.6673 0.6671 0.6701 L 0.6848 0.6858 L 0.6726 0.6979 L 0.6658 0.6979 Q 0.6627 0.7072 0.6698 0.7049 L 0.6753 0.7049 Q 0.6814 0.7075 0.6793 0.6997 L 0.6834 0.6944 L 0.6902 0.6997 L 0.6957 0.6788 L 0.6929 0.6701 L 0.7038 0.6649 L 0.7011 0.6458 L 0.6929 0.6406 Q 0.6899 0.6291 0.697 0.6319 L 0.7011 0.6233 L 0.6984 0.6111 L 0.7052 0.6076 L 0.7092 0.6285 L 0.7188 0.6319 L 0.7201 0.625 L 0.7323 0.6285 L 0.7337 0.6163 L 0.731 0.6094 L 0.7364 0.6024 L 0.7364 0.5729 L 0.7486 0.5764 L 0.7554 0.5712 Q 0.7534 0.579 0.7595 0.5764 L 0.7717 0.566 L 0.7717 0.559 Q 0.7615 0.5642 0.7636 0.5538 L 0.7609 0.5313 L 0.7731 0.5347 L 0.7799 0.5087 L 0.7799 0.4913 L 0.788 0.4705 L 0.7853 0.467 L 0.7826 0.4115 L 0.7799 0.408 L 0.7799 0.342 L 0.7677 0.3229 L 0.7609 0.3177 L 0.7663 0.3073 L 0.7609 0.2882 L 0.7527 0.2934 L 0.7473 0.316 L 0.7527 0.3177 L 0.7446 0.3247 L 0.7432 0.3333 L 0.7418 0.3142 L 0.7337 0.2969 L 0.7337 0.2865 L 0.7432 0.2708 L 0.75 0.276 L 0.75 0.2674 Q 0.7427 0.2713 0.7446 0.2622 L 0.7391 0.2517 L 0.7418 0.2483 L 0.7337 0.2378 L 0.7323 0.2326 Q 0.7233 0.2397 0.7255 0.2569 L 0.7147 0.25 L 0.7147 0.2413 L 0.7188 0.2326 L 0.712 0.2274 L 0.7092 0.2205 L 0.7133 0.2222 L 0.7174 0.2205 L 0.7052 0.2083 L 0.6957 0.2118 Q 0.6997 0.1988 0.6916 0.2014 L 0.6889 0.191 L 0.6698 0.191 L 0.6454 0.1736 L 0.6128 0.1701 L 0.5965 0.1632 L 0.5652 0.1632 L 0.5679 0.1719 L 0.5639 0.1806 L 0.5557 0.1667 Q 0.5418 0.1688 0.538 0.158 Q 0.5401 0.1502 0.534 0.1528 L 0.5285 0.1493 L 0.5149 0.1563 L 0.5122 0.1528 L 0.4823 0.1493 L 0.4361 0.1597 L 0.3601 0.1597 L 0.3438 0.1493 L 0.341 0.1528 L 0.284 0.1528 L 0.2758 0.1563 L 0.2731 0.1528 L 0.2459 0.1528 L 0.2283 0.1632 L 0.2228 0.217 L 0.2255 0.2205 L 0.2255 0.2517 L 0.2283 0.2708 Q 0.2181 0.2656 0.2201 0.276 Q 0.2106 0.2813 0.2174 0.2865 L 0.212 0.3281 L 0.2147 0.3316 L 0.2147 0.3542 L 0.2228 0.3594 L 0.2174 0.3819 Q 0.2092 0.3776 0.212 0.3906 L 0.2147 0.401 L 0.2065 0.4063 L 0.2065 0.4323 Q 0.2147 0.4297 0.212 0.4444 Q 0.2029 0.4399 0.2065 0.4566 L 0.2011 0.467 Q 0.2072 0.4714 0.2038 0.4878 L 0.1997 0.4965 L 0.1984 0.4896 Q 0.1893 0.485 0.1929 0.5017 L 0.1984 0.5122 Q 0.1875 0.5191 0.1984 0.526 L 0.1957 0.5434 Q 0.2033 0.5493 0.2011 0.5677 L 0.1984 0.5677 L 0.197 0.5556 L 0.1889 0.5729 Q 0.1814 0.5709 0.1848 0.592 L 0.1875 0.599 L 0.1821 0.6267 L 0.1821 0.6753 L 0.1712 0.7031 L 0.1712 0.7448 L 0.1739 0.7483 L 0.1739 0.7743 L 0.1658 0.7795 L 0.1576 0.8177 L 0.1603 0.8281 Q 0.1542 0.8325 0.1576 0.849 L 0.1495 0.8663 L 0.1549 0.901 L 0.1467 0.9479 Q 0.1372 0.944 0.1413 0.9705 L 0.1413 0.9774 L 0.1386 1 L 0.1236 1 L 0.1223 0.9948 L 0.1332 0.9288 L 0.1332 0.9045 L 0.1386 0.8837 L 0.144 0.8073 L 0.1495 0.7899 L 0.1549 0.7135 L 0.1685 0.6233 L 0.1766 0.5156 L 0.1875 0.4392 L 0.1875 0.408 L 0.1929 0.3837 L 0.1929 0.3559 L 0.1984 0.3316 L 0.1984 0.3038 L 0.2038 0.2795 L 0.2092 0.1997 L 0.2147 0.1719 L 0.2147 0.1476 L 0.2215 0.1354 Z M 0.7418 0.5972 L 0.7391 0.6146 L 0.7473 0.6181 L 0.75 0.6181 L 0.7418 0.5972 Z M 0.7065 0.6319 L 0.7011 0.6389 Q 0.6984 0.6458 0.7065 0.6424 Q 0.7147 0.6389 0.7065 0.6319 Z M 0.2514 0.1667 L 0.2826 0.1701 Q 0.2876 0.1884 0.2677 0.1806 L 0.2568 0.191 L 0.2391 0.1788 L 0.2514 0.1667 Z M 0.5217 0.1701 L 0.5326 0.1788 Q 0.5349 0.1879 0.5258 0.184 L 0.5217 0.1701 Z M 0.5421 0.1701 L 0.5462 0.1701 L 0.5462 0.184 L 0.5353 0.184 L 0.5353 0.1788 L 0.5421 0.1701 Z M 0.3954 0.1771 L 0.413 0.1788 L 0.3954 0.1806 L 0.3954 0.1771 Z M 0.4293 0.2396 L 0.4375 0.2396 L 0.4375 0.2639 L 0.4293 0.2639 L 0.4293 0.2396 Z M 0.2201 0.2951 L 0.2283 0.2951 L 0.2283 0.3194 L 0.2201 0.3194 L 0.2201 0.2951 Z M 0.3247 0.3472 Q 0.3329 0.3524 0.3247 0.3576 Q 0.3166 0.3524 0.3247 0.3472 Z M 0.0476 0.3507 L 0.0802 0.3507 L 0.0815 0.3576 L 0.0503 0.3576 L 0.0476 0.3507 Z M 0.231 0.3576 L 0.2364 0.3576 L 0.2364 0.375 L 0.231 0.375 L 0.231 0.3576 Z M 0.4198 0.3854 L 0.4742 0.3889 Q 0.4783 0.3802 0.4932 0.3854 L 0.5068 0.3889 L 0.5217 0.3854 Q 0.5187 0.3947 0.5258 0.3924 L 0.5516 0.3993 Q 0.5476 0.4123 0.5557 0.4097 Q 0.5625 0.3906 0.5693 0.4063 L 0.587 0.408 L 0.5734 0.4184 L 0.5774 0.4271 L 0.587 0.4358 L 0.587 0.4444 L 0.5924 0.4462 L 0.5924 0.4705 Q 0.5965 0.4809 0.6005 0.4705 L 0.6019 0.4583 L 0.6087 0.4774 L 0.6019 0.5 Q 0.5929 0.4961 0.5951 0.5052 L 0.591 0.5278 Q 0.5876 0.52 0.5842 0.5295 L 0.5897 0.5399 L 0.5788 0.5451 Q 0.5795 0.5677 0.5666 0.5764 L 0.538 0.5903 Q 0.5414 0.6007 0.5313 0.5972 L 0.519 0.6024 L 0.5367 0.6042 L 0.5421 0.6111 Q 0.5543 0.6076 0.5571 0.6163 L 0.5557 0.625 L 0.5367 0.625 Q 0.5333 0.6328 0.5204 0.6285 L 0.5136 0.6233 L 0.5299 0.6163 L 0.5109 0.6111 L 0.5095 0.6042 L 0.4905 0.6042 L 0.4796 0.6111 L 0.4796 0.6042 L 0.4416 0.6042 L 0.4334 0.6111 L 0.4307 0.6076 L 0.4212 0.6198 L 0.4171 0.6319 Q 0.4151 0.6224 0.4035 0.625 L 0.3927 0.6285 L 0.3886 0.6267 Q 0.3906 0.6345 0.3845 0.6319 L 0.3804 0.6337 L 0.3777 0.6146 L 0.394 0.6146 L 0.394 0.6059 L 0.3967 0.6024 L 0.3927 0.5938 L 0.3967 0.592 L 0.3818 0.5799 L 0.3736 0.5868 L 0.3723 0.5781 Q 0.3793 0.5733 0.3777 0.5573 L 0.3668 0.5295 L 0.3668 0.5191 L 0.3736 0.5069 L 0.3804 0.5156 L 0.3832 0.533 L 0.3804 0.5451 Q 0.3913 0.5499 0.3859 0.526 L 0.3886 0.5226 L 0.3913 0.4601 L 0.3886 0.4497 L 0.3913 0.4375 L 0.3995 0.4358 L 0.394 0.434 L 0.3967 0.4219 L 0.394 0.4097 Q 0.4092 0.4021 0.4049 0.4219 L 0.4076 0.4219 Q 0.4035 0.3906 0.4198 0.3854 Z M 0.4592 0.4063 L 0.4565 0.4097 L 0.4212 0.4097 L 0.413 0.4271 L 0.3995 0.559 L 0.3967 0.5625 Q 0.394 0.5799 0.4022 0.5833 L 0.5136 0.5833 L 0.5489 0.566 Q 0.5679 0.5486 0.5761 0.5139 Q 0.5815 0.4653 0.5679 0.4444 Q 0.5543 0.4167 0.5272 0.4097 L 0.4592 0.4063 Z M 0.2595 0.4063 L 0.2609 0.4149 L 0.2582 0.4323 L 0.2609 0.4549 L 0.2554 0.4531 L 0.2554 0.4115 L 0.2595 0.4063 Z M 0.2052 0.5035 Q 0.2133 0.5052 0.212 0.5191 L 0.2038 0.5122 L 0.2052 0.5035 Z M 0 0.5278 L 0.0883 0.5278 L 0.0924 0.533 L 0.0815 0.6476 L 0.0761 0.6719 L 0.0761 0.6962 L 0.0693 0.7188 L 0 0.7188 L 0 0.6667 L 0.0136 0.6701 L 0.0177 0.684 Q 0.0248 0.6811 0.0217 0.6927 L 0.0177 0.7014 L 0.0435 0.7014 L 0.0435 0.6892 L 0.0462 0.6823 Q 0.0298 0.6717 0.0326 0.6424 L 0.0435 0.6424 Q 0.0404 0.6539 0.0516 0.6493 L 0.0516 0.6684 L 0.0571 0.6649 Q 0.0543 0.6476 0.0625 0.651 L 0.0625 0.6372 Q 0.053 0.6319 0.0598 0.6267 L 0.0625 0.6198 L 0.0598 0.6163 L 0.0598 0.5868 L 0.0693 0.5903 L 0.0707 0.5538 Q 0.0686 0.5425 0.0557 0.5451 L 0.0489 0.5469 L 0.0516 0.5538 L 0.0435 0.5608 L 0.0489 0.5729 Q 0.0341 0.5768 0.0272 0.5677 L 0.0353 0.5608 L 0.0231 0.5486 L 0 0.5451 L 0 0.5278 Z M 0.0598 0.6632 L 0.0598 0.6806 L 0.0516 0.6771 L 0.0543 0.691 Q 0.0598 0.7014 0.0652 0.6875 Q 0.0679 0.6597 0.0598 0.6632 Z M 0.2106 0.5313 L 0.212 0.5521 L 0.2011 0.5469 L 0.2092 0.5434 L 0.2106 0.5313 Z M 0.6563 0.5347 L 0.663 0.5399 L 0.6563 0.5451 Q 0.6481 0.5399 0.6563 0.5347 Z M 0.7486 0.5486 Q 0.7577 0.5447 0.7554 0.5538 L 0.7527 0.5625 Q 0.7415 0.5683 0.7446 0.5538 L 0.7486 0.5486 Z M 0.5965 0.5556 L 0.5978 0.5747 L 0.5938 0.5729 L 0.5788 0.5799 L 0.5856 0.559 Q 0.5904 0.572 0.5951 0.5608 L 0.5965 0.5556 Z M 0.9986 0.5625 L 1 0.7743 L 0.9823 0.7847 L 0.9647 0.776 L 0.9647 0.7517 Q 0.9759 0.7418 0.9728 0.7135 L 0.9565 0.6753 L 0.9565 0.6597 L 0.9389 0.6632 L 0.928 0.6771 Q 0.9137 0.6727 0.9103 0.6823 Q 0.9124 0.6901 0.9063 0.6875 L 0.8709 0.6979 L 0.8601 0.691 Q 0.8298 0.6992 0.8152 0.7274 Q 0.8166 0.7431 0.8071 0.7448 L 0.8071 0.7726 L 0.8043 0.776 L 0.8152 0.7847 Q 0.8201 0.7979 0.8179 0.8247 L 0.8043 0.849 L 0.8071 0.8559 Q 0.8023 0.8672 0.7976 0.8542 L 0.788 0.849 L 0.7772 0.8177 L 0.7772 0.8021 Q 0.7844 0.806 0.7826 0.7969 L 0.7772 0.7865 L 0.7935 0.7153 Q 0.8016 0.7196 0.7989 0.7066 Q 0.808 0.6782 0.8274 0.6632 L 0.8601 0.6458 L 0.8655 0.6458 L 0.9035 0.6424 L 0.9334 0.6285 L 0.9986 0.5625 Z M 0.7269 0.5694 L 0.731 0.5712 L 0.7283 0.5833 L 0.7133 0.5868 L 0.7092 0.5729 L 0.7269 0.5694 Z M 0.5584 0.5833 Q 0.5686 0.5807 0.5707 0.5885 L 0.5761 0.6111 L 0.5557 0.6076 L 0.5516 0.6024 L 0.5584 0.5833 Z M 0.0258 0.6007 L 0.0326 0.6042 Q 0.0357 0.6157 0.0245 0.6111 L 0.0258 0.6007 Z M 0.3465 0.6007 L 0.3546 0.6042 L 0.3587 0.6024 Q 0.3621 0.6155 0.3519 0.6111 L 0.3465 0.6007 Z M 0.0136 0.6146 Q 0.0279 0.6082 0.0217 0.6337 L 0.0149 0.6458 L 0 0.6424 L 0 0.6215 L 0.0136 0.6215 L 0.0136 0.6146 Z M 0.0367 0.6146 L 0.038 0.6302 L 0.0353 0.6302 L 0.0367 0.6146 Z M 0.4932 0.6146 L 0.5054 0.6163 L 0.4905 0.625 L 0.4796 0.625 L 0.4796 0.6215 Q 0.4912 0.6241 0.4932 0.6146 Z M 0.5815 0.6146 L 0.5978 0.6181 L 0.5938 0.6285 Q 0.5829 0.6302 0.5815 0.6198 L 0.5815 0.6146 Z M 0.6372 0.625 L 0.6549 0.625 L 0.6549 0.6337 L 0.6522 0.6458 L 0.6236 0.6493 L 0.6182 0.6493 Q 0.608 0.6528 0.6114 0.6424 L 0.6236 0.6389 L 0.6386 0.6424 L 0.6345 0.6319 L 0.6304 0.6302 L 0.6372 0.625 Z M 0.6576 0.625 Q 0.6688 0.6192 0.6658 0.6337 L 0.6576 0.6337 L 0.6576 0.625 Z M 0.6712 0.6285 L 0.6902 0.6302 Q 0.6861 0.6432 0.6712 0.6389 L 0.6712 0.6285 Z M 0.6128 0.6563 Q 0.6304 0.651 0.6345 0.6632 L 0.6399 0.6597 L 0.6522 0.6649 L 0.6101 0.6701 L 0.6005 0.6649 L 0.6128 0.6563 Z M 0.3845 0.7326 Q 0.3933 0.7367 0.3913 0.75 L 0.3845 0.7535 Q 0.3784 0.7509 0.3804 0.7378 L 0.3845 0.7326 Z M 0.4606 0.7326 Q 0.4696 0.7288 0.4674 0.7378 L 0.4674 0.7448 Q 0.4719 0.7615 0.4606 0.7569 Q 0.4538 0.7535 0.4565 0.7378 L 0.4606 0.7326 Z M 0.6182 0.7361 L 0.6223 0.7483 L 0.6128 0.7674 L 0.6087 0.7622 L 0.6087 0.7396 L 0.6182 0.7361 Z M 0.3614 0.7465 L 0.3696 0.7483 L 0.3614 0.7552 L 0.3614 0.7465 Z M 0.4117 0.75 L 0.4321 0.7535 L 0.4389 0.7674 L 0.4552 0.7604 L 0.4511 0.7691 L 0.4538 0.8021 Q 0.464 0.8073 0.462 0.7969 Q 0.466 0.7865 0.4701 0.7969 L 0.462 0.8177 L 0.4688 0.8403 Q 0.4749 0.8429 0.4728 0.8351 Q 0.4654 0.8325 0.4674 0.8177 L 0.4796 0.7951 L 0.4864 0.8003 L 0.4891 0.8073 L 0.4891 0.8559 L 0.4864 0.8698 L 0.4864 0.8767 Q 0.4823 0.9028 0.4905 0.9132 L 0.4918 0.9063 Q 0.503 0.9005 0.5 0.9149 Q 0.4925 0.921 0.4973 0.9427 L 0.5 0.9531 L 0.4973 0.9635 L 0.5082 0.9844 L 0.5082 0.9965 L 0.5163 0.9983 L 0.4946 1 L 0.4592 0.8733 L 0.4565 0.8524 L 0.4389 0.8021 L 0.3723 0.7986 L 0.3533 1 L 0.337 1 L 0.337 0.9635 L 0.3451 0.9358 L 0.3424 0.9323 L 0.3424 0.901 L 0.3451 0.8941 L 0.3424 0.8837 L 0.3478 0.8663 Q 0.3404 0.8602 0.3451 0.8385 L 0.3533 0.8333 L 0.356 0.8212 L 0.3505 0.8073 L 0.3587 0.8056 L 0.3736 0.7778 L 0.3845 0.7743 L 0.4008 0.7813 L 0.4103 0.7778 L 0.4103 0.7639 Q 0.3951 0.7704 0.3995 0.7535 L 0.4117 0.75 Z M 0.4783 0.816 Q 0.4701 0.8333 0.481 0.8299 L 0.4783 0.816 Z M 0.4783 0.8438 Q 0.4701 0.8472 0.4728 0.8646 L 0.481 0.8611 Q 0.4864 0.8403 0.4783 0.8438 Z M 0.6399 0.7604 L 0.6413 0.7778 Q 0.634 0.7739 0.6359 0.783 L 0.6332 0.7934 L 0.6359 0.8125 L 0.6223 0.8125 L 0.6223 0.7778 L 0.6332 0.7743 L 0.6399 0.7604 Z M 0.5027 0.8021 L 0.5109 0.8021 L 0.5109 0.8194 L 0.5027 0.8194 L 0.5027 0.8021 Z M 0.1698 0.8229 L 0.1739 0.8247 L 0.1712 0.8316 L 0.1793 0.8524 L 0.1726 0.8681 L 0.1658 0.8281 L 0.1698 0.8229 Z M 0 0.8507 L 0.0829 0.8507 Q 0.0863 0.8516 0.0842 0.8733 L 0.0815 0.8767 L 0.0815 0.901 L 0.0788 0.9045 L 0.0707 1 L 0.0476 1 L 0.0435 0.9948 L 0.0476 0.9861 L 0.0571 0.9896 L 0.0598 0.9809 L 0.0598 0.9288 L 0.0652 0.8976 Q 0.0582 0.8927 0.0598 0.8767 L 0.0625 0.8681 L 0.0557 0.8715 Q 0.053 0.8611 0.0394 0.8646 L 0.0272 0.8733 Q 0.0302 0.8877 0.019 0.8819 L 0.0149 0.8681 Q -0.0075 0.8767 0 0.8507 Z M 0.053 0.8785 Q 0.0599 0.8905 0.0571 0.9149 L 0.0543 0.9184 L 0.053 0.9514 L 0.0516 0.9306 Q 0.0426 0.9351 0.0462 0.9184 L 0.0435 0.908 L 0.053 0.8785 Z M 0.1698 0.9028 L 0.1793 0.908 L 0.1766 0.9253 Q 0.1834 0.9306 0.1793 0.9497 L 0.1726 0.9653 Q 0.1742 0.9493 0.1671 0.9444 Q 0.161 0.9418 0.163 0.9497 L 0.1603 0.9497 L 0.1658 0.9288 L 0.1658 0.908 L 0.1698 0.9028 Z M 0.8302 0.9201 Q 0.8432 0.9155 0.8397 0.9271 Q 0.8283 0.9273 0.8302 0.9201 Z M 0.5095 0.9444 Q 0.5156 0.947 0.5136 0.9601 L 0.5136 0.967 Q 0.5118 0.9761 0.519 0.9722 L 0.5204 0.9618 L 0.5245 0.9965 L 0.5136 0.9878 L 0.5054 0.967 L 0.5082 0.9601 L 0.5054 0.9497 L 0.5095 0.9444 Z M 0.7052 0.9444 L 0.7065 0.9497 L 0.6997 0.9618 Q 0.6923 0.9575 0.6984 0.9531 Q 0.6963 0.9453 0.7024 0.9479 L 0.7052 0.9444 Z M 0.8573 0.9444 L 0.8641 0.9497 L 0.8546 0.9514 L 0.8573 0.9444 Z M 0.7106 0.9549 L 0.7174 0.9948 L 0.7147 0.9948 Q 0.7167 0.987 0.7106 0.9896 Q 0.7031 0.9852 0.7065 0.967 L 0.7106 0.9549 Z M 0.1617 0.9583 L 0.163 0.9774 L 0.1603 0.9774 L 0.1617 0.9583 Z M 0.3193 0.9618 L 0.3234 0.967 Q 0.32 0.9835 0.3261 0.9878 L 0.3193 1 L 0.3193 0.9618 Z M 0.6997 0.9792 L 0.7065 0.9983 L 0.6943 1 L 0.6957 0.9948 Q 0.6936 0.9818 0.6997 0.9792 Z M 0.1617 0.9896 L 0.1739 0.9983 L 0.1576 1 L 0.1617 0.9896 Z"/></svg>