<svg xmlns="http://www.w3.org/2000/svg" width="512" height="512" viewBox="0 0 1 1"><path fill="#e8bc36" d="M 0.3084 0.0644 L 0.3628 0.0644 L 0.3872 0.0706 Q 0.433 0.0879 0.462 0.1242 Q 0.4835 0.1475 0.4973 0.1794 L 0.4973 0.1887 L 0.5082 0.2101 L 0.5136 0.2439 L 0.5204 0.2515 L 0.6046 0.2853 L 0.6481 0.2975 L 0.6563 0.3037 L 0.6753 0.3098 L 0.6889 0.3098 L 0.7065 0.2975 L 0.7106 0.2883 L 0.7188 0.2822 Q 0.7492 0.246 0.7948 0.227 L 0.8166 0.2209 L 0.8682 0.2147 L 0.8845 0.2209 L 0.9117 0.2239 L 0.9416 0.2393 Q 0.9746 0.2603 0.9973 0.2929 L 1 0.2991 L 1 0.5966 Q 0.9741 0.644 0.9361 0.6779 L 0.9239 0.6887 L 0.9185 0.6979 L 0.9185 0.7316 L 0.9158 0.7377 L 0.9185 0.7439 Q 0.9103 0.7592 0.913 0.7868 L 0.8913 0.8758 L 0.8587 0.9617 L 0.8397 1 L 0.7867 1 L 0.7853 0.9954 Q 0.8148 0.9536 0.8342 0.9003 L 0.8342 0.8911 L 0.856 0.8298 L 0.8614 0.8052 L 0.8614 0.7868 L 0.8668 0.7776 L 0.8668 0.7592 L 0.8723 0.7408 L 0.8723 0.6672 L 0.8818 0.6503 Q 0.9137 0.6342 0.9348 0.6058 L 0.9538 0.5782 L 0.981 0.5199 L 0.981 0.5046 L 0.9918 0.4617 L 0.9918 0.4433 L 0.981 0.388 L 0.9565 0.3374 L 0.9484 0.3328 L 0.9416 0.3221 L 0.8981 0.2914 L 0.8791 0.2853 L 0.8356 0.2822 L 0.8084 0.2883 L 0.7758 0.3037 Q 0.7418 0.3267 0.7174 0.3604 L 0.7024 0.3804 L 0.6916 0.3804 L 0.6535 0.3681 L 0.5774 0.3374 L 0.5666 0.3374 Q 0.5455 0.3228 0.5149 0.319 L 0.5068 0.3129 L 0.4742 0.3037 L 0.4647 0.2929 Q 0.4596 0.199 0.409 0.1564 L 0.3764 0.135 L 0.3573 0.1288 L 0.3274 0.1258 L 0.2785 0.138 L 0.2283 0.1764 Q 0.1997 0.2086 0.1848 0.2561 L 0.1766 0.2991 L 0.1766 0.3359 L 0.1848 0.3819 L 0.1957 0.4095 L 0.2065 0.4248 L 0.2065 0.4463 L 0.1875 0.4709 L 0.1522 0.5322 L 0.1359 0.569 L 0.1359 0.5782 L 0.1196 0.6242 L 0.1114 0.6641 L 0.1114 0.6917 Q 0.1033 0.704 0.106 0.7285 L 0.1033 0.7316 L 0.1033 0.8144 L 0.1196 0.9126 L 0.1522 1 L 0.0965 1 L 0.0951 0.9923 L 0.0788 0.9525 L 0.0598 0.8666 L 0.0543 0.7592 L 0.0571 0.7561 L 0.0598 0.6856 Q 0.0659 0.6817 0.0625 0.6672 L 0.0679 0.658 L 0.0679 0.6396 L 0.0734 0.6304 L 0.0761 0.6028 L 0.1087 0.5077 L 0.1386 0.4555 L 0.1467 0.431 L 0.1277 0.3543 L 0.1277 0.2929 L 0.144 0.2193 L 0.1603 0.1825 L 0.1929 0.1319 L 0.2011 0.1273 L 0.2052 0.1196 L 0.2351 0.0951 L 0.2677 0.0767 L 0.3084 0.0644 Z M 0.2595 0.4663 Q 0.2819 0.4624 0.2948 0.4693 L 0.3179 0.4893 L 0.3342 0.5199 L 0.3342 0.566 Q 0.3283 0.5953 0.3152 0.6135 L 0.3098 0.6135 Q 0.3129 0.6217 0.3057 0.6196 L 0.2921 0.6258 L 0.2595 0.6043 L 0.2351 0.5951 L 0.2079 0.5951 L 0.1984 0.5844 L 0.1957 0.5567 L 0.2065 0.5107 L 0.2201 0.4877 L 0.2595 0.4663 Z M 0.6617 0.5982 L 0.6916 0.6012 L 0.7228 0.6242 L 0.7391 0.658 L 0.7418 0.6825 L 0.7337 0.7285 L 0.7133 0.7638 L 0.697 0.7761 L 0.6889 0.7761 L 0.6481 0.7485 L 0.6264 0.7423 L 0.5992 0.7423 L 0.5897 0.7316 L 0.587 0.6825 Q 0.5968 0.64 0.6236 0.6166 L 0.6617 0.5982 Z M 0.4008 0.6043 L 0.4443 0.6043 L 0.466 0.6104 Q 0.5011 0.6261 0.5245 0.6549 L 0.5516 0.7101 L 0.5625 0.7684 L 0.5598 0.7715 L 0.5598 0.7929 L 0.5543 0.8236 L 0.538 0.8666 L 0.5272 0.8819 L 0.5272 0.888 L 0.4905 0.9294 Q 0.472 0.9485 0.4443 0.9571 L 0.4226 0.9632 L 0.3818 0.9632 Q 0.3232 0.9496 0.2935 0.9034 L 0.2745 0.8666 L 0.2636 0.8267 L 0.2636 0.7684 L 0.2717 0.7285 L 0.2853 0.6979 Q 0.3063 0.6586 0.3383 0.6319 L 0.3791 0.6104 L 0.4008 0.6043 Z M 0.4158 0.6227 Q 0.4103 0.6288 0.3995 0.6258 L 0.3668 0.6472 Q 0.3424 0.6687 0.3342 0.7086 Q 0.3315 0.7393 0.337 0.7607 L 0.356 0.7975 L 0.3832 0.816 L 0.394 0.819 L 0.4266 0.819 Q 0.4484 0.8129 0.462 0.7975 Q 0.4864 0.773 0.4946 0.727 L 0.4918 0.6902 L 0.481 0.6626 L 0.4538 0.6319 L 0.4402 0.6258 L 0.4158 0.6227 Z"/></svg>